STARTFONT 2.3
FONT -FontForge-Source Code Pro-Book-R-Normal--20-200-72-72-M-120-ISO10646-1
SIZE 20 72 72  4
FONTBOUNDINGBOX 23 34 -6 -9
COMMENT "Generated by fontforge, http://fontforge.sourceforge.net"
COMMENT "Copyright 2010, 2012 Adobe Systems Incorporated (http://www.adobe.com/), with Reserved Font Name `Source'."
STARTPROPERTIES 42
FOUNDRY "FontForge"
FAMILY_NAME "Source Code Pro"
WEIGHT_NAME "Book"
SLANT "R"
SETWIDTH_NAME "Normal"
ADD_STYLE_NAME ""
PIXEL_SIZE 20
POINT_SIZE 200
RESOLUTION_X 72
RESOLUTION_Y 72
SPACING "M"
AVERAGE_WIDTH 120
CHARSET_REGISTRY "ISO10646"
CHARSET_ENCODING "1"
FONTNAME_REGISTRY ""
CHARSET_COLLECTIONS "ASCII ISOLatin1Encoding ISO8859-2 ISO8859-9 ISO8859-4 ISO10646-1"
BITS_PER_PIXEL 4
FONT_NAME "SourceCodePro-It"
FACE_NAME "Source Code Pro Italic"
COPYRIGHT "Copyright 2010, 2012 Adobe Systems Incorporated (http://www.adobe.com/), with Reserved Font Name `Source'."
FONT_VERSION "1.050;PS 1.000;hotconv 16.6.51;makeotf.lib2.5.65220"
FONT_ASCENT 15
FONT_DESCENT 5
UNDERLINE_POSITION -2
UNDERLINE_THICKNESS 1
X_HEIGHT 9
CAP_HEIGHT 12
RAW_ASCENT 750
RAW_DESCENT 250
ITALIC_ANGLE 5056
NORM_SPACE 12
RELATIVE_WEIGHT 40
RELATIVE_SETWIDTH 50
SUPERSCRIPT_X 1
SUPERSCRIPT_Y 7
SUPERSCRIPT_SIZE 12
SUBSCRIPT_X 0
SUBSCRIPT_Y 1
SUBSCRIPT_SIZE 12
FIGURE_WIDTH 12
AVG_LOWERCASE_WIDTH 120
AVG_UPPERCASE_WIDTH 120
ENDPROPERTIES
CHARS 1269
STARTCHAR space
ENCODING 32
SWIDTH 600 0
DWIDTH 12 0
BBX 1 1 0 0
BITMAP
00
ENDCHAR
STARTCHAR exclam
ENCODING 33
SWIDTH 600 0
DWIDTH 12 0
BBX 6 13 3 0
BITMAP
0007F2
000AE0
000CA0
000F60
003F20
006D00
008900
00B500
000000
000000
0BE300
4FF600
2EC100
ENDCHAR
STARTCHAR quotedbl
ENCODING 34
SWIDTH 600 0
DWIDTH 12 0
BBX 8 7 3 7
BITMAP
0CF304FC
0FF106F9
2FC009F6
4F800AF1
5F300BC0
6E000D70
89000E30
ENDCHAR
STARTCHAR numbersign
ENCODING 35
SWIDTH 600 0
DWIDTH 12 0
BBX 10 13 1 0
BITMAP
00008700A5
0000C300E1
0002E004C0
0006900870
06FFFFFFFD
001E102D00
005A007800
00A500C300
9FFFFFFFA0
05B0079000
0A600B4000
0E101E0000
4B006A0000
ENDCHAR
STARTCHAR dollar
ENCODING 36
SWIDTH 600 0
DWIDTH 12 0
BBX 10 17 1 -2
BITMAP
000000F100
000003E000
000005B000
0018DFE920
00BC302AF3
02F6000040
01FB100000
006FD60000
0003BFD400
000004DF30
0000002F80
3500000E80
8F82029E30
05BFFFB300
000A700000
000D300000
001F100000
ENDCHAR
STARTCHAR percent
ENCODING 37
SWIDTH 600 0
DWIDTH 12 0
BBX 14 13 -1 0
BITMAP
006DEA100002B1
06D31C70002D80
0E40089002D600
2F100C702C4000
0E617D10420000
05DEA200000000
00000000000000
00005103BFC300
0007B02E618D00
00AA0099003F00
1BA000C6006C00
4A0000AA14E400
0000002BFC4000
ENDCHAR
STARTCHAR ampersand
ENCODING 38
SWIDTH 600 0
DWIDTH 12 0
BBX 12 13 0 0
BITMAP
00002BFD3000
0002E71AB000
0009C008C000
000B901D7000
000AB3DA0000
0007FF700011
005EF60003F4
07F7AD000AA0
3F702F804E20
8E0006F7E600
8E0000AFB000
4F8117ECF920
05CFEA404C50
ENDCHAR
STARTCHAR quotesingle
ENCODING 39
SWIDTH 600 0
DWIDTH 12 0
BBX 4 7 5 7
BITMAP
08F7
0BF5
0DF1
0FC0
1F70
2F30
4E00
ENDCHAR
STARTCHAR parenleft
ENCODING 40
SWIDTH 600 0
DWIDTH 12 0
BBX 9 18 3 -3
BITMAP
0000005B10
000009F700
0000AE3000
0008E30000
004F500000
00CB000000
03F3000000
09D0000000
0C90000000
0F60000000
1F50000000
0F60000000
0E70000000
0BB0000000
06E1000000
01E9000000
006F500000
0008700000
ENDCHAR
STARTCHAR parenright
ENCODING 41
SWIDTH 600 0
DWIDTH 12 0
BBX 8 19 0 -5
BITMAP
00009600
00006F40
00000AC0
000003F4
000000D8
0000009C
0000008D
0000007E
0000008D
000000AB
000000E8
000004F3
00000BC0
00005F40
0002E800
003DB000
05EA1000
1E700000
01000000
ENDCHAR
STARTCHAR asterisk
ENCODING 42
SWIDTH 600 0
DWIDTH 12 0
BBX 9 9 2 2
BITMAP
0000630000
0000D30000
0001F10000
BA56E27C60
16DFFE9300
008FF40000
05F6CA0000
2E603F2000
8600096000
ENDCHAR
STARTCHAR plus
ENCODING 43
SWIDTH 600 0
DWIDTH 12 0
BBX 10 9 1 2
BITMAP
0000990000
0000990000
0000990000
0000990000
4FFFFFFFF4
0000990000
0000990000
0000990000
0000990000
ENDCHAR
STARTCHAR comma
ENCODING 44
SWIDTH 600 0
DWIDTH 12 0
BBX 6 7 1 -4
BITMAP
000AE6
004FFC
001DFB
0001E7
0009D1
04BC20
1C7100
ENDCHAR
STARTCHAR hyphen
ENCODING 45
SWIDTH 600 0
DWIDTH 12 0
BBX 10 1 1 6
BITMAP
4FFFFFFFF4
ENDCHAR
STARTCHAR period
ENCODING 46
SWIDTH 600 0
DWIDTH 12 0
BBX 4 3 3 0
BITMAP
1BE4
6FF8
3EC1
ENDCHAR
STARTCHAR slash
ENCODING 47
SWIDTH 600 0
DWIDTH 12 0
BBX 12 17 0 -3
BITMAP
0000000001E6
0000000009C0
000000003F30
00000000CA00
00000006E100
0000001E7000
0000009D0000
000003F40000
00000BA00000
00005F200000
0001D8000000
0008D1000000
002F50000000
00BB00000000
04F300000000
0D9000000000
7E1000000000
ENDCHAR
STARTCHAR zero
ENCODING 48
SWIDTH 600 0
DWIDTH 12 0
BBX 10 13 1 0
BITMAP
0004BEEA20
006E612AD0
03F50001F6
0CA00000BB
3F5000009D
7E009D109C
AB01FF20BB
CA00CB00E8
CA000003F3
AC00000AC0
6F10004F40
0DB216E700
02AEEB4000
ENDCHAR
STARTCHAR one
ENCODING 49
SWIDTH 600 0
DWIDTH 12 0
BBX 10 13 0 0
BITMAP
000025AF70
0001EEEF40
0000007F10
000000AD00
000000DA00
000001F700
000004F500
000006F200
000009E000
00000CB000
00000F8000
00003F5000
1FFFFFFFF8
ENDCHAR
STARTCHAR two
ENCODING 50
SWIDTH 600 0
DWIDTH 12 0
BBX 10 13 0 0
BITMAP
00029DFD70
005F9214E7
002500009D
000000008E
00000000CC
00000004F6
0000001DC0
000001CE20
00001BE300
0001CE3000
002DD20000
03EC100000
2EFEFFFFFC
ENDCHAR
STARTCHAR three
ENCODING 51
SWIDTH 600 0
DWIDTH 12 0
BBX 11 13 0 0
BITMAP
00029DFDA200
001E9203DD10
000100005F40
000000005F30
00000000AD00
0000014BD300
0000BFF91000
0000025DC100
00000002F800
00000000EA00
07000002F700
2DC4115DC100
018DEEC71000
ENDCHAR
STARTCHAR four
ENCODING 52
SWIDTH 600 0
DWIDTH 12 0
BBX 11 13 0 0
BITMAP
00000001BF30
0000001BEF00
000001BC9C00
00000BD1C900
0000BD10F600
000BD103F300
00AD1006F100
0AD10009D000
7FFFFFFFFF90
0000001F6000
0000003F3000
0000006F1000
0000008D0000
ENDCHAR
STARTCHAR five
ENCODING 53
SWIDTH 600 0
DWIDTH 12 0
BBX 11 13 0 0
BITMAP
0005FFFFFFA0
0009B0000000
000C80000000
001F50000000
004F10000000
008EADFD7000
008B4117F700
00000000BD00
000000009E00
00000000BC00
17000003F600
3EB4116EA000
029DFEB50000
ENDCHAR
STARTCHAR six
ENCODING 54
SWIDTH 600 0
DWIDTH 12 0
BBX 10 13 1 0
BITMAP
00017CEEB3
002DB4029C
01DA000001
09D1000000
1F70000000
5F26CED810
8EA8214EA0
AE300007F1
AB000005F2
9D000007E0
4F30000D90
0AD413CC10
008DFD7000
ENDCHAR
STARTCHAR seven
ENCODING 55
SWIDTH 600 0
DWIDTH 12 0
BBX 10 13 2 0
BITMAP
9FFFFFFFF6
0000002D80
000001D900
00000BC000
00006E2000
0002E70000
000AD00000
002F700000
008F100000
00EA000000
04F6000000
08F2000000
0CD0000000
ENDCHAR
STARTCHAR eight
ENCODING 56
SWIDTH 600 0
DWIDTH 12 0
BBX 10 13 1 0
BITMAP
0004BEEB30
005F6118E2
00D90000D8
00D80000C8
006E2003F5
001DD53EB0
04EDBFFA10
2EB104D900
8E10002E80
AA000009C0
9D00000CB0
2EA203AE30
03ADED9200
ENDCHAR
STARTCHAR nine
ENCODING 57
SWIDTH 600 0
DWIDTH 12 0
BBX 10 13 1 0
BITMAP
0018DFD810
01CC314DB0
09D10003F5
0E700000D9
2F500000BA
1F700004FA
0AE4128BE8
018DEC61F5
00000006F1
0000000D90
1000009E10
C9203BD300
3BEFD81000
ENDCHAR
STARTCHAR colon
ENCODING 58
SWIDTH 600 0
DWIDTH 12 0
BBX 5 10 3 0
BITMAP
007EA0
00FFE0
00BE50
000000
000000
000000
000000
1BE400
6FF800
3EC100
ENDCHAR
STARTCHAR semicolon
ENCODING 59
SWIDTH 600 0
DWIDTH 12 0
BBX 7 14 1 -4
BITMAP
00007EA0
0000FFE0
0000BE50
00000000
00000000
00000000
00000000
000AE600
004FFC00
001DFB00
0001E700
0009D100
04BC2000
1C710000
ENDCHAR
STARTCHAR less
ENCODING 60
SWIDTH 600 0
DWIDTH 12 0
BBX 8 11 2 1
BITMAP
00000029
000006D4
0002BB10
006E7000
2BD30000
9E200000
2BD30000
006E7000
0002BB10
000006D4
00000029
ENDCHAR
STARTCHAR equal
ENCODING 61
SWIDTH 600 0
DWIDTH 12 0
BBX 10 5 1 4
BITMAP
4FFFFFFFF4
0000000000
0000000000
0000000000
4FFFFFFFF4
ENDCHAR
STARTCHAR greater
ENCODING 62
SWIDTH 600 0
DWIDTH 12 0
BBX 8 11 2 1
BITMAP
92000000
4D600000
01BB2000
0007E600
00003DB2
000002E9
00003DB2
0007E600
01BB2000
4D600000
92000000
ENDCHAR
STARTCHAR question
ENCODING 63
SWIDTH 600 0
DWIDTH 12 0
BBX 8 13 3 0
BITMAP
03AEFC50
4E7119F3
020003F5
00000AE1
0001BD30
003EA100
01E80000
06E00000
00000000
00000000
3DC00000
AFF10000
6E800000
ENDCHAR
STARTCHAR at
ENCODING 64
SWIDTH 600 0
DWIDTH 12 0
BBX 12 16 0 -3
BITMAP
000017CEEB30
0003DB4128D1
002E700000D4
00C9000000A6
05E1000000C5
0B800038BEF2
1F200AE844E0
4E008C1006B0
6C00C6000980
7B00BA127D60
7B003CFB3C30
5D0000000000
2F2000000000
0BA000000000
02EA30288000
0029DFD92000
ENDCHAR
STARTCHAR A
ENCODING 65
SWIDTH 600 0
DWIDTH 12 0
BBX 11 13 -1 0
BITMAP
00000009F800
0000003FC900
000000BA9B00
000004F27D00
00000CA06F00
00005F304F20
0000DB003F40
0007F3002F60
001EFFFFFF80
008F20000D90
02F800000CB0
0AE100000AD0
3F70000009F0
ENDCHAR
STARTCHAR B
ENCODING 66
SWIDTH 600 0
DWIDTH 12 0
BBX 11 13 0 0
BITMAP
000AFFFEC600
000DA0027F80
001F70000BD0
004F50000BC0
007F20002F70
00AE3347E800
00DECCDF9100
01F80002CC10
04F500004F50
07F200003F50
0AE000008F10
0DB00138F600
1FFFFEDA3000
ENDCHAR
STARTCHAR C
ENCODING 67
SWIDTH 600 0
DWIDTH 12 0
BBX 11 13 1 0
BITMAP
00004AEFD600
0009E7216F50
008E30000300
04F600000000
0BD000000000
1F7000000000
5F4000000000
6F3000000000
6F3000000000
4F5000000000
0EC000001000
05FA203AB000
003BEFD81000
ENDCHAR
STARTCHAR D
ENCODING 68
SWIDTH 600 0
DWIDTH 12 0
BBX 12 13 0 0
BITMAP
001FFFEC7000
004F4016EC10
007F10003F90
00AD00000BE0
00DA000008F1
01F7000007F2
04F4000008F0
07F200000BD0
0AE000001F80
0DB000008F20
1F800005F700
4F50139F7000
7FFFED920000
ENDCHAR
STARTCHAR E
ENCODING 69
SWIDTH 600 0
DWIDTH 12 0
BBX 11 13 1 0
BITMAP
004FFFFFFFC0
007F00000000
00AD00000000
00DA00000000
01F800000000
04F500000000
07FFFFFF9000
0AE000000000
0DB000000000
1F8000000000
4F5000000000
7F2000000000
AFFFFFFF9000
ENDCHAR
STARTCHAR F
ENCODING 70
SWIDTH 600 0
DWIDTH 12 0
BBX 12 13 1 0
BITMAP
000EFFFFFFF1
002F60000000
005F30000000
008F10000000
00BD00000000
00EA00000000
02FFFFFFC000
05F400000000
08F100000000
0BD000000000
0EA000000000
2F7000000000
5F4000000000
ENDCHAR
STARTCHAR G
ENCODING 71
SWIDTH 600 0
DWIDTH 12 0
BBX 11 13 1 0
BITMAP
00006CEEC500
001CD5118F30
01DC10000300
09E200000000
1F8000000000
6F3000000000
AE0006FFFB00
BD000000E800
BD000001F500
9F100004F200
4F700007E000
09F7115DA000
006CEEC60000
ENDCHAR
STARTCHAR H
ENCODING 72
SWIDTH 600 0
DWIDTH 12 0
BBX 12 13 0 0
BITMAP
002F700000DA
005F400001F7
008F100004F4
00BD000007F1
00EB000009D0
02F800000CA0
05FFFFFFFF70
08F100004F40
0BD000007F10
0EA00000AD00
2F700000DA00
5F300002F700
8F100005F400
ENDCHAR
STARTCHAR I
ENCODING 73
SWIDTH 600 0
DWIDTH 12 0
BBX 12 13 0 0
BITMAP
000CFFFFFFF5
000000CC0000
000000E90000
000002F60000
000005F30000
000008F00000
00000BC00000
00000E900000
00002F700000
00005F400000
00007F100000
0000AD000000
2FFFFFFFE000
ENDCHAR
STARTCHAR J
ENCODING 74
SWIDTH 600 0
DWIDTH 12 0
BBX 11 13 0 0
BITMAP
0006FFFFFFA0
000000001F70
000000004F40
000000007F10
00000000AD00
00000000DA00
00000001F700
00000004F400
00000007F100
0000000BB000
0500003F5000
4F8214DA0000
05BEFD700000
ENDCHAR
STARTCHAR K
ENCODING 75
SWIDTH 600 0
DWIDTH 12 0
BBX 13 13 0 0
BITMAP
000AE00001CC10
000DB0002DB100
001F7002DB1000
004F402DB00000
007F12DA000000
00AD3EF1000000
00DDEBF7000000
01FF90BD000000
04F8005F600000
07F1000DC00000
0AD00007F40000
0DA00001EB0000
1F7000009F2000
ENDCHAR
STARTCHAR L
ENCODING 76
SWIDTH 600 0
DWIDTH 12 0
BBX 9 13 2 0
BITMAP
008F100000
00BD000000
00EA000000
02F7000000
05F4000000
08F1000000
0BD0000000
0EA0000000
2F70000000
5F40000000
8F10000000
BD00000000
EFFFFFFF30
ENDCHAR
STARTCHAR M
ENCODING 77
SWIDTH 600 0
DWIDTH 12 0
BBX 12 13 0 0
BITMAP
003FD00005FA
006FF0000DF7
009CF2007CE4
00C9F401E8F1
00F7D609B8D0
03F4B82F3BA0
06F199AA0E70
09D07CE22F40
0CA05F905F10
0F6027109D00
3F300000CA00
6F100000E700
9C000003F400
ENDCHAR
STARTCHAR N
ENCODING 78
SWIDTH 600 0
DWIDTH 12 0
BBX 12 13 0 0
BITMAP
000ED00000E9
003FF30001F6
006EC80004F3
009B8C0007E0
00C94F200AC0
00F70E700E90
03F409C01F60
06F104F24F30
09D000E67E00
0CA000AA9C00
0F70005EB900
3F40000EF500
6F10000AF200
ENDCHAR
STARTCHAR O
ENCODING 79
SWIDTH 600 0
DWIDTH 12 0
BBX 12 13 0 0
BITMAP
00004BEEB400
0008E6117F40
007F30000BD0
02E8000006F3
08F1000004F5
0DB0000004F5
1F80000006F3
2F70000009F0
2F7000000DA0
1F8000005F40
0BD00002E900
03E9215DA000
003BEEC60000
ENDCHAR
STARTCHAR P
ENCODING 80
SWIDTH 600 0
DWIDTH 12 0
BBX 11 13 1 0
BITMAP
007FFFFD9200
00AD0014DD10
00DA00004F50
01F800002F60
04F500003F40
07F20000AE10
0AF0013AE400
0DFFFED92000
1F8000000000
4F5000000000
7F2000000000
AD0000000000
DA0000000000
ENDCHAR
STARTCHAR Q
ENCODING 81
SWIDTH 600 0
DWIDTH 12 0
BBX 12 16 0 -3
BITMAP
00004BEEB400
0008E6117F40
006F30000BD0
01E8000006F3
08F1000004F5
0CB0000004F5
1F80000006F3
2F70000009F1
2F7000000DB0
0F8000005F40
0BD00002EA00
03E9215DB100
003BFFD70000
0000AD000000
00003E910200
000003BEFC00
ENDCHAR
STARTCHAR R
ENCODING 82
SWIDTH 600 0
DWIDTH 12 0
BBX 11 13 0 0
BITMAP
000CFFFEC700
000F70017F90
003F50000AE0
006F20000AE0
009E00001E90
00CB0025DC10
00FFFFFC6000
03F404F50000
06F100DB0000
09D0008F2000
0CB0002F7000
0F80000CD000
3F500007F400
ENDCHAR
STARTCHAR S
ENCODING 83
SWIDTH 600 0
DWIDTH 12 0
BBX 11 13 0 0
BITMAP
00005CFEC600
0007F6128F70
001E90000400
002F70000000
000DD2000000
0004EE700000
00002BFD3000
0000005EE200
00000003F800
00000000EA00
19300003F700
0CE6114DC100
007CEEC71000
ENDCHAR
STARTCHAR T
ENCODING 84
SWIDTH 600 0
DWIDTH 12 0
BBX 11 13 2 0
BITMAP
EFFFFFFFFF50
0000CB000000
0000F9000000
0003F6000000
0006F3000000
0009F0000000
000CC0000000
000E90000000
002F60000000
005F30000000
008F00000000
00BC00000000
00E900000000
ENDCHAR
STARTCHAR U
ENCODING 85
SWIDTH 600 0
DWIDTH 12 0
BBX 11 13 1 0
BITMAP
02F700000DA0
05F400001F70
08F100004F40
0BD000007F10
0EA00000AD00
2F700000DA00
5F400001F700
8F100004F300
AD000007F000
AD00000CB000
7F10004F4000
1EB215E90000
03BEEC600000
ENDCHAR
STARTCHAR V
ENCODING 86
SWIDTH 600 0
DWIDTH 12 0
BBX 11 13 2 0
BITMAP
8F1000005F60
6F300000CC00
5F400005F400
3F50000DB000
2F60006F3000
0F8000DA0000
0E9006F20000
0CA00D900000
0AB07E100000
09D0E8000000
07E6E1000000
06FE70000000
04FD00000000
ENDCHAR
STARTCHAR W
ENCODING 87
SWIDTH 600 0
DWIDTH 12 0
BBX 12 13 1 0
BITMAP
2F50000000CA
3F40000001F6
4F30000006F1
5F1016200AB0
6F007F501E60
7E00DD705F20
8D05D9809C00
9C0C7890E700
AB3E17A3F300
B9A906C7D000
C9F205DB8000
DDB004EE4000
DF4003FE0000
ENDCHAR
STARTCHAR X
ENCODING 88
SWIDTH 600 0
DWIDTH 12 0
BBX 12 13 0 0
BITMAP
003F700002EA
000CD0000CC1
0006F4009E20
0001EA05F500
00008E2E8000
00002FEB0000
00002FF20000
0001CCF70000
0009E2BD0000
006F505F4000
03F8000EA000
1DC00008F200
AE200002F800
ENDCHAR
STARTCHAR Y
ENCODING 89
SWIDTH 600 0
DWIDTH 12 0
BBX 11 13 2 0
BITMAP
AE0000007F30
5F400003F600
0E80001DA000
0AD0009D1000
05F204F40000
00E61D800000
00AB8C000000
005FE2000000
002F60000000
005F30000000
008F00000000
00BC00000000
00E900000000
ENDCHAR
STARTCHAR Z
ENCODING 90
SWIDTH 600 0
DWIDTH 12 0
BBX 12 13 0 0
BITMAP
005FFFFFFFF8
000000002EC1
00000000CE20
00000009F400
0000005F8000
000003EB0000
00001DD10000
0000AF300000
0007F6000000
004F90000000
02EC00000000
0CE200000000
7FFFFFFFFC00
ENDCHAR
STARTCHAR bracketleft
ENCODING 91
SWIDTH 600 0
DWIDTH 12 0
BBX 10 17 2 -3
BITMAP
0002FFFFF5
0005D00000
0008A00000
000B700000
000E400000
002F100000
005D000000
008A000000
00B7000000
00E4000000
02F1000000
05D0000000
08A0000000
0B70000000
0E30000000
2F10000000
5FFFFF1000
ENDCHAR
STARTCHAR backslash
ENCODING 92
SWIDTH 600 0
DWIDTH 12 0
BBX 6 17 3 -3
BITMAP
1F3000
0E5000
0B8000
08B000
06D000
03F100
00F400
00D600
00A900
007C00
004E00
002F20
000E50
000B80
0009A0
0006D0
0003F1
ENDCHAR
STARTCHAR bracketright
ENCODING 93
SWIDTH 600 0
DWIDTH 12 0
BBX 10 17 0 -3
BITMAP
0005FFFFF1
00000005D0
00000008A0
0000000B70
0000000E40
0000002F10
0000005D00
0000008A00
000000B700
000000E400
000002F100
000005D000
000008A000
00000B7000
00000E4000
00002F1000
9FFFFD0000
ENDCHAR
STARTCHAR asciicircum
ENCODING 94
SWIDTH 600 0
DWIDTH 12 0
BBX 8 8 2 5
BITMAP
000DD000
004EE400
00A99A00
01E44E10
06D00D60
0C8008C0
2F3003F2
8C0000C8
ENDCHAR
STARTCHAR underscore
ENCODING 95
SWIDTH 600 0
DWIDTH 12 0
BBX 11 1 -1 -3
BITMAP
6FFFFFFFFF30
ENDCHAR
STARTCHAR grave
ENCODING 96
SWIDTH 600 0
DWIDTH 12 0
BBX 4 4 5 12
BITMAP
5B00
6F70
08F3
0096
ENDCHAR
STARTCHAR a
ENCODING 97
SWIDTH 600 0
DWIDTH 12 0
BBX 10 10 1 0
BITMAP
0018DFD65E
02DC303BDC
0CC10001F9
5F400002F6
AD000005F3
DA000007F0
EA00000AC0
CD00002E90
6F7117AF60
07DFC62F30
ENDCHAR
STARTCHAR b
ENCODING 98
SWIDTH 600 0
DWIDTH 12 0
BBX 11 14 0 0
BITMAP
0008E0000000
000BC0000000
000E80000000
002F50000000
005F27DEC400
008EA512BF20
00BC10001F80
00E700000DA0
02F400000DA0
06F200001F80
09E000007F30
0CD00001EA00
0EDA214DC100
3F27DFD70000
ENDCHAR
STARTCHAR c
ENCODING 99
SWIDTH 600 0
DWIDTH 12 0
BBX 10 10 1 0
BITMAP
0005BEFD81
00AE6115D9
09E2000010
3F70000000
7F10000000
9E00000000
9F00000000
5F50000110
0BE6115D80
007DFEC600
ENDCHAR
STARTCHAR d
ENCODING 100
SWIDTH 600 0
DWIDTH 12 0
BBX 11 14 1 0
BITMAP
000000000AD0
000000000DA0
000000001F70
000000004F40
0018DFC67F10
02DC303BDD00
0CC10001FA00
5F400002F700
AD000005F400
DA000007F100
EA00000AD000
CD00002EA000
6F7117AF6000
07DFC62F3000
ENDCHAR
STARTCHAR e
ENCODING 101
SWIDTH 600 0
DWIDTH 12 0
BBX 10 10 1 0
BITMAP
0007CFEA20
01CD412BD0
0BD10002F5
4F400000F7
9FFFFFFFF5
BC00000000
AE00000000
7F40000100
1DD4116D60
02AEFEB500
ENDCHAR
STARTCHAR f
ENCODING 102
SWIDTH 600 0
DWIDTH 12 0
BBX 11 14 2 0
BITMAP
000007CEDA30
0000AE412720
0003F5000000
0008F0000000
8EFFFFFFC000
000F80000000
003F50000000
006F20000000
009E00000000
00CC00000000
00E900000000
02F600000000
05F300000000
08F000000000
ENDCHAR
STARTCHAR g
ENCODING 103
SWIDTH 600 0
DWIDTH 12 0
BBX 11 14 0 -4
BITMAP
00018DFD65E0
002DC303CDB0
00CC10001F80
05F400002F50
0AD000005F20
0DB000008E00
0DB00000AB00
0AE10005E800
03EC66A8F500
0028A824F200
00000008E000
0000001D8000
5C4114CC1000
28DFEC710000
ENDCHAR
STARTCHAR h
ENCODING 104
SWIDTH 600 0
DWIDTH 12 0
BBX 11 14 0 0
BITMAP
0008F0000000
000BC0000000
000E90000000
002F50000000
005F23AEEA00
008E79316F60
00BE50000F90
00E700001F80
02F400004F50
06F100007F20
09D00000AE00
0CA00000DB00
0E800001F800
3F500003F500
ENDCHAR
STARTCHAR i
ENCODING 105
SWIDTH 600 0
DWIDTH 12 0
BBX 8 14 2 0
BITMAP
0001DD20
0002DC10
00000000
00000000
CFFFF500
0007F100
000AD000
000DA000
002F7000
005F4000
008F1000
00AE0000
007F4132
0009EEC5
ENDCHAR
STARTCHAR j
ENCODING 106
SWIDTH 600 0
DWIDTH 12 0
BBX 11 18 -1 -4
BITMAP
000000008E70
000000009E60
000000000000
000000000000
0004FFFFFC00
00000000F900
00000003F600
00000006F300
00000009E000
0000000CC000
0000000E9000
0000002F6000
0000005F3000
0000008E0000
000000CB0000
000003F60000
08213DB00000
2ADFD8100000
ENDCHAR
STARTCHAR k
ENCODING 107
SWIDTH 600 0
DWIDTH 12 0
BBX 11 14 1 0
BITMAP
004F40000000
007F10000000
00AD00000000
00DA00000000
01F70001AE30
04F4001CE300
07F102DD2000
0AD04ED20000
0D95FF500000
1FDF8CC00000
5FE504F50000
8F3000BD0000
BD00003F6000
E900000AD000
ENDCHAR
STARTCHAR l
ENCODING 108
SWIDTH 600 0
DWIDTH 12 0
BBX 8 14 2 0
BITMAP
1FFFFB00
0001F700
0004F400
0007F100
000AD000
000EA000
002F7000
005F3000
008F0000
00BC0000
00E90000
01F70000
00DB1150
003CFEB1
ENDCHAR
STARTCHAR m
ENCODING 109
SWIDTH 600 0
DWIDTH 12 0
BBX 12 10 0 0
BITMAP
02F2AEA19EC1
05F927FA36F5
08E106F304F4
0BB008D007F1
0E800BA00AD0
2F500E800DA0
5F302F501F70
8F005F204F40
BC008E006F10
E900BB009D00
ENDCHAR
STARTCHAR n
ENCODING 110
SWIDTH 600 0
DWIDTH 12 0
BBX 11 10 0 0
BITMAP
007D03AEEA00
00AB79316F60
00CE50000F90
01F700001F80
03F400004F50
06F100007F20
09D00000AE00
0CB00000DB00
0F800001F800
3F500003F500
ENDCHAR
STARTCHAR o
ENCODING 111
SWIDTH 600 0
DWIDTH 12 0
BBX 11 10 0 0
BITMAP
00029DFD7000
004EA214EA00
02EA00005F40
09E100001F80
0EA000000F80
1F8000002F60
0F9000008F20
0CD00003F800
03F9216EA000
003BEEB50000
ENDCHAR
STARTCHAR p
ENCODING 112
SWIDTH 600 0
DWIDTH 12 0
BBX 11 14 0 -4
BITMAP
007D07DEC400
00ADA612BF20
00DC10001F80
01F700000DA0
03F400000DA0
06F200001F80
09E000007F30
0CC00001EB00
0FE9204DD100
3F47DFD81000
6F1000000000
9E0000000000
CB0000000000
F80000000000
ENDCHAR
STARTCHAR q
ENCODING 113
SWIDTH 600 0
DWIDTH 12 0
BBX 10 14 1 -4
BITMAP
0018DFD64E
02DC303BDB
0CC10001F9
5F400002F6
AD000005F3
DA000007E0
EA00000AC0
CD00002E90
6F7117AF60
07DFC64F30
0000008F00
000000BC00
000000E900
000002F600
ENDCHAR
STARTCHAR r
ENCODING 114
SWIDTH 600 0
DWIDTH 12 0
BBX 9 10 2 0
BITMAP
03F118DFB0
06E1B51130
09C9100000
0CD1000000
0F60000000
3F30000000
6F10000000
9D00000000
CB00000000
E800000000
ENDCHAR
STARTCHAR s
ENCODING 115
SWIDTH 600 0
DWIDTH 12 0
BBX 10 10 1 0
BITMAP
003AEFD920
02E8114BE1
06F1000020
04F9100000
007FEA4000
00017DFA00
0000007F50
2200000F70
9E72018E20
06BEFDA300
ENDCHAR
STARTCHAR t
ENCODING 116
SWIDTH 600 0
DWIDTH 12 0
BBX 10 13 1 0
BITMAP
0000A90000
0000E60000
0004F30000
6EFFFFFFFB
000CB00000
000F800000
003F500000
006F200000
009E000000
00BC000000
00BC000000
008F512720
0019EEDA30
ENDCHAR
STARTCHAR u
ENCODING 117
SWIDTH 600 0
DWIDTH 12 0
BBX 10 10 1 0
BITMAP
09E00000AD
0CB00000DA
0F800001F7
3F500003F5
6F200006F2
9E000009E0
CC00000CB0
DB00008F80
AE314A4F50
2CED812F20
ENDCHAR
STARTCHAR v
ENCODING 118
SWIDTH 600 0
DWIDTH 12 0
BBX 11 10 1 0
BITMAP
2F6000003F50
0E900000CB00
0BC00005F300
07F0001D9000
04F3008E1000
01F602F60000
00D90AC00000
009C3F300000
006FB9000000
003FE1000000
ENDCHAR
STARTCHAR w
ENCODING 119
SWIDTH 600 0
DWIDTH 12 0
BBX 13 10 0 0
BITMAP
1F700273004F40
1F7009F600AC00
0F701EC701E600
0F707CB706E100
0F70D6A80C9000
0E74E1A83F3000
0E7A90A99C0000
0E8F3099E60000
0DDC009DE10000
0DF5009F900000
ENDCHAR
STARTCHAR x
ENCODING 120
SWIDTH 600 0
DWIDTH 12 0
BBX 11 10 0 0
BITMAP
005F40003E90
000DB002EB00
0005F41CC100
0000CBAD1000
00005FE20000
0000BFD10000
000AD3F70000
008E308E1000
07F5001E9000
5F600008F200
ENDCHAR
STARTCHAR y
ENCODING 121
SWIDTH 600 0
DWIDTH 12 0
BBX 13 14 -1 -4
BITMAP
002F5000004F50
000D900000CB00
0009C00006F200
0006F1001E8000
0002F4009D1000
0000D803F50000
00009B0CA00000
00005E5E200000
00001FD7000000
00000ED0000000
00006F40000000
0001E900000000
212CC100000000
9FD81000000000
ENDCHAR
STARTCHAR z
ENCODING 122
SWIDTH 600 0
DWIDTH 12 0
BBX 11 10 0 0
BITMAP
009FFFFFFF90
00000002DC10
0000001DD100
000001CD2000
00000BE20000
0000AE300000
0009F4000000
008F50000000
06F700000000
3FFFFFFFF600
ENDCHAR
STARTCHAR braceleft
ENCODING 123
SWIDTH 600 0
DWIDTH 12 0
BBX 10 17 2 -3
BITMAP
000006DFF9
00004F6100
0000A90000
0000D60000
0001F30000
0003F10000
0006D00000
015E600000
AFF7000000
029E000000
003F000000
005C000000
0098000000
00E4000000
02F2000000
02F6000000
008EFF5000
ENDCHAR
STARTCHAR bar
ENCODING 124
SWIDTH 600 0
DWIDTH 12 0
BBX 2 20 5 -5
BITMAP
BB
BB
BB
BB
BB
BB
BB
BB
BB
BB
BB
BB
BB
BB
BB
BB
BB
BB
BB
BB
ENDCHAR
STARTCHAR braceright
ENCODING 125
SWIDTH 600 0
DWIDTH 12 0
BBX 10 17 0 -3
BITMAP
0007FFD600
0000018F00
0000004E00
0000007B00
000000B700
000000E300
000002F000
000002F710
0000008FF8
000009D410
00001E3000
00003F1000
00006D0000
00008A0000
0000C70000
0018F20000
BFFC400000
ENDCHAR
STARTCHAR asciitilde
ENCODING 126
SWIDTH 600 0
DWIDTH 12 0
BBX 10 3 1 5
BITMAP
03CE8000A3
1D51BB15D1
3A0008EC30
ENDCHAR
STARTCHAR uni00A0
ENCODING 160
SWIDTH 600 0
DWIDTH 12 0
BBX 1 1 0 0
BITMAP
00
ENDCHAR
STARTCHAR exclamdown
ENCODING 161
SWIDTH 600 0
DWIDTH 12 0
BBX 5 14 3 -4
BITMAP
006E80
00EFC0
00AE40
000000
000000
00D300
01F100
05E000
08B000
0C9000
1F6000
4F4000
7F2000
AE0000
ENDCHAR
STARTCHAR cent
ENCODING 162
SWIDTH 600 0
DWIDTH 12 0
BBX 9 13 2 0
BITMAP
00000A5000
00000D1000
003AEFD810
06F8693A10
3F70860000
AD00B30000
EA00E00000
F802C00000
DB05900000
6F7964C200
06DFEB6000
001E000000
004B000000
ENDCHAR
STARTCHAR sterling
ENCODING 163
SWIDTH 600 0
DWIDTH 12 0
BBX 11 13 0 0
BITMAP
000006DFEA20
00008E512BC0
0002F6000110
0005F2000000
0006F1000000
0004F2000000
06EFFFFFD000
0002F4000000
0004F2000000
0008D0000000
002E60000000
03D800000000
5FFFFFFFF400
ENDCHAR
STARTCHAR currency
ENCODING 164
SWIDTH 600 0
DWIDTH 12 0
BBX 12 9 0 2
BITMAP
0087000001A5
006F8CED8CC2
000DD414EC00
007E20008E00
00CA00008D00
00D90001D800
00BE413CE100
1AE8DEC8F600
3B2000006B00
ENDCHAR
STARTCHAR yen
ENCODING 165
SWIDTH 600 0
DWIDTH 12 0
BBX 11 13 1 0
BITMAP
05F300000CB0
00D800008D10
008D0004E300
002F301D4000
000B70970000
0004C4900000
7FFFFDFFF600
0001F7000000
EFFFFFFFE000
0006F2000000
0009E0000000
000BC0000000
000DA0000000
ENDCHAR
STARTCHAR brokenbar
ENCODING 166
SWIDTH 600 0
DWIDTH 12 0
BBX 2 20 5 -5
BITMAP
BB
BB
BB
BB
BB
BB
BB
BB
88
00
00
88
BB
BB
BB
BB
BB
BB
BB
BB
ENDCHAR
STARTCHAR section
ENCODING 167
SWIDTH 600 0
DWIDTH 12 0
BBX 9 15 1 -1
BITMAP
00019EEA20
000AC219B0
000E800010
000CC10000
008FFD4000
07E43CF700
0B90008F60
0BB0000BB0
05F91009C0
006FE53E70
0002BFF900
00000BD000
020007E000
7E513D9000
07DFD80000
ENDCHAR
STARTCHAR dieresis
ENCODING 168
SWIDTH 600 0
DWIDTH 12 0
BBX 7 2 4 12
BITMAP
4E408D10
5E309D10
ENDCHAR
STARTCHAR copyright
ENCODING 169
SWIDTH 600 0
DWIDTH 12 0
BBX 12 13 0 0
BITMAP
00005AEFD700
001AC5104C80
00B8000001E2
06A019EE7087
0D21DA227069
3B08C0000059
680D70000067
770D500000A4
770AB12801D0
5A02BED60970
1E2000007C00
06D4014BB100
006CFEB50000
ENDCHAR
STARTCHAR ordfeminine
ENCODING 170
SWIDTH 600 0
DWIDTH 12 0
BBX 8 6 3 8
BITMAP
007DE9D2
0AC317E0
4F1007B0
6C000A70
5E316E40
0AED6C10
ENDCHAR
STARTCHAR guillemotleft
ENCODING 171
SWIDTH 600 0
DWIDTH 12 0
BBX 10 8 1 1
BITMAP
0004A00094
005E401BB0
07F501CD10
5F700CD200
7F200EB000
1DA005F400
04F300AB00
0085001B10
ENDCHAR
STARTCHAR logicalnot
ENCODING 172
SWIDTH 600 0
DWIDTH 12 0
BBX 10 5 1 2
BITMAP
4FFFFFFFF4
00000000F4
00000000F4
00000000F4
00000000F4
ENDCHAR
STARTCHAR uni00AD
ENCODING 173
SWIDTH 600 0
DWIDTH 12 0
BBX 10 1 1 6
BITMAP
4FFFFFFFF4
ENDCHAR
STARTCHAR registered
ENCODING 174
SWIDTH 600 0
DWIDTH 12 0
BBX 8 8 3 6
BITMAP
006CFD60
09B303C5
4A2FF92A
A25FE50B
B082C02A
B1B093A5
6B203A90
07DFC500
ENDCHAR
STARTCHAR macron
ENCODING 175
SWIDTH 600 0
DWIDTH 12 0
BBX 6 1 4 12
BITMAP
4FFFFC
ENDCHAR
STARTCHAR degree
ENCODING 176
SWIDTH 600 0
DWIDTH 12 0
BBX 6 5 4 9
BITMAP
04CEA0
2D31B6
770086
7A14D2
1BEC40
ENDCHAR
STARTCHAR plusminus
ENCODING 177
SWIDTH 600 0
DWIDTH 12 0
BBX 10 11 1 0
BITMAP
0000990000
0000990000
0000990000
0000990000
4FFFFFFFF4
0000990000
0000990000
0000990000
0000990000
0000000000
4FFFFFFFF4
ENDCHAR
STARTCHAR two.sups
ENCODING 178
SWIDTH 600 0
DWIDTH 12 0
BBX 7 8 3 7
BITMAP
005DEA10
01A31D70
00000A80
00001E30
0000B800
001C8000
04D60000
3FFFFD00
ENDCHAR
STARTCHAR three.sups
ENCODING 179
SWIDTH 600 0
DWIDTH 12 0
BBX 7 9 3 7
BITMAP
007DEA10
00621D70
00000A80
00016E30
001FF400
00019C00
00001F10
2D318D00
05DEB200
ENDCHAR
STARTCHAR acute
ENCODING 180
SWIDTH 600 0
DWIDTH 12 0
BBX 4 4 6 12
BITMAP
0059
06FB
7F80
B400
ENDCHAR
STARTCHAR uni00B5
ENCODING 181
SWIDTH 600 0
DWIDTH 12 0
BBX 12 14 -1 -4
BITMAP
0009E00000AD
000CB00000DA
000F800001F7
003F500003F3
006F200006F1
008E000009C0
00BC00000C90
00EB00008F60
02FE314B4F40
05F7EEA20CF0
08C000000000
0BA000000000
0E8000000000
2F6000000000
ENDCHAR
STARTCHAR paragraph
ENCODING 182
SWIDTH 600 0
DWIDTH 12 0
BBX 10 15 1 -2
BITMAP
0005BEF4BC
00BFFFF1E9
08FFFFD2F6
0EFFFF95F3
2FFFFF68F0
2FFFFF3BC0
0DFFFF0E90
02DFFC2F60
0005765F30
0000008F10
000000BC00
000000DA00
000001F700
000004F400
000007F100
ENDCHAR
STARTCHAR periodcentered
ENCODING 183
SWIDTH 600 0
DWIDTH 12 0
BBX 4 3 4 6
BITMAP
3DD1
AFF3
7E90
ENDCHAR
STARTCHAR cedilla
ENCODING 184
SWIDTH 600 0
DWIDTH 12 0
BBX 4 5 2 -5
BITMAP
01C1
09E5
01BA
13D6
DC60
ENDCHAR
STARTCHAR one.sups
ENCODING 185
SWIDTH 600 0
DWIDTH 12 0
BBX 7 8 3 7
BITMAP
007AE900
0000E600
0001F300
0004F000
0006C000
00099000
000B6000
6FFFFF80
ENDCHAR
STARTCHAR ordmasculine
ENCODING 186
SWIDTH 600 0
DWIDTH 12 0
BBX 8 6 3 8
BITMAP
006CEC30
09C318D0
2F2003F1
5E0006E0
2F415E50
06DEC500
ENDCHAR
STARTCHAR guillemotright
ENCODING 187
SWIDTH 600 0
DWIDTH 12 0
BBX 10 8 0 1
BITMAP
0094002B00
007D100D80
001EA006F3
0007F300DB
000BE103E9
009E302EA1
08D201D900
1B20067000
ENDCHAR
STARTCHAR onequarter
ENCODING 188
SWIDTH 600 0
DWIDTH 12 0
BBX 14 13 -1 0
BITMAP
008CF1000002B1
0006D000002D80
0009A00002D600
000C70002C4000
000E4000420000
002F1000000000
00000000000000
000051000B1000
0007B000970000
00AA0005A18000
1BA0003C14C000
4A0000BFFFF800
000000000B5000
ENDCHAR
STARTCHAR onehalf
ENCODING 189
SWIDTH 600 0
DWIDTH 12 0
BBX 14 13 -1 0
BITMAP
008CF1000002B1
0006D000002D80
0009A00002D600
000C70002C4000
000E4000420000
002F1000000000
00000000000000
00005103CFC200
0007B00941D600
00AA000001E200
1BA000002C5000
4A000006C30000
0000008FFFF500
ENDCHAR
STARTCHAR threequarters
ENCODING 190
SWIDTH 600 0
DWIDTH 12 0
BBX 14 13 -1 0
BITMAP
006DFA000002B1
00727D00002D80
002FD20002D600
00019A002C4000
0A31A900420000
05DEB100000000
00000000000000
000051000B1000
0007B000970000
00AA0005A18000
1BA0003C14C000
4A0000BFFFF800
000000000B5000
ENDCHAR
STARTCHAR questiondown
ENCODING 191
SWIDTH 600 0
DWIDTH 12 0
BBX 8 14 1 -4
BITMAP
00002DD1
00008FF2
00005E90
00000000
00000000
00006D00
0001D900
001CD100
03DC2000
2EA10000
AD000000
CB000020
9E303BB0
19EFD810
ENDCHAR
STARTCHAR Agrave
ENCODING 192
SWIDTH 600 0
DWIDTH 12 0
BBX 11 18 -1 0
BITMAP
0000002A0000
0000005F9000
00000006F500
000000007800
000000000000
00000009F800
0000003FC900
000000BA9B00
000004F27D00
00000CA06F00
00005F304F20
0000DB003F40
0007F3002F60
001EFFFFFF80
008F20000D90
02F800000CB0
0AE100000AD0
3F70000009F0
ENDCHAR
STARTCHAR Aacute
ENCODING 193
SWIDTH 600 0
DWIDTH 12 0
BBX 12 17 -1 0
BITMAP
0000000002B3
000000007FB2
00000003C400
000000000000
00000009F800
0000003FC900
000000BA9B00
000004F27D00
00000CA06F00
00005F304F20
0000DB003F40
0007F3002F60
001EFFFFFF80
008F20000D90
02F800000CB0
0AE100000AD0
3F70000009F0
ENDCHAR
STARTCHAR Acircumflex
ENCODING 194
SWIDTH 600 0
DWIDTH 12 0
BBX 12 17 -1 0
BITMAP
00000006FF40
0000007E58D1
000003B20086
000000000000
00000009F800
0000003FC900
000000BA9B00
000004F27D00
00000CA06F00
00005F304F20
0000DB003F40
0007F3002F60
001EFFFFFF80
008F20000D90
02F800000CB0
0AE100000AD0
3F70000009F0
ENDCHAR
STARTCHAR Atilde
ENCODING 195
SWIDTH 600 0
DWIDTH 12 0
BBX 13 17 -1 0
BITMAP
00000003100110
000002DDE51D50
000009705DE800
00000000000000
00000009F80000
0000003FC90000
000000BA9B0000
000004F27D0000
00000CA06F0000
00005F304F2000
0000DB003F4000
0007F3002F6000
001EFFFFFF8000
008F20000D9000
02F800000CB000
0AE100000AD000
3F70000009F000
ENDCHAR
STARTCHAR Adieresis
ENCODING 196
SWIDTH 600 0
DWIDTH 12 0
BBX 12 16 -1 0
BITMAP
000000AA01D6
000000B901E5
000000000000
00000009F800
0000003FC900
000000BA9B00
000004F27D00
00000CA06F00
00005F304F20
0000DB003F40
0007F3002F60
001EFFFFFF80
008F20000D90
02F800000CB0
0AE100000AD0
3F70000009F0
ENDCHAR
STARTCHAR Aring
ENCODING 197
SWIDTH 600 0
DWIDTH 12 0
BBX 11 18 -1 0
BITMAP
00000003DE50
0000000C34C0
0000000E25B0
00000007EC20
000000000000
00000009F800
0000003FC900
000000BA9B00
000004F27D00
00000CA06F00
00005F304F20
0000DB003F40
0007F3002F60
001EFFFFFF80
008F20000D90
02F800000CB0
0AE100000AD0
3F70000009F0
ENDCHAR
STARTCHAR AE
ENCODING 198
SWIDTH 600 0
DWIDTH 12 0
BBX 15 13 -2 0
BITMAP
000000009FFFFFD0
00000003FCC00000
0000000CABA00000
0000006E2E700000
000001E72F500000
00000AD05F200000
00004F508FFFE000
0000DB00BA000000
0007FFFFF7000000
002E6003F4000000
00BC0006F1000000
05F40009D0000000
1DA0000BFFFFA000
ENDCHAR
STARTCHAR Ccedilla
ENCODING 199
SWIDTH 600 0
DWIDTH 12 0
BBX 11 18 1 -5
BITMAP
00004AEFD600
0009E7216F50
008E30000300
04F600000000
0BD000000000
1F7000000000
5F4000000000
6F3000000000
6F3000000000
4F5000000000
0EC000001000
05FA203AB000
003BEFD81000
0001C2000000
0008E6000000
0001BB000000
0013C7000000
00CC70000000
ENDCHAR
STARTCHAR Egrave
ENCODING 200
SWIDTH 600 0
DWIDTH 12 0
BBX 11 18 1 0
BITMAP
000006800000
000009F40000
000000AE2000
0000000A4000
000000000000
004FFFFFFFC0
007F00000000
00AD00000000
00DA00000000
01F800000000
04F500000000
07FFFFFF9000
0AE000000000
0DB000000000
1F8000000000
4F5000000000
7F2000000000
AFFFFFFF9000
ENDCHAR
STARTCHAR Eacute
ENCODING 201
SWIDTH 600 0
DWIDTH 12 0
BBX 11 17 1 0
BITMAP
000000005B00
0000001AF810
0000007A2000
000000000000
004FFFFFFFC0
007F00000000
00AD00000000
00DA00000000
01F800000000
04F500000000
07FFFFFF9000
0AE000000000
0DB000000000
1F8000000000
4F5000000000
7F2000000000
AFFFFFFF9000
ENDCHAR
STARTCHAR Ecircumflex
ENCODING 202
SWIDTH 600 0
DWIDTH 12 0
BBX 11 17 1 0
BITMAP
000000AFD100
00001BC3CA00
000078001B20
000000000000
004FFFFFFFC0
007F00000000
00AD00000000
00DA00000000
01F800000000
04F500000000
07FFFFFF9000
0AE000000000
0DB000000000
1F8000000000
4F5000000000
7F2000000000
AFFFFFFF9000
ENDCHAR
STARTCHAR Edieresis
ENCODING 203
SWIDTH 600 0
DWIDTH 12 0
BBX 11 16 1 0
BITMAP
00001D604E20
00002E505D10
000000000000
004FFFFFFFC0
007F00000000
00AD00000000
00DA00000000
01F800000000
04F500000000
07FFFFFF9000
0AE000000000
0DB000000000
1F8000000000
4F5000000000
7F2000000000
AFFFFFFF9000
ENDCHAR
STARTCHAR Igrave
ENCODING 204
SWIDTH 600 0
DWIDTH 12 0
BBX 12 18 0 0
BITMAP
000002A00000
000005F90000
0000006F5000
000000078000
000000000000
000CFFFFFFF5
000000CC0000
000000E90000
000002F60000
000005F30000
000008F00000
00000BC00000
00000E900000
00002F700000
00005F400000
00007F100000
0000AD000000
2FFFFFFFE000
ENDCHAR
STARTCHAR Iacute
ENCODING 205
SWIDTH 600 0
DWIDTH 12 0
BBX 12 17 0 0
BITMAP
000000002B30
00000007FB20
0000003C4000
000000000000
000CFFFFFFF5
000000CC0000
000000E90000
000002F60000
000005F30000
000008F00000
00000BC00000
00000E900000
00002F700000
00005F400000
00007F100000
0000AD000000
2FFFFFFFE000
ENDCHAR
STARTCHAR Icircumflex
ENCODING 206
SWIDTH 600 0
DWIDTH 12 0
BBX 12 17 0 0
BITMAP
0000006FF400
000007E58D10
00003B200860
000000000000
000CFFFFFFF5
000000CC0000
000000E90000
000002F60000
000005F30000
000008F00000
00000BC00000
00000E900000
00002F700000
00005F400000
00007F100000
0000AD000000
2FFFFFFFE000
ENDCHAR
STARTCHAR Idieresis
ENCODING 207
SWIDTH 600 0
DWIDTH 12 0
BBX 12 16 0 0
BITMAP
00000AA01D60
00000B901E50
000000000000
000CFFFFFFF5
000000CC0000
000000E90000
000002F60000
000005F30000
000008F00000
00000BC00000
00000E900000
00002F700000
00005F400000
00007F100000
0000AD000000
2FFFFFFFE000
ENDCHAR
STARTCHAR Eth
ENCODING 208
SWIDTH 600 0
DWIDTH 12 0
BBX 12 13 0 0
BITMAP
000BFFED9200
000E9014CE30
002F60001DD0
004F300006F4
007F100004F6
00AD000003F6
5EFFFF8004F5
01F7000007F2
05F400000BD0
08F100004F60
0BD00002DB00
0EA0027EA100
2FFFFDA40000
ENDCHAR
STARTCHAR Ntilde
ENCODING 209
SWIDTH 600 0
DWIDTH 12 0
BBX 12 17 0 0
BITMAP
000000310011
00002DDE51D5
00009705DE80
000000000000
000ED00000E9
003FF30001F6
006EC80004F3
009B8C0007E0
00C94F200AC0
00F70E700E90
03F409C01F60
06F104F24F30
09D000E67E00
0CA000AA9C00
0F70005EB900
3F40000EF500
6F10000AF200
ENDCHAR
STARTCHAR Ograve
ENCODING 210
SWIDTH 600 0
DWIDTH 12 0
BBX 12 18 0 0
BITMAP
000002A00000
000005F90000
0000006F5000
000000078000
000000000000
00004BEEB400
0008E6117F40
007F30000BD0
02E8000006F3
08F1000004F5
0DB0000004F5
1F80000006F3
2F70000009F0
2F7000000DA0
1F8000005F40
0BD00002E900
03E9215DA000
003BEEC60000
ENDCHAR
STARTCHAR Oacute
ENCODING 211
SWIDTH 600 0
DWIDTH 12 0
BBX 12 17 0 0
BITMAP
000000002B30
00000007FB20
0000003C4000
000000000000
00004BEEB400
0008E6117F40
007F30000BD0
02E8000006F3
08F1000004F5
0DB0000004F5
1F80000006F3
2F70000009F0
2F7000000DA0
1F8000005F40
0BD00002E900
03E9215DA000
003BEEC60000
ENDCHAR
STARTCHAR Ocircumflex
ENCODING 212
SWIDTH 600 0
DWIDTH 12 0
BBX 12 17 0 0
BITMAP
0000006FF400
000007E58D10
00003B200860
000000000000
00004BEEB400
0008E6117F40
007F30000BD0
02E8000006F3
08F1000004F5
0DB0000004F5
1F80000006F3
2F70000009F0
2F7000000DA0
1F8000005F40
0BD00002E900
03E9215DA000
003BEEC60000
ENDCHAR
STARTCHAR Otilde
ENCODING 213
SWIDTH 600 0
DWIDTH 12 0
BBX 12 17 0 0
BITMAP
000000310011
00002DDE51D5
00009705DE80
000000000000
00004BEEB400
0008E6117F40
007F30000BD0
02E8000006F3
08F1000004F5
0DB0000004F5
1F80000006F3
2F70000009F0
2F7000000DA0
1F8000005F40
0BD00002E900
03E9215DA000
003BEEC60000
ENDCHAR
STARTCHAR Odieresis
ENCODING 214
SWIDTH 600 0
DWIDTH 12 0
BBX 12 16 0 0
BITMAP
00000AA01D60
00000B901E50
000000000000
00004BEEB400
0008E6117F40
007F30000BD0
02E8000006F3
08F1000004F5
0DB0000004F5
1F80000006F3
2F70000009F0
2F7000000DA0
1F8000005F40
0BD00002E900
03E9215DA000
003BEEC60000
ENDCHAR
STARTCHAR multiply
ENCODING 215
SWIDTH 600 0
DWIDTH 12 0
BBX 8 8 2 3
BITMAP
97000068
4F6006F5
04F65F50
004FF500
005FF500
05F55F50
5F6006F5
96000068
ENDCHAR
STARTCHAR Oslash
ENCODING 216
SWIDTH 600 0
DWIDTH 12 0
BBX 14 15 -1 -1
BITMAP
00000000000040
000004BEEC45F4
00008E6119FF70
0007F30003FE00
002E70002EDF30
008F1001DB4F40
00DB001CC14F50
01F700BD105F30
02F60AE2008F00
02F68E3000DA00
01FDF40005F400
00BF50001D9000
04FFB215DA0000
1E82BEEC600000
04000000000000
ENDCHAR
STARTCHAR Ugrave
ENCODING 217
SWIDTH 600 0
DWIDTH 12 0
BBX 11 18 1 0
BITMAP
00002A000000
00005F900000
000006F50000
000000780000
000000000000
02F700000DA0
05F400001F70
08F100004F40
0BD000007F10
0EA00000AD00
2F700000DA00
5F400001F700
8F100004F300
AD000007F000
AD00000CB000
7F10004F4000
1EB215E90000
03BEEC600000
ENDCHAR
STARTCHAR Uacute
ENCODING 218
SWIDTH 600 0
DWIDTH 12 0
BBX 11 17 1 0
BITMAP
00000002B300
0000007FB200
000003C40000
000000000000
02F700000DA0
05F400001F70
08F100004F40
0BD000007F10
0EA00000AD00
2F700000DA00
5F400001F700
8F100004F300
AD000007F000
AD00000CB000
7F10004F4000
1EB215E90000
03BEEC600000
ENDCHAR
STARTCHAR Ucircumflex
ENCODING 219
SWIDTH 600 0
DWIDTH 12 0
BBX 11 17 1 0
BITMAP
000006FF4000
00007E58D100
0003B2008600
000000000000
02F700000DA0
05F400001F70
08F100004F40
0BD000007F10
0EA00000AD00
2F700000DA00
5F400001F700
8F100004F300
AD000007F000
AD00000CB000
7F10004F4000
1EB215E90000
03BEEC600000
ENDCHAR
STARTCHAR Udieresis
ENCODING 220
SWIDTH 600 0
DWIDTH 12 0
BBX 11 16 1 0
BITMAP
0000AA01D600
0000B901E500
000000000000
02F700000DA0
05F400001F70
08F100004F40
0BD000007F10
0EA00000AD00
2F700000DA00
5F400001F700
8F100004F300
AD000007F000
AD00000CB000
7F10004F4000
1EB215E90000
03BEEC600000
ENDCHAR
STARTCHAR Yacute
ENCODING 221
SWIDTH 600 0
DWIDTH 12 0
BBX 11 17 2 0
BITMAP
0000004B1000
000019F91000
00006A200000
000000000000
AE0000007F30
5F400003F600
0E80001DA000
0AD0009D1000
05F204F40000
00E61D800000
00AB8C000000
005FE2000000
002F60000000
005F30000000
008F00000000
00BC00000000
00E900000000
ENDCHAR
STARTCHAR Thorn
ENCODING 222
SWIDTH 600 0
DWIDTH 12 0
BBX 11 13 0 0
BITMAP
0009E0000000
000CB0000000
000FFFFEC700
003F40027F80
006F10000AE0
009E000008F0
00CB00000AD0
00F800002E80
03F60015DB10
06FFFFEB6000
09E000000000
0CB000000000
1F8000000000
ENDCHAR
STARTCHAR germandbls
ENCODING 223
SWIDTH 600 0
DWIDTH 12 0
BBX 11 14 0 0
BITMAP
00002AEEB300
0002EA21AE00
000BC0005F30
002F50008E10
006F1005F600
009D004F5000
00CA00DA0000
00F700DC0000
03F4005FC200
06F10003DE10
0AD000002F80
0DA000000D90
1F7067218F30
4F404BEEB300
ENDCHAR
STARTCHAR agrave
ENCODING 224
SWIDTH 600 0
DWIDTH 12 0
BBX 10 16 1 0
BITMAP
00002B2000
00002EB000
000004F700
0000005A00
0000000000
0000000000
0018DFD65E
02DC303BDC
0CC10001F9
5F400002F6
AD000005F3
DA000007F0
EA00000AC0
CD00002E90
6F7117AF60
07DFC62F30
ENDCHAR
STARTCHAR aacute
ENCODING 225
SWIDTH 600 0
DWIDTH 12 0
BBX 10 16 1 0
BITMAP
00000002B1
0000003ED2
000004EB10
0000088000
0000000000
0000000000
0018DFD65E
02DC303BDC
0CC10001F9
5F400002F6
AD000005F3
DA000007F0
EA00000AC0
CD00002E90
6F7117AF60
07DFC62F30
ENDCHAR
STARTCHAR acircumflex
ENCODING 226
SWIDTH 600 0
DWIDTH 12 0
BBX 10 15 1 0
BITMAP
000007FE20
00009D3AC0
00069100A4
0000000000
0000000000
0018DFD65E
02DC303BDC
0CC10001F9
5F400002F6
AD000005F3
DA000007F0
EA00000AC0
CD00002E90
6F7117AF60
07DFC62F30
ENDCHAR
STARTCHAR atilde
ENCODING 227
SWIDTH 600 0
DWIDTH 12 0
BBX 11 15 1 0
BITMAP
00006A400720
0005E9E43E10
000A603DD500
000000000000
000000000000
0018DFD65E00
02DC303BDC00
0CC10001F900
5F400002F600
AD000005F300
DA000007F000
EA00000AC000
CD00002E9000
6F7117AF6000
07DFC62F3000
ENDCHAR
STARTCHAR adieresis
ENCODING 228
SWIDTH 600 0
DWIDTH 12 0
BBX 10 14 1 0
BITMAP
0001D804E5
0001E705E4
0000000000
0000000000
0018DFD65E
02DC303BDC
0CC10001F9
5F400002F6
AD000005F3
DA000007F0
EA00000AC0
CD00002E90
6F7117AF60
07DFC62F30
ENDCHAR
STARTCHAR aring
ENCODING 229
SWIDTH 600 0
DWIDTH 12 0
BBX 10 15 1 0
BITMAP
000008ED40
00004C16B0
00006B1890
00001CEB10
0000000000
0018DFD65E
02DC303BDC
0CC10001F9
5F400002F6
AD000005F3
DA000007F0
EA00000AC0
CD00002E90
6F7117AF60
07DFC62F30
ENDCHAR
STARTCHAR ae
ENCODING 230
SWIDTH 600 0
DWIDTH 12 0
BBX 13 10 -1 0
BITMAP
005AEEA03BEC20
008612D9D51AA0
0000009F5005E0
000001AC0005E0
0028DEFD999CC0
06E930F8666630
2F6001F3000000
6F1003F5000000
5F416CBC215500
0AED811AEEB400
ENDCHAR
STARTCHAR ccedilla
ENCODING 231
SWIDTH 600 0
DWIDTH 12 0
BBX 10 15 1 -5
BITMAP
0005BEFD81
00AE6115D9
09E2000010
3F70000000
7F10000000
9E00000000
9F00000000
5F50000110
0BE6115D80
007DFEC600
0004A00000
001DD20000
0003E60000
0016E20000
03EB300000
ENDCHAR
STARTCHAR egrave
ENCODING 232
SWIDTH 600 0
DWIDTH 12 0
BBX 10 16 1 0
BITMAP
00003B1000
00004FA000
000005F500
0000007800
0000000000
0000000000
0007CFEA20
01CD412BD0
0BD10002F5
4F400000F7
9FFFFFFFF5
BC00000000
AE00000000
7F40000100
1DD4116D60
02AEFEB500
ENDCHAR
STARTCHAR eacute
ENCODING 233
SWIDTH 600 0
DWIDTH 12 0
BBX 10 16 1 0
BITMAP
00000003A0
0000004EC1
000005F910
0000096000
0000000000
0000000000
0007CFEA20
01CD412BD0
0BD10002F5
4F400000F7
9FFFFFFFF5
BC00000000
AE00000000
7F40000100
1DD4116D60
02AEFEB500
ENDCHAR
STARTCHAR ecircumflex
ENCODING 234
SWIDTH 600 0
DWIDTH 12 0
BBX 10 15 1 0
BITMAP
000009FD10
0001BC3CA0
00088001B2
0000000000
0000000000
0007CFEA20
01CD412BD0
0BD10002F5
4F400000F7
9FFFFFFFF5
BC00000000
AE00000000
7F40000100
1DD4116D60
02AEFEB500
ENDCHAR
STARTCHAR edieresis
ENCODING 235
SWIDTH 600 0
DWIDTH 12 0
BBX 10 14 1 0
BITMAP
0002E606E3
0003E507E2
0000000000
0000000000
0007CFEA20
01CD412BD0
0BD10002F5
4F400000F7
9FFFFFFFF5
BC00000000
AE00000000
7F40000100
1DD4116D60
02AEFEB500
ENDCHAR
STARTCHAR igrave
ENCODING 236
SWIDTH 600 0
DWIDTH 12 0
BBX 8 16 2 0
BITMAP
00096000
000BE200
0001CC00
00002C20
00000000
00000000
CFFFF500
0007F100
000AD000
000DA000
002F7000
005F4000
008F1000
00AE0000
007F4132
0009EEC5
ENDCHAR
STARTCHAR iacute
ENCODING 237
SWIDTH 600 0
DWIDTH 12 0
BBX 8 16 2 0
BITMAP
000000A4
00001BF6
0001CE40
0003B100
00000000
00000000
CFFFF500
0007F100
000AD000
000DA000
002F7000
005F4000
008F1000
00AE0000
007F4132
0009EEC5
ENDCHAR
STARTCHAR icircumflex
ENCODING 238
SWIDTH 600 0
DWIDTH 12 0
BBX 8 15 2 0
BITMAP
0003EF70
005E65E3
02C30069
00000000
00000000
CFFFF500
0007F100
000AD000
000DA000
002F7000
005F4000
008F1000
00AE0000
007F4132
0009EEC5
ENDCHAR
STARTCHAR idieresis
ENCODING 239
SWIDTH 600 0
DWIDTH 12 0
BBX 8 14 2 0
BITMAP
009D00C9
00AC01D8
00000000
00000000
CFFFF500
0007F100
000AD000
000DA000
002F7000
005F4000
008F1000
00AE0000
007F4132
0009EEC5
ENDCHAR
STARTCHAR eth
ENCODING 240
SWIDTH 600 0
DWIDTH 12 0
BBX 12 14 0 0
BITMAP
000009910044
000005DD7DD5
0000029FF700
00007E93DB00
000021005F30
0005BEEB3E80
00AF7104BDB0
07F300001DB0
0E9000000DA0
2F5000001F80
3F5000007F30
1E900002EA00
06F7115DC100
005CEEC60000
ENDCHAR
STARTCHAR ntilde
ENCODING 241
SWIDTH 600 0
DWIDTH 12 0
BBX 12 15 0 0
BITMAP
000006A40082
00006D9E44E1
0000A504DD40
000000000000
000000000000
007D03AEEA00
00AB79316F60
00CE50000F90
01F700001F80
03F400004F50
06F100007F20
09D00000AE00
0CB00000DB00
0F800001F800
3F500003F500
ENDCHAR
STARTCHAR ograve
ENCODING 242
SWIDTH 600 0
DWIDTH 12 0
BBX 11 16 0 0
BITMAP
000005B00000
000006F70000
0000008F3000
000000096000
000000000000
000000000000
00029DFD7000
004EA214EA00
02EA00005F40
09E100001F80
0EA000000F80
1F8000002F60
0F9000008F20
0CD00003F800
03F9216EA000
003BEEB50000
ENDCHAR
STARTCHAR oacute
ENCODING 243
SWIDTH 600 0
DWIDTH 12 0
BBX 11 16 0 0
BITMAP
000000005900
00000006FB00
0000007F8000
000000B40000
000000000000
000000000000
00029DFD7000
004EA214EA00
02EA00005F40
09E100001F80
0EA000000F80
1F8000002F60
0F9000008F20
0CD00003F800
03F9216EA000
003BEEB50000
ENDCHAR
STARTCHAR ocircumflex
ENCODING 244
SWIDTH 600 0
DWIDTH 12 0
BBX 11 15 0 0
BITMAP
000001BFC000
00002CA3D800
0000A6002C10
000000000000
000000000000
00029DFD7000
004EA214EA00
02EA00005F40
09E100001F80
0EA000000F80
1F8000002F60
0F9000008F20
0CD00003F800
03F9216EA000
003BEEB50000
ENDCHAR
STARTCHAR otilde
ENCODING 245
SWIDTH 600 0
DWIDTH 12 0
BBX 11 15 0 0
BITMAP
000018920180
0000ABAD28B0
0001D207EC20
000000000000
000000000000
00029DFD7000
004EA214EA00
02EA00005F40
09E100001F80
0EA000000F80
1F8000002F60
0F9000008F20
0CD00003F800
03F9216EA000
003BEEB50000
ENDCHAR
STARTCHAR odieresis
ENCODING 246
SWIDTH 600 0
DWIDTH 12 0
BBX 11 14 0 0
BITMAP
00004E408D10
00005E309D10
000000000000
000000000000
00029DFD7000
004EA214EA00
02EA00005F40
09E100001F80
0EA000000F80
1F8000002F60
0F9000008F20
0CD00003F800
03F9216EA000
003BEEB50000
ENDCHAR
STARTCHAR divide
ENCODING 247
SWIDTH 600 0
DWIDTH 12 0
BBX 10 9 1 2
BITMAP
0000CC0000
0000CC0000
0000000000
0000000000
4FFFFFFFF4
0000000000
0000000000
0000CC0000
0000CC0000
ENDCHAR
STARTCHAR oslash
ENCODING 248
SWIDTH 600 0
DWIDTH 12 0
BBX 12 12 0 -1
BITMAP
000000000020
00018DFD85F4
004E9215EF70
02E90007FF40
09E1008F5F70
0E9009E40E80
1F70AE301F60
0F9BD2007F20
0CFD2002E800
2DFA215DA000
BB4BEEB50000
200000000000
ENDCHAR
STARTCHAR ugrave
ENCODING 249
SWIDTH 600 0
DWIDTH 12 0
BBX 10 16 1 0
BITMAP
00005B0000
00006F7000
000008F300
000000A600
0000000000
0000000000
09E00000AD
0CB00000DA
0F800001F7
3F500003F5
6F200006F2
9E000009E0
CC00000CB0
DB00008F80
AE314A4F50
2CED812F20
ENDCHAR
STARTCHAR uacute
ENCODING 250
SWIDTH 600 0
DWIDTH 12 0
BBX 10 16 1 0
BITMAP
0000000590
0000006FB0
000008F700
00000B4000
0000000000
0000000000
09E00000AD
0CB00000DA
0F800001F7
3F500003F5
6F200006F2
9E000009E0
CC00000CB0
DB00008F80
AE314A4F50
2CED812F20
ENDCHAR
STARTCHAR ucircumflex
ENCODING 251
SWIDTH 600 0
DWIDTH 12 0
BBX 10 15 1 0
BITMAP
00001BFC00
0002DA3D80
000A6002C1
0000000000
0000000000
09E00000AD
0CB00000DA
0F800001F7
3F500003F5
6F200006F2
9E000009E0
CC00000CB0
DB00008F80
AE314A4F50
2CED812F20
ENDCHAR
STARTCHAR udieresis
ENCODING 252
SWIDTH 600 0
DWIDTH 12 0
BBX 10 14 1 0
BITMAP
0004E408D1
0005E309C1
0000000000
0000000000
09E00000AD
0CB00000DA
0F800001F7
3F500003F5
6F200006F2
9E000009E0
CC00000CB0
DB00008F80
AE314A4F50
2CED812F20
ENDCHAR
STARTCHAR yacute
ENCODING 253
SWIDTH 600 0
DWIDTH 12 0
BBX 13 20 -1 -4
BITMAP
00000000077000
000000008F9000
0000000AE60000
0000001B300000
00000000000000
00000000000000
002F5000004F50
000D900000CB00
0009C00006F200
0006F1001E8000
0002F4009D1000
0000D803F50000
00009B0CA00000
00005E5E200000
00001FD7000000
00000ED0000000
00006F40000000
0001E900000000
212CC100000000
9FD81000000000
ENDCHAR
STARTCHAR thorn
ENCODING 254
SWIDTH 600 0
DWIDTH 12 0
BBX 11 18 0 -4
BITMAP
0008E0000000
000BC0000000
000E80000000
002F50000000
005F27DEC400
008EA512BF20
00BC10001F80
00E700000DA0
02F400000DA0
06F200001F80
09E000007F30
0CC00001EB00
0EE9204DD100
3F47DFD81000
6F1000000000
9E0000000000
CB0000000000
F80000000000
ENDCHAR
STARTCHAR ydieresis
ENCODING 255
SWIDTH 600 0
DWIDTH 12 0
BBX 13 18 -1 -4
BITMAP
000006E20AC000
000007D20BB000
00000000000000
00000000000000
002F5000004F50
000D900000CB00
0009C00006F200
0006F1001E8000
0002F4009D1000
0000D803F50000
00009B0CA00000
00005E5E200000
00001FD7000000
00000ED0000000
00006F40000000
0001E900000000
212CC100000000
9FD81000000000
ENDCHAR
STARTCHAR Amacron
ENCODING 256
SWIDTH 600 0
DWIDTH 12 0
BBX 12 16 -1 0
BITMAP
000000CFFFF5
000000000000
000000000000
00000009F800
0000003FC900
000000BA9B00
000004F27D00
00000CA06F00
00005F304F20
0000DB003F40
0007F3002F60
001EFFFFFF80
008F20000D90
02F800000CB0
0AE100000AD0
3F70000009F0
ENDCHAR
STARTCHAR amacron
ENCODING 257
SWIDTH 600 0
DWIDTH 12 0
BBX 10 13 1 0
BITMAP
0000FFFFF2
0000000000
0000000000
0018DFD65E
02DC303BDC
0CC10001F9
5F400002F6
AD000005F3
DA000007F0
EA00000AC0
CD00002E90
6F7117AF60
07DFC62F30
ENDCHAR
STARTCHAR Abreve
ENCODING 258
SWIDTH 600 0
DWIDTH 12 0
BBX 12 17 -1 0
BITMAP
000000C3003B
000000B913D5
0000002CEC50
000000000000
00000009F800
0000003FC900
000000BA9B00
000004F27D00
00000CA06F00
00005F304F20
0000DB003F40
0007F3002F60
001EFFFFFF80
008F20000D90
02F800000CB0
0AE100000AD0
3F70000009F0
ENDCHAR
STARTCHAR abreve
ENCODING 259
SWIDTH 600 0
DWIDTH 12 0
BBX 10 15 1 0
BITMAP
0000100001
0003E0004D
0001E714D5
00004DEC50
0000000000
0018DFD65E
02DC303BDC
0CC10001F9
5F400002F6
AD000005F3
DA000007F0
EA00000AC0
CD00002E90
6F7117AF60
07DFC62F30
ENDCHAR
STARTCHAR Aogonek
ENCODING 260
SWIDTH 600 0
DWIDTH 12 0
BBX 12 17 -1 -4
BITMAP
00000009F800
0000003FC900
000000BA9B00
000004F37D00
00000CA06F00
00005F304F20
0000DB003F40
0007F3002F60
001EFFFFFF80
008F20000D90
02F800000CB0
0AE100000AD0
3F70000009F0
000000002A40
00000002D200
00000006E220
00000002DFC1
ENDCHAR
STARTCHAR aogonek
ENCODING 261
SWIDTH 600 0
DWIDTH 12 0
BBX 10 14 1 -4
BITMAP
0018DFD65E
02DC303BDC
0CC10001F9
5F400002F6
AD000005F3
DA000007F0
EA00000AC0
CD00002E90
6F7117AF60
07DFC62F30
000003A600
00002D1000
00007C1200
00003DEB00
ENDCHAR
STARTCHAR Cacute
ENCODING 262
SWIDTH 600 0
DWIDTH 12 0
BBX 11 17 1 0
BITMAP
000000005B00
0000001AF810
0000007A2000
000000000000
00004AEFD600
0009E7216F50
008E30000300
04F600000000
0BD000000000
1F7000000000
5F4000000000
6F3000000000
6F3000000000
4F5000000000
0EC000001000
05FA203AB000
003BEFD81000
ENDCHAR
STARTCHAR cacute
ENCODING 263
SWIDTH 600 0
DWIDTH 12 0
BBX 10 16 1 0
BITMAP
00000001B2
0000001CE4
000002DD20
000005A100
0000000000
0000000000
0005BEFD81
00AE6115D9
09E2000010
3F70000000
7F10000000
9E00000000
9F00000000
5F50000110
0BE6115D80
007DFEC600
ENDCHAR
STARTCHAR Ccircumflex
ENCODING 264
SWIDTH 600 0
DWIDTH 12 0
BBX 11 17 1 0
BITMAP
000000AFD100
00001BC3CA00
000079001B20
000000000000
00004AEFD600
0009E7216F50
008E30000300
04F600000000
0BD000000000
1F7000000000
5F4000000000
6F3000000000
6F3000000000
4F5000000000
0EC000001000
05FA203AB000
003BEFD81000
ENDCHAR
STARTCHAR ccircumflex
ENCODING 265
SWIDTH 600 0
DWIDTH 12 0
BBX 10 15 1 0
BITMAP
000005FF40
00007E57E2
0003B20086
0000000000
0000000000
0005BEFD81
00AE6115D9
09E2000010
3F70000000
7F10000000
9E00000000
9F00000000
5F50000110
0BE6115D80
007DFEC600
ENDCHAR
STARTCHAR Cdotaccent
ENCODING 266
SWIDTH 600 0
DWIDTH 12 0
BBX 11 16 1 0
BITMAP
0000004E6000
0000005E5000
000000000000
00004AEFD600
0009E7216F50
008E30000300
04F600000000
0BD000000000
1F7000000000
5F4000000000
6F3000000000
6F3000000000
4F5000000000
0EC000001000
05FA203AB000
003BEFD81000
ENDCHAR
STARTCHAR cdotaccent
ENCODING 267
SWIDTH 600 0
DWIDTH 12 0
BBX 10 14 1 0
BITMAP
000003DD10
000004EB00
0000000000
0000000000
0005BEFD81
00AE6115D9
09E2000010
3F70000000
7F10000000
9E00000000
9F00000000
5F50000110
0BE6115D80
007DFEC600
ENDCHAR
STARTCHAR Ccaron
ENCODING 268
SWIDTH 600 0
DWIDTH 12 0
BBX 11 17 1 0
BITMAP
00001C200780
000008D3BC10
000000CFB100
000000000000
00004AEFD600
0009E7216F50
008E30000300
04F600000000
0BD000000000
1F7000000000
5F4000000000
6F3000000000
6F3000000000
4F5000000000
0EC000001000
05FA203AB000
003BEFD81000
ENDCHAR
STARTCHAR ccaron
ENCODING 269
SWIDTH 600 0
DWIDTH 12 0
BBX 11 15 1 0
BITMAP
0000A4003C10
00004E48E400
000009FD2000
000000000000
000000000000
0005BEFD8100
00AE6115D900
09E200001000
3F7000000000
7F1000000000
9E0000000000
9F0000000000
5F5000011000
0BE6115D8000
007DFEC60000
ENDCHAR
STARTCHAR Dcaron
ENCODING 270
SWIDTH 600 0
DWIDTH 12 0
BBX 12 17 0 0
BITMAP
00000B3006A0
000006E4AD20
000000AFD200
000000000000
001FFFEC7000
004F4016EC10
007F10003F90
00AD00000BE0
00DA000008F1
01F7000007F2
04F4000008F0
07F200000BD0
0AE000001F80
0DB000008F20
1F800005F700
4F50139F7000
7FFFED920000
ENDCHAR
STARTCHAR dcaron
ENCODING 271
SWIDTH 600 0
DWIDTH 12 0
BBX 15 16 0 0
BITMAP
0000000000000F60
0000000000003F30
0000000004F46D00
0000000008F19900
000000000BD0C400
000000000E900000
0003AEEA3F600000
004F9216EF300000
02E90000AF000000
09E10000CC000000
0EA00000E9000000
1F700002F6000000
2F700005F3000000
0F90000AF0000000
0AE513ADC0000000
01AEE92B90000000
ENDCHAR
STARTCHAR Dcroat
ENCODING 272
SWIDTH 600 0
DWIDTH 12 0
BBX 12 13 0 0
BITMAP
000BFFED9200
000E9014CE30
002F60001DD0
004F300006F4
007F100004F6
00AD000003F6
5EFFFF8004F5
01F7000007F2
05F400000BD0
08F100004F60
0BD00002DB00
0EA0027EA100
2FFFFDA40000
ENDCHAR
STARTCHAR dcroat
ENCODING 273
SWIDTH 600 0
DWIDTH 12 0
BBX 12 14 1 0
BITMAP
000000000BC0
000002333EA0
000009FFFFFC
000000005F30
000000007F00
003AEFC5AC00
05FA203CE900
2F900003F600
AE100005F300
E9000008E000
F800000BC000
EA00002E8000
8F6127BF5000
08DFC63F2000
ENDCHAR
STARTCHAR Emacron
ENCODING 274
SWIDTH 600 0
DWIDTH 12 0
BBX 11 16 1 0
BITMAP
00001FFFFF10
000000000000
000000000000
004FFFFFFFC0
007F00000000
00AD00000000
00DA00000000
01F800000000
04F500000000
07FFFFFF9000
0AE000000000
0DB000000000
1F8000000000
4F5000000000
7F2000000000
AFFFFFFF9000
ENDCHAR
STARTCHAR emacron
ENCODING 275
SWIDTH 600 0
DWIDTH 12 0
BBX 10 13 1 0
BITMAP
0002FFFFE0
0000000000
0000000000
0007CFEA20
01CD412BD0
0BD10002F5
4F400000F7
9FFFFFFFF5
BC00000000
AE00000000
7F40000100
1DD4116D60
02AEFEB500
ENDCHAR
STARTCHAR Ebreve
ENCODING 276
SWIDTH 600 0
DWIDTH 12 0
BBX 11 17 1 0
BITMAP
00003C000870
00001E515D10
000005DEB200
000000000000
004FFFFFFFC0
007F00000000
00AD00000000
00DA00000000
01F800000000
04F500000000
07FFFFFF9000
0AE000000000
0DB000000000
1F8000000000
4F5000000000
7F2000000000
AFFFFFFF9000
ENDCHAR
STARTCHAR ebreve
ENCODING 277
SWIDTH 600 0
DWIDTH 12 0
BBX 10 15 1 0
BITMAP
0000100001
0005C0006B
0002F515E3
00006EEB30
0000000000
0007CFEA20
01CD412BD0
0BD10002F5
4F400000F7
9FFFFFFFF5
BC00000000
AE00000000
7F40000100
1DD4116D60
02AEFEB500
ENDCHAR
STARTCHAR Edotaccent
ENCODING 278
SWIDTH 600 0
DWIDTH 12 0
BBX 11 16 1 0
BITMAP
0000004E6000
0000006E5000
000000000000
004FFFFFFFC0
007F00000000
00AD00000000
00DA00000000
01F800000000
04F500000000
07FFFFFF9000
0AE000000000
0DB000000000
1F8000000000
4F5000000000
7F2000000000
AFFFFFFF9000
ENDCHAR
STARTCHAR edotaccent
ENCODING 279
SWIDTH 600 0
DWIDTH 12 0
BBX 10 14 1 0
BITMAP
000007E800
000008E700
0000000000
0000000000
0007CFEA20
01CD412BD0
0BD10002F5
4F400000F7
9FFFFFFFF5
BC00000000
AE00000000
7F40000100
1DD4116D60
02AEFEB500
ENDCHAR
STARTCHAR Eogonek
ENCODING 280
SWIDTH 600 0
DWIDTH 12 0
BBX 11 17 1 -4
BITMAP
004FFFFFFFC0
007F00000000
00AD00000000
00DA00000000
01F800000000
04F500000000
07FFFFFF9000
0AE000000000
0DB000000000
1F8000000000
4F5000000000
7F2000000000
AFFFFFFF9000
000003A40000
00002D100000
00007D120000
00003DEB0000
ENDCHAR
STARTCHAR eogonek
ENCODING 281
SWIDTH 600 0
DWIDTH 12 0
BBX 10 14 1 -4
BITMAP
0007CFEA20
01CD412BD0
0BD10002F5
4F400000F7
9FFFFFFFF5
BC00000000
AE00000000
7F40000100
1DD4116D60
02AEFEF700
00002C3000
0000C50000
0001F41100
0000AED400
ENDCHAR
STARTCHAR Ecaron
ENCODING 282
SWIDTH 600 0
DWIDTH 12 0
BBX 11 17 1 0
BITMAP
00001C200880
000008D3BC10
000000CFB100
000000000000
004FFFFFFFC0
007F00000000
00AD00000000
00DA00000000
01F800000000
04F500000000
07FFFFFF9000
0AE000000000
0DB000000000
1F8000000000
4F5000000000
7F2000000000
AFFFFFFF9000
ENDCHAR
STARTCHAR ecaron
ENCODING 283
SWIDTH 600 0
DWIDTH 12 0
BBX 10 15 1 0
BITMAP
0002C10079
0000AC2BB1
00001DFA00
0000000000
0000000000
0007CFEA20
01CD412BD0
0BD10002F5
4F400000F7
9FFFFFFFF5
BC00000000
AE00000000
7F40000100
1DD4116D60
02AEFEB500
ENDCHAR
STARTCHAR Gcircumflex
ENCODING 284
SWIDTH 600 0
DWIDTH 12 0
BBX 11 17 1 0
BITMAP
000001CFB000
00002DA3E600
0000A6003B00
000000000000
00006CEEC500
001CD5118F30
01DC10000300
09E200000000
1F8000000000
6F3000000000
AE0006FFFB00
BD000000E800
BD000001F500
9F100004F200
4F700007E000
09F7115DA000
006CEEC60000
ENDCHAR
STARTCHAR gcircumflex
ENCODING 285
SWIDTH 600 0
DWIDTH 12 0
BBX 11 19 0 -4
BITMAP
0000007FE200
000009D3AC00
000069100A40
000000000000
000000000000
00018DFD65E0
002DC303CDB0
00CC10001F80
05F400002F50
0AD000005F20
0DB000008E00
0DB00000AB00
0AE10005E800
03EC66A8F500
0028A824F200
00000008E000
0000001D8000
5C4114CC1000
28DFEC710000
ENDCHAR
STARTCHAR Gbreve
ENCODING 286
SWIDTH 600 0
DWIDTH 12 0
BBX 11 17 1 0
BITMAP
000069000B30
00004E318B00
000008EE9100
000000000000
00006CEEC500
001CD5118F30
01DC10000300
09E200000000
1F8000000000
6F3000000000
AE0006FFFB00
BD000000E800
BD000001F500
9F100004F200
4F700007E000
09F7115DA000
006CEEC60000
ENDCHAR
STARTCHAR gbreve
ENCODING 287
SWIDTH 600 0
DWIDTH 12 0
BBX 11 19 0 -4
BITMAP
000001000010
00003E0004D0
00001E714D50
000004DEC500
000000000000
00018DFD65E0
002DC303CDB0
00CC10001F80
05F400002F50
0AD000005F20
0DB000008E00
0DB00000AB00
0AE10005E800
03EC66A8F500
0028A824F200
00000008E000
0000001D8000
5C4114CC1000
28DFEC710000
ENDCHAR
STARTCHAR Gdotaccent
ENCODING 288
SWIDTH 600 0
DWIDTH 12 0
BBX 11 16 1 0
BITMAP
0000007E3000
0000009E2000
000000000000
00006CEEC500
001CD5118F30
01DC10000300
09E200000000
1F8000000000
6F3000000000
AE0006FFFB00
BD000000E800
BD000001F500
9F100004F200
4F700007E000
09F7115DA000
006CEEC60000
ENDCHAR
STARTCHAR gdotaccent
ENCODING 289
SWIDTH 600 0
DWIDTH 12 0
BBX 11 18 0 -4
BITMAP
0000005EA000
0000006E9000
000000000000
000000000000
00018DFD65E0
002DC303CDB0
00CC10001F80
05F400002F50
0AD000005F20
0DB000008E00
0DB00000AB00
0AE10005E800
03EC66A8F500
0028A824F200
00000008E000
0000001D8000
5C4114CC1000
28DFEC710000
ENDCHAR
STARTCHAR uni0122
ENCODING 290
SWIDTH 600 0
DWIDTH 12 0
BBX 11 18 1 -5
BITMAP
00006CEEC500
001CD5118F30
01DC10000300
09E200000000
1F8000000000
6F3000000000
AE0006FFFB00
BD000000E800
BD000001F500
9F100004F200
4F700007E000
09F7115DA000
006CEEC60000
000000000000
0004D7000000
00007F000000
0002AC000000
008D91000000
ENDCHAR
STARTCHAR uni0123
ENCODING 291
SWIDTH 600 0
DWIDTH 12 0
BBX 11 18 0 -4
BITMAP
00000007C600
0000008B3000
000000BB1000
000000160000
00018DFD65E0
002DC303CDB0
00CC10001F80
05F400002F50
0AD000005F20
0DB000008E00
0DB00000AB00
0AE10005E800
03EC66A8F500
0028A824F200
00000008E000
0000001D8000
5C4114CC1000
28DFEC710000
ENDCHAR
STARTCHAR Hcircumflex
ENCODING 292
SWIDTH 600 0
DWIDTH 12 0
BBX 12 17 0 0
BITMAP
0000006FF400
000007E58D10
00003B200860
000000000000
002F700000DA
005F400001F7
008F100004F4
00BD000007F1
00EB000009D0
02F800000CA0
05FFFFFFFF70
08F100004F40
0BD000007F10
0EA00000AD00
2F700000DA00
5F300002F700
8F100005F400
ENDCHAR
STARTCHAR hcircumflex
ENCODING 293
SWIDTH 600 0
DWIDTH 12 0
BBX 11 18 0 0
BITMAP
0007FF300000
008E49D10000
04B100950000
000000000000
0008F0000000
000BC0000000
000E90000000
002F50000000
005F23AEEA00
008E79316F60
00BE50000F90
00E700001F80
02F400004F50
06F100007F20
09D00000AE00
0CA00000DB00
0E800001F800
3F500003F500
ENDCHAR
STARTCHAR Hbar
ENCODING 294
SWIDTH 600 0
DWIDTH 12 0
BBX 13 13 0 0
BITMAP
002F600000EA00
005F300002F600
0EFFFFFFFFFF90
00CC000008F000
00FA00000AC000
03F700000D9000
06FFFFFFFF6000
09F100004F3000
0CD000007F0000
0EA00000AC0000
2F700000D90000
5F300002F60000
8F100005F40000
ENDCHAR
STARTCHAR hbar
ENCODING 295
SWIDTH 600 0
DWIDTH 12 0
BBX 11 14 0 0
BITMAP
0008F1000000
000AD0000000
05EFFFFFE000
002F60000000
005F30000000
008F04BEE900
00BC88216F60
00ED30001F80
02F500003F60
05F200006F30
08E000009E00
0BB00000CB00
0E800000F800
2F500003F500
ENDCHAR
STARTCHAR Itilde
ENCODING 296
SWIDTH 600 0
DWIDTH 12 0
BBX 12 17 0 0
BITMAP
000000310011
00002DDE51D5
00009705DE80
000000000000
000CFFFFFFF5
000000CC0000
000000E90000
000002F60000
000005F30000
000008F00000
00000BC00000
00000E900000
00002F700000
00005F400000
00007F100000
0000AD000000
2FFFFFFFE000
ENDCHAR
STARTCHAR itilde
ENCODING 297
SWIDTH 600 0
DWIDTH 12 0
BBX 9 15 2 0
BITMAP
0039700450
01E9C91D50
05A01BE900
0000000000
0000000000
CFFFF50000
0007F10000
000AD00000
000DA00000
002F700000
005F400000
008F100000
00AE000000
007F413200
0009EEC500
ENDCHAR
STARTCHAR Imacron
ENCODING 298
SWIDTH 600 0
DWIDTH 12 0
BBX 12 16 0 0
BITMAP
00000CFFFF50
000000000000
000000000000
000CFFFFFFF5
000000CC0000
000000E90000
000002F60000
000005F30000
000008F00000
00000BC00000
00000E900000
00002F700000
00005F400000
00007F100000
0000AD000000
2FFFFFFFE000
ENDCHAR
STARTCHAR imacron
ENCODING 299
SWIDTH 600 0
DWIDTH 12 0
BBX 8 13 2 0
BITMAP
00AFFFF7
00000000
00000000
CFFFF500
0007F100
000AD000
000DA000
002F7000
005F4000
008F1000
00AE0000
007F4132
0009EEC5
ENDCHAR
STARTCHAR Ibreve
ENCODING 300
SWIDTH 600 0
DWIDTH 12 0
BBX 12 17 0 0
BITMAP
00000C3003B0
00000B913D50
000002CEC500
000000000000
000CFFFFFFF5
000000CC0000
000000E90000
000002F60000
000005F30000
000008F00000
00000BC00000
00000E900000
00002F700000
00005F400000
00007F100000
0000AD000000
2FFFFFFFE000
ENDCHAR
STARTCHAR ibreve
ENCODING 301
SWIDTH 600 0
DWIDTH 12 0
BBX 9 15 2 0
BITMAP
0010000100
00C4001D30
00AB22BA00
001BFD8000
0000000000
CFFFF50000
0007F10000
000AD00000
000DA00000
002F700000
005F400000
008F100000
00AE000000
007F413200
0009EEC500
ENDCHAR
STARTCHAR Iogonek
ENCODING 302
SWIDTH 600 0
DWIDTH 12 0
BBX 12 17 0 -4
BITMAP
000CFFFFFFF5
000000CC0000
000000E90000
000002F60000
000005F30000
000008F00000
00000BC00000
00000E900000
00002F700000
00005F400000
00007F100000
0000AD000000
2FFFFFFFE000
0005B2000000
003D10000000
008C12000000
003DEB000000
ENDCHAR
STARTCHAR iogonek
ENCODING 303
SWIDTH 600 0
DWIDTH 12 0
BBX 8 18 2 -4
BITMAP
0001DD20
0002DC10
00000000
00000000
CFFFF500
0007F100
000AD000
000DA000
002F7000
005F4000
008F1000
00AE0000
007F4132
0009EFE5
00009910
00089000
000C8120
0006EE70
ENDCHAR
STARTCHAR Idotaccent
ENCODING 304
SWIDTH 600 0
DWIDTH 12 0
BBX 12 16 0 0
BITMAP
0000001DA000
0000002E9000
000000000000
000CFFFFFFF5
000000CC0000
000000E90000
000002F60000
000005F30000
000008F00000
00000BC00000
00000E900000
00002F700000
00005F400000
00007F100000
0000AD000000
2FFFFFFFE000
ENDCHAR
STARTCHAR dotlessi
ENCODING 305
SWIDTH 600 0
DWIDTH 12 0
BBX 8 10 2 0
BITMAP
CFFFF500
0007F100
000AD000
000DA000
002F7000
005F4000
008F1000
00AE0000
007F4132
0009EEC5
ENDCHAR
STARTCHAR IJ
ENCODING 306
SWIDTH 600 0
DWIDTH 12 0
BBX 12 16 0 -3
BITMAP
0009E00005F3
000CB00008F0
001F80000BC0
003F50000E90
006F20002F60
009E00005F30
00CB00008F00
01F80000BC00
04F50000E900
07F20002F600
0AE00005F300
0DB00009E000
1F80000CC000
0000001E8000
0000117E2000
00007FD40000
ENDCHAR
STARTCHAR ij
ENCODING 307
SWIDTH 600 0
DWIDTH 12 0
BBX 11 18 1 -4
BITMAP
004EA002DD10
006E9003EC00
000000000000
000000000000
00DB0009E000
01F8000CB000
03F5000F8000
06F2003F5000
09E0006F2000
0CB0009E0000
0F8000CB0000
3F5000F70000
6F2003F40000
9E0006F10000
000009D00000
00000C900000
00015F400000
005ED6000000
ENDCHAR
STARTCHAR Jcircumflex
ENCODING 308
SWIDTH 600 0
DWIDTH 12 0
BBX 11 17 0 0
BITMAP
0000006FF400
000007E58D10
00003B200860
000000000000
0006FFFFFFA0
000000001F70
000000004F40
000000007F10
00000000AD00
00000000DA00
00000001F700
00000004F400
00000007F100
0000000BB000
0500003F5000
4F8214DA0000
05BEFD700000
ENDCHAR
STARTCHAR jcircumflex
ENCODING 309
SWIDTH 600 0
DWIDTH 12 0
BBX 13 19 -1 -4
BITMAP
00000001AFD100
0000001CB3C900
00000097001C10
00000000000000
00000000000000
0004FFFFFC0000
00000000F90000
00000003F60000
00000006F30000
00000009E00000
0000000CC00000
0000000E900000
0000002F600000
0000005F300000
0000008E000000
000000CB000000
000003F6000000
08213DB0000000
2ADFD810000000
ENDCHAR
STARTCHAR uni0136
ENCODING 310
SWIDTH 600 0
DWIDTH 12 0
BBX 13 18 0 -5
BITMAP
000AE00001CC10
000DB0002DB100
001F7002DB1000
004F402DB00000
007F12DA000000
00AD3EF1000000
00DDEBF7000000
01FF90BD000000
04F8005F600000
07F1000DC00000
0AD00007F40000
0DA00001EB0000
1F7000009F2000
00000000000000
00007D50000000
00001AC0000000
00003C80000000
000BD700000000
ENDCHAR
STARTCHAR uni0137
ENCODING 311
SWIDTH 600 0
DWIDTH 12 0
BBX 11 19 1 -5
BITMAP
004F40000000
007F10000000
00AD00000000
00DA00000000
01F70001AE30
04F4001CE300
07F102DD2000
0AD04ED20000
0D95FF500000
1FDF8CC00000
5FE504F50000
8F3000BD0000
BD00003F6000
E900000AD000
000000000000
0009C3000000
0001CA000000
0014D6000000
00EC60000000
ENDCHAR
STARTCHAR kgreenlandic
ENCODING 312
SWIDTH 600 0
DWIDTH 12 0
BBX 11 10 1 0
BITMAP
03F50001BE30
06F2002CD200
08E003EB1000
0BC05FA00000
0E98FF600000
2FEF5AD00000
5FD303F60000
8F2000AD0000
BC00003F6000
E900000AE000
ENDCHAR
STARTCHAR Lacute
ENCODING 313
SWIDTH 600 0
DWIDTH 12 0
BBX 9 17 2 0
BITMAP
00002B4000
0006EB3000
002C400000
0000000000
008F100000
00BD000000
00EA000000
02F7000000
05F4000000
08F1000000
0BD0000000
0EA0000000
2F70000000
5F40000000
8F10000000
BD00000000
EFFFFFFF30
ENDCHAR
STARTCHAR lacute
ENCODING 314
SWIDTH 600 0
DWIDTH 12 0
BBX 8 18 2 0
BITMAP
0000006A
00002BE7
00009910
00000000
1FFFFB00
0001F700
0004F400
0007F100
000AD000
000EA000
002F7000
005F3000
008F0000
00BC0000
00E90000
01F70000
00DB1150
003CFEB1
ENDCHAR
STARTCHAR uni013B
ENCODING 315
SWIDTH 600 0
DWIDTH 12 0
BBX 9 18 2 -5
BITMAP
008F100000
00BD000000
00EA000000
02F7000000
05F4000000
08F1000000
0BD0000000
0EA0000000
2F70000000
5F40000000
8F10000000
BD00000000
EFFFFFFF30
0000000000
002E900000
0005F20000
0028D10000
06DA200000
ENDCHAR
STARTCHAR uni013C
ENCODING 316
SWIDTH 600 0
DWIDTH 12 0
BBX 8 19 2 -5
BITMAP
1FFFFB00
0001F700
0004F400
0007F100
000AD000
000EA000
002F7000
005F3000
008F0000
00BC0000
00E90000
01F70000
00DB1150
003CFEB1
00000000
000BB200
0002D800
0015E400
01EB5000
ENDCHAR
STARTCHAR Lcaron
ENCODING 317
SWIDTH 600 0
DWIDTH 12 0
BBX 9 16 2 0
BITMAP
0000000AC0
0000000D80
0000001F40
008F103E00
00BD006A00
00EA000000
02F7000000
05F4000000
08F1000000
0BD0000000
0EA0000000
2F70000000
5F40000000
8F10000000
BD00000000
EFFFFFFF30
ENDCHAR
STARTCHAR lcaron
ENCODING 318
SWIDTH 600 0
DWIDTH 12 0
BBX 10 16 2 0
BITMAP
00000001F5
00000004F2
1FFFFB07C0
0001F70A80
0004F40D30
0007F10000
000AD00000
000EA00000
002F700000
005F300000
008F000000
00BC000000
00E9000000
01F7000000
00DB115000
003CFEB100
ENDCHAR
STARTCHAR Ldot
ENCODING 319
SWIDTH 600 0
DWIDTH 12 0
BBX 10 13 2 0
BITMAP
008F100000
00BD000000
00EA000000
02F7000000
05F4000000
08F1002DD1
0BD0004EB0
0EA0000000
2F70000000
5F40000000
8F10000000
BD00000000
EFFFFFFF30
ENDCHAR
STARTCHAR ldot
ENCODING 320
SWIDTH 600 0
DWIDTH 12 0
BBX 11 14 2 0
BITMAP
CFFFF0000000
000BC0000000
000E80000000
003F50000000
006F20000000
009E00000000
00DB0001CE30
01F80001DD20
04F400000000
07F100000000
0AD000000000
0CB000000000
09E214100000
01AEEC300000
ENDCHAR
STARTCHAR Lslash
ENCODING 321
SWIDTH 600 0
DWIDTH 12 0
BBX 10 13 1 0
BITMAP
0008F10000
000BD00000
000EA00000
002F700000
005F400660
008F27EC40
00BFEC5000
4BFD400000
D9F7000000
05F4000000
08F1000000
0BD0000000
0EFFFFFFF3
ENDCHAR
STARTCHAR lslash
ENCODING 322
SWIDTH 600 0
DWIDTH 12 0
BBX 9 14 2 0
BITMAP
1FFFFB0000
0001F70000
0004F40000
0007F10100
000AD18E30
000EEE9200
05DFB20000
CC9F300000
208F000000
00BC000000
00E9000000
01F7000000
00DB115000
003CFEB100
ENDCHAR
STARTCHAR Nacute
ENCODING 323
SWIDTH 600 0
DWIDTH 12 0
BBX 12 17 0 0
BITMAP
000000002B30
00000007FB20
0000003C4000
000000000000
000ED00000E9
003FF30001F6
006EC80004F3
009B8C0007E0
00C94F200AC0
00F70E700E90
03F409C01F60
06F104F24F30
09D000E67E00
0CA000AA9C00
0F70005EB900
3F40000EF500
6F10000AF200
ENDCHAR
STARTCHAR nacute
ENCODING 324
SWIDTH 600 0
DWIDTH 12 0
BBX 11 16 0 0
BITMAP
000000002B10
00000003ED20
0000004EB100
000000870000
000000000000
000000000000
007D03AEEA00
00AB79316F60
00CE50000F90
01F700001F80
03F400004F50
06F100007F20
09D00000AE00
0CB00000DB00
0F800001F800
3F500003F500
ENDCHAR
STARTCHAR uni0145
ENCODING 325
SWIDTH 600 0
DWIDTH 12 0
BBX 12 18 0 -5
BITMAP
000ED00000E9
003FF30001F6
006EC80004F3
009B8C0007E0
00C94F200AC0
00F70E700E90
03F409C01F60
06F104F24F30
09D000E67E00
0CA000AA9C00
0F70005EB900
3F40000EF500
6F10000AF200
000000000000
0004D7000000
00007F100000
0002AC000000
008D91000000
ENDCHAR
STARTCHAR uni0146
ENCODING 326
SWIDTH 600 0
DWIDTH 12 0
BBX 11 15 0 -5
BITMAP
007D03AEEA00
00AB79316F60
00CE50000F90
01F700001F80
03F400004F50
06F100007F20
09D00000AE00
0CB00000DB00
0F800001F800
3F500003F500
000000000000
0002E9000000
00005F200000
00028D100000
006DA2000000
ENDCHAR
STARTCHAR Ncaron
ENCODING 327
SWIDTH 600 0
DWIDTH 12 0
BBX 12 17 0 0
BITMAP
00000A5004C0
000004F58E30
0000008FE300
000000000000
000ED00000E9
003FF30001F6
006EC80004F3
009B8C0007E0
00C94F200AC0
00F70E700E90
03F409C01F60
06F104F24F30
09D000E67E00
0CA000AA9C00
0F70005EB900
3F40000EF500
6F10000AF200
ENDCHAR
STARTCHAR ncaron
ENCODING 328
SWIDTH 600 0
DWIDTH 12 0
BBX 11 15 0 0
BITMAP
00001C2006A0
000008D3AC20
000000CFB100
000000000000
000000000000
007D03AEEA00
00AB79316F60
00CE50000F90
01F700001F80
03F400004F50
06F100007F20
09D00000AE00
0CB00000DB00
0F800001F800
3F500003F500
ENDCHAR
STARTCHAR napostrophe
ENCODING 329
SWIDTH 600 0
DWIDTH 12 0
BBX 14 14 -1 0
BITMAP
004EB000000000
00CFF400000000
009FF400000000
0007E100000000
002E75E03BEE60
05DA08D7921BE1
1C500BE50007F2
00000E900007F1
00002F60000AD0
00005F30000DA0
00008F00001F70
0000BC00004F40
0000DA00007F10
0001F70000AD00
ENDCHAR
STARTCHAR Eng
ENCODING 330
SWIDTH 600 0
DWIDTH 12 0
BBX 12 13 0 0
BITMAP
002F64BED800
005FB8216F80
008F30000BE0
00BC000007F1
00E9000007F2
02F6000007F1
05F3000009E0
08F000000CC0
0BC000001F80
0E9000006F30
2F600000DB00
5F30011AE200
8F101DEB2000
ENDCHAR
STARTCHAR eng
ENCODING 331
SWIDTH 600 0
DWIDTH 12 0
BBX 11 14 0 -4
BITMAP
007D03AEE900
00AB79316F60
00CE50000F90
01F700001F80
03F400003F50
06F100006F20
09D000009E00
0CB00000CB00
0F800000E800
3F500002F500
00000005F200
00000008D000
0000012E8000
00001EE91000
ENDCHAR
STARTCHAR Omacron
ENCODING 332
SWIDTH 600 0
DWIDTH 12 0
BBX 12 16 0 0
BITMAP
00000CFFFF50
000000000000
000000000000
00004BEEB400
0008E6117F40
007F30000BD0
02E8000006F3
08F1000004F5
0DB0000004F5
1F80000006F3
2F70000009F0
2F7000000DA0
1F8000005F40
0BD00002E900
03E9215DA000
003BEEC60000
ENDCHAR
STARTCHAR omacron
ENCODING 333
SWIDTH 600 0
DWIDTH 12 0
BBX 11 13 0 0
BITMAP
00004FFFFC00
000000000000
000000000000
00029DFD7000
004EA214EA00
02EA00005F40
09E100001F80
0EA000000F80
1F8000002F60
0F9000008F20
0CD00003F800
03F9216EA000
003BEEB50000
ENDCHAR
STARTCHAR Obreve
ENCODING 334
SWIDTH 600 0
DWIDTH 12 0
BBX 12 17 0 0
BITMAP
00000C3003B0
00000B913D50
000002CEC500
000000000000
00004BEEB400
0008E6117F40
007F30000BD0
02E8000006F3
08F1000004F5
0DB0000004F5
1F80000006F3
2F70000009F0
2F7000000DA0
1F8000005F40
0BD00002E900
03E9215DA000
003BEEC60000
ENDCHAR
STARTCHAR obreve
ENCODING 335
SWIDTH 600 0
DWIDTH 12 0
BBX 11 15 0 0
BITMAP
000001000110
00007A000880
00004E416E20
000008EEA200
000000000000
00029DFD7000
004EA214EA00
02EA00005F40
09E100001F80
0EA000000F80
1F8000002F60
0F9000008F20
0CD00003F800
03F9216EA000
003BEEB50000
ENDCHAR
STARTCHAR Ohungarumlaut
ENCODING 336
SWIDTH 600 0
DWIDTH 12 0
BBX 12 17 0 0
BITMAP
00000007905B
0000006D24E4
000002C20C30
000000000000
00004BEEB400
0008E6117F40
007F30000BD0
02E8000006F3
08F1000004F5
0DB0000004F5
1F80000006F3
2F70000009F0
2F7000000DA0
1F8000005F40
0BD00002E900
03E9215DA000
003BEEC60000
ENDCHAR
STARTCHAR ohungarumlaut
ENCODING 337
SWIDTH 600 0
DWIDTH 12 0
BBX 12 15 0 0
BITMAP
0000000A40A5
0000006E26E2
000002E42E40
000007707700
000000000000
00029DFD7000
004EA214EA00
02EA00005F40
09E100001F80
0EA000000F80
1F8000002F60
0F9000008F20
0CD00003F800
03F9216EA000
003BEEB50000
ENDCHAR
STARTCHAR OE
ENCODING 338
SWIDTH 600 0
DWIDTH 12 0
BBX 13 13 0 0
BITMAP
00004AEFFFFFE0
000AE61AB11110
00AE200D800000
05F4001F600000
0CC0004F300000
2F70007F100000
5F40009FFFD000
6F3000C9000000
6F3000F6000000
5F4003F3000000
1F9006F0000000
08F819C1111000
006CEFFFFFB000
ENDCHAR
STARTCHAR oe
ENCODING 339
SWIDTH 600 0
DWIDTH 12 0
BBX 13 10 -1 0
BITMAP
0006DEA01AEC30
008E41D6C609B0
04F4007E8005E0
0AC0005F1005E0
0E70006FFFFFB0
2F500088000000
2F4000D8000000
1F5004FA000000
0BC13D7E303600
02BEC406EEC600
ENDCHAR
STARTCHAR Racute
ENCODING 340
SWIDTH 600 0
DWIDTH 12 0
BBX 11 17 0 0
BITMAP
000000003B20
00000007FA20
0000004C4000
000000000000
000CFFFEC700
000F70017F90
003F50000AE0
006F20000AE0
009E00001E90
00CB0025DC10
00FFFFFC6000
03F404F50000
06F100DB0000
09D0008F2000
0CB0002F7000
0F80000CD000
3F500007F400
ENDCHAR
STARTCHAR racute
ENCODING 341
SWIDTH 600 0
DWIDTH 12 0
BBX 9 16 2 0
BITMAP
0000000950
000000AF70
00001BE400
00002B2000
0000000000
0000000000
03F118DFB0
06E1B51130
09C9100000
0CD1000000
0F60000000
3F30000000
6F10000000
9D00000000
CB00000000
E800000000
ENDCHAR
STARTCHAR uni0156
ENCODING 342
SWIDTH 600 0
DWIDTH 12 0
BBX 11 18 0 -5
BITMAP
000CFFFEC700
000F70017F90
003F50000AE0
006F20000AE0
009E00001E90
00CB0025DC10
00FFFFFC6000
03F404F50000
06F100DB0000
09D0008F2000
0CB0002F7000
0F80000CD000
3F500007F400
000000000000
0001DA000000
00003F400000
00017E100000
005EA3000000
ENDCHAR
STARTCHAR uni0157
ENCODING 343
SWIDTH 600 0
DWIDTH 12 0
BBX 11 15 0 -5
BITMAP
0003F118DFB0
0006E1B51130
0009C9100000
000CD1000000
000F60000000
003F30000000
006F10000000
009D00000000
00CB00000000
00E800000000
000000000000
07D500000000
01AC00000000
03C900000000
BD7000000000
ENDCHAR
STARTCHAR Rcaron
ENCODING 344
SWIDTH 600 0
DWIDTH 12 0
BBX 11 17 0 0
BITMAP
00000A4005B0
000004E49E30
0000009FD200
000000000000
000CFFFEC700
000F70017F90
003F50000AE0
006F20000AE0
009E00001E90
00CB0025DC10
00FFFFFC6000
03F404F50000
06F100DB0000
09D0008F2000
0CB0002F7000
0F80000CD000
3F500007F400
ENDCHAR
STARTCHAR rcaron
ENCODING 345
SWIDTH 600 0
DWIDTH 12 0
BBX 10 15 2 0
BITMAP
00077002B3
0002E75E60
00005FE500
0000000000
0000000000
03F118DFB0
06E1B51130
09C9100000
0CD1000000
0F60000000
3F30000000
6F10000000
9D00000000
CB00000000
E800000000
ENDCHAR
STARTCHAR Sacute
ENCODING 346
SWIDTH 600 0
DWIDTH 12 0
BBX 11 17 0 0
BITMAP
000000005B10
0000001AF810
0000007A2000
000000000000
00005CFEC600
0007F6128F70
001E90000400
002F70000000
000DD2000000
0004EE700000
00002BFD3000
0000005EE200
00000003F800
00000000EA00
19300003F700
0CE6114DC100
007CEEC71000
ENDCHAR
STARTCHAR sacute
ENCODING 347
SWIDTH 600 0
DWIDTH 12 0
BBX 10 16 1 0
BITMAP
0000000590
0000006FB0
000007F800
00000B4000
0000000000
0000000000
003AEFD920
02E8114BE1
06F1000020
04F9100000
007FEA4000
00017DFA00
0000007F50
2200000F70
9E72018E20
06BEFDA300
ENDCHAR
STARTCHAR Scircumflex
ENCODING 348
SWIDTH 600 0
DWIDTH 12 0
BBX 11 17 0 0
BITMAP
000000AFE100
00000BC3CA00
000069001B20
000000000000
00005CFEC600
0007F6128F70
001E90000400
002F70000000
000DD2000000
0004EE700000
00002BFD3000
0000005EE200
00000003F800
00000000EA00
19300003F700
0CE6114DC100
007CEEC71000
ENDCHAR
STARTCHAR scircumflex
ENCODING 349
SWIDTH 600 0
DWIDTH 12 0
BBX 10 15 1 0
BITMAP
00001BFC00
0002CA3D80
000A6002C1
0000000000
0000000000
003AEFD920
02E8114BE1
06F1000020
04F9100000
007FEA4000
00017DFA00
0000007F50
2200000F70
9E72018E20
06BEFDA300
ENDCHAR
STARTCHAR uni015E
ENCODING 350
SWIDTH 600 0
DWIDTH 12 0
BBX 11 18 0 -5
BITMAP
00005CFEC600
0007F6128F70
001E90000400
002F70000000
000DD2000000
0004EE700000
00002BFD3000
0000005EE200
00000003F800
00000000EA00
19300003F700
0CE6114DC100
007CEEC71000
000096000000
0003FB000000
00006F100000
00029C000000
007D91000000
ENDCHAR
STARTCHAR uni015F
ENCODING 351
SWIDTH 600 0
DWIDTH 12 0
BBX 10 15 1 -5
BITMAP
003AEFD920
02E8114BE1
06F1000020
04F9100000
007FEA4000
00017DFA00
0000007F50
2200000F70
9E72018E20
06BEFDA300
0008600000
003FB00000
0006F20000
0028C00000
07D9200000
ENDCHAR
STARTCHAR Scaron
ENCODING 352
SWIDTH 600 0
DWIDTH 12 0
BBX 11 17 0 0
BITMAP
00001C200790
000008D3BC10
000000CFB100
000000000000
00005CFEC600
0007F6128F70
001E90000400
002F70000000
000DD2000000
0004EE700000
00002BFD3000
0000005EE200
00000003F800
00000000EA00
19300003F700
0CE6114DC100
007CEEC71000
ENDCHAR
STARTCHAR scaron
ENCODING 353
SWIDTH 600 0
DWIDTH 12 0
BBX 10 15 1 0
BITMAP
0003B00097
0000CA3CA0
00002EF800
0000000000
0000000000
003AEFD920
02E8114BE1
06F1000020
04F9100000
007FEA4000
00017DFA00
0000007F50
2200000F70
9E72018E20
06BEFDA300
ENDCHAR
STARTCHAR uni0162
ENCODING 354
SWIDTH 600 0
DWIDTH 12 0
BBX 11 18 2 -5
BITMAP
EFFFFFFFFF50
0000CB000000
0000F9000000
0003F6000000
0006F3000000
0009F0000000
000CC0000000
000E90000000
002F60000000
005F30000000
008F00000000
00BC00000000
00E900000000
01C100000000
09E500000000
01BA00000000
13D600000000
DC6000000000
ENDCHAR
STARTCHAR uni0163
ENCODING 355
SWIDTH 600 0
DWIDTH 12 0
BBX 10 18 1 -5
BITMAP
0000A90000
0000E60000
0004F30000
6EFFFFFFFB
000CB00000
000F800000
003F500000
006F200000
009E000000
00BC000000
00BC000000
008F512720
0019EEDA30
0000950000
0004FA0000
00007F1000
00029B0000
008D910000
ENDCHAR
STARTCHAR Tcaron
ENCODING 356
SWIDTH 600 0
DWIDTH 12 0
BBX 11 17 2 0
BITMAP
000A5004C000
0004F58E3000
00008FE30000
000000000000
EFFFFFFFFF50
0000CB000000
0000F9000000
0003F6000000
0006F3000000
0009F0000000
000CC0000000
000E90000000
002F60000000
005F30000000
008F00000000
00BC00000000
00E900000000
ENDCHAR
STARTCHAR tcaron
ENCODING 357
SWIDTH 600 0
DWIDTH 12 0
BBX 10 16 1 0
BITMAP
000000009C
00000000C8
00000000F4
0000A903E0
0000E606A0
0004F30000
6EFFFFFFFB
000CB00000
000F800000
003F500000
006F200000
009E000000
00BC000000
00BC000000
008F512720
0019EEDA30
ENDCHAR
STARTCHAR Tbar
ENCODING 358
SWIDTH 600 0
DWIDTH 12 0
BBX 11 13 2 0
BITMAP
EFFFFFFFFF50
0000CC000000
0000E9000000
0001F7000000
0004F4000000
0006F2000000
5EFFFFF90000
000DB0000000
001F70000000
004F40000000
008F10000000
00BD00000000
00E900000000
ENDCHAR
STARTCHAR tbar
ENCODING 359
SWIDTH 600 0
DWIDTH 12 0
BBX 11 13 0 0
BITMAP
00000A900000
00000E600000
00004F300000
06EFFFFFFFB0
0000CB000000
0000F8000000
0003F5000000
2EFFFFFFFA00
0009E0000000
000CB0000000
000BC0000000
0007F5127200
00019EEDA300
ENDCHAR
STARTCHAR Utilde
ENCODING 360
SWIDTH 600 0
DWIDTH 12 0
BBX 11 17 1 0
BITMAP
000003100110
0002DDE51D50
0009705DE800
000000000000
02F700000DA0
05F400001F70
08F100004F40
0BD000007F10
0EA00000AD00
2F700000DA00
5F400001F700
8F100004F300
AD000007F000
AD00000CB000
7F10004F4000
1EB215E90000
03BEEC600000
ENDCHAR
STARTCHAR utilde
ENCODING 361
SWIDTH 600 0
DWIDTH 12 0
BBX 10 15 1 0
BITMAP
0001892018
000ABAD28A
001D107EC2
0000000000
0000000000
09E00000AD
0CB00000DA
0F800001F7
3F500003F5
6F200006F2
9E000009E0
CC00000CB0
DB00008F80
AE314A4F50
2CED812F20
ENDCHAR
STARTCHAR Umacron
ENCODING 362
SWIDTH 600 0
DWIDTH 12 0
BBX 11 16 1 0
BITMAP
0000CFFFF500
000000000000
000000000000
02F700000DA0
05F400001F70
08F100004F40
0BD000007F10
0EA00000AD00
2F700000DA00
5F400001F700
8F100004F300
AD000007F000
AD00000CB000
7F10004F4000
1EB215E90000
03BEEC600000
ENDCHAR
STARTCHAR umacron
ENCODING 363
SWIDTH 600 0
DWIDTH 12 0
BBX 10 13 1 0
BITMAP
0004FFFFC0
0000000000
0000000000
09E00000AD
0CB00000DA
0F800001F7
3F500003F5
6F200006F2
9E000009E0
CC00000CB0
DB00008F80
AE314A4F50
2CED812F20
ENDCHAR
STARTCHAR Ubreve
ENCODING 364
SWIDTH 600 0
DWIDTH 12 0
BBX 11 17 1 0
BITMAP
0000C3003B00
0000B913D500
00002CEC5000
000000000000
02F700000DA0
05F400001F70
08F100004F40
0BD000007F10
0EA00000AD00
2F700000DA00
5F400001F700
8F100004F300
AD000007F000
AD00000CB000
7F10004F4000
1EB215E90000
03BEEC600000
ENDCHAR
STARTCHAR ubreve
ENCODING 365
SWIDTH 600 0
DWIDTH 12 0
BBX 10 15 1 0
BITMAP
0000100011
0007A00098
0004E417E1
00008EEA20
0000000000
09E00000AD
0CB00000DA
0F800001F7
3F500003F5
6F200006F2
9E000009E0
CC00000CB0
DB00008F80
AE314A4F50
2CED812F20
ENDCHAR
STARTCHAR Uring
ENCODING 366
SWIDTH 600 0
DWIDTH 12 0
BBX 11 18 1 0
BITMAP
000003DE5000
00000C34C000
00000E25B000
000007EC2000
000000000000
02F700000DA0
05F400001F70
08F100004F40
0BD000007F10
0EA00000AD00
2F700000DA00
5F400001F700
8F100004F300
AD000007F000
AD00000CB000
7F10004F4000
1EB215E90000
03BEEC600000
ENDCHAR
STARTCHAR uring
ENCODING 367
SWIDTH 600 0
DWIDTH 12 0
BBX 10 15 1 0
BITMAP
00001AEC10
0000991A70
0000B71C40
00004DE800
0000000000
09E00000AD
0CB00000DA
0F800001F7
3F500003F5
6F200006F2
9E000009E0
CC00000CB0
DB00008F80
AE314A4F50
2CED812F20
ENDCHAR
STARTCHAR Uhungarumlaut
ENCODING 368
SWIDTH 600 0
DWIDTH 12 0
BBX 11 17 1 0
BITMAP
0000007905B0
000006D24E40
00002C20C300
000000000000
02F700000DA0
05F400001F70
08F100004F40
0BD000007F10
0EA00000AD00
2F700000DA00
5F400001F700
8F100004F300
AD000007F000
AD00000CB000
7F10004F4000
1EB215E90000
03BEEC600000
ENDCHAR
STARTCHAR uhungarumlaut
ENCODING 369
SWIDTH 600 0
DWIDTH 12 0
BBX 11 15 1 0
BITMAP
000000A40A40
000006E26E20
00002E42E400
000077077000
000000000000
09E00000AD00
0CB00000DA00
0F800001F700
3F500003F500
6F200006F200
9E000009E000
CC00000CB000
DB00008F8000
AE314A4F5000
2CED812F2000
ENDCHAR
STARTCHAR Uogonek
ENCODING 370
SWIDTH 600 0
DWIDTH 12 0
BBX 11 17 1 -4
BITMAP
02F700000DA0
05F400001F70
08F100004F40
0BD000007F10
0EA00000AD00
2F700000DA00
5F400001F700
8F100004F400
AD000007F100
AD00000BB000
8F10004F4000
2EA204E90000
03BFFD600000
006C40000000
04D100000000
08C120000000
03DEA0000000
ENDCHAR
STARTCHAR uogonek
ENCODING 371
SWIDTH 600 0
DWIDTH 12 0
BBX 10 14 1 -4
BITMAP
09E00000AD
0CB00000DA
0F800001F7
3F500003F5
6F200006F2
9E000009E0
CC00000CB0
DB00008F80
AE314A4F50
2CED812F20
000003A500
00003C1000
00008B1200
00004DEA00
ENDCHAR
STARTCHAR Wcircumflex
ENCODING 372
SWIDTH 600 0
DWIDTH 12 0
BBX 12 17 1 0
BITMAP
000007FF3000
00008E49D100
0003B1009500
000000000000
2F50000000CA
3F40000001F6
4F30000006F1
5F1016200AB0
6F007F501E60
7E00DD705F20
8D05D9809C00
9C0C7890E700
AB3E17A3F300
B9A906C7D000
C9F205DB8000
DDB004EE4000
DF4003FE0000
ENDCHAR
STARTCHAR wcircumflex
ENCODING 373
SWIDTH 600 0
DWIDTH 12 0
BBX 13 15 0 0
BITMAP
000002CFA00000
00003D93E60000
0000B4003B0000
00000000000000
00000000000000
1F700273004F40
1F7009F600AC00
0F701EC701E600
0F707CB706E100
0F70D6A80C9000
0E74E1A83F3000
0E7A90A99C0000
0E8F3099E60000
0DDC009DE10000
0DF5009F900000
ENDCHAR
STARTCHAR Ycircumflex
ENCODING 374
SWIDTH 600 0
DWIDTH 12 0
BBX 11 17 2 0
BITMAP
00009FE10000
000AD3BB0000
0069101B3000
000000000000
AE0000007F30
5F400003F600
0E80001DA000
0AD0009D1000
05F204F40000
00E61D800000
00AB8C000000
005FE2000000
002F60000000
005F30000000
008F00000000
00BC00000000
00E900000000
ENDCHAR
STARTCHAR ycircumflex
ENCODING 375
SWIDTH 600 0
DWIDTH 12 0
BBX 13 19 -1 -4
BITMAP
0000002CFA0000
000003D93E6000
00000B4003B000
00000000000000
00000000000000
002F5000004F50
000D900000CB00
0009C00006F200
0006F1001E8000
0002F4009D1000
0000D803F50000
00009B0CA00000
00005E5E200000
00001FD7000000
00000ED0000000
00006F40000000
0001E900000000
212CC100000000
9FD81000000000
ENDCHAR
STARTCHAR Ydieresis
ENCODING 376
SWIDTH 600 0
DWIDTH 12 0
BBX 11 16 2 0
BITMAP
001D703E3000
001E604E2000
000000000000
AE0000007F30
5F400003F600
0E80001DA000
0AD0009D1000
05F204F40000
00E61D800000
00AB8C000000
005FE2000000
002F60000000
005F30000000
008F00000000
00BC00000000
00E900000000
ENDCHAR
STARTCHAR Zacute
ENCODING 377
SWIDTH 600 0
DWIDTH 12 0
BBX 12 17 0 0
BITMAP
000000004B10
00000019F910
0000006A2000
000000000000
005FFFFFFFF8
000000002EC1
00000000CE20
00000009F400
0000005F8000
000003EB0000
00001DD10000
0000AF300000
0007F6000000
004F90000000
02EC00000000
0CE200000000
7FFFFFFFFC00
ENDCHAR
STARTCHAR zacute
ENCODING 378
SWIDTH 600 0
DWIDTH 12 0
BBX 11 16 0 0
BITMAP
000000006800
00000007FA00
0000009F7000
000001B30000
000000000000
000000000000
009FFFFFFF90
00000002DC10
0000001DD100
000001CD2000
00000BE20000
0000AE300000
0009F4000000
008F50000000
06F700000000
3FFFFFFFF600
ENDCHAR
STARTCHAR Zdotaccent
ENCODING 379
SWIDTH 600 0
DWIDTH 12 0
BBX 12 16 0 0
BITMAP
0000003E7000
0000005E6000
000000000000
005FFFFFFFF8
000000002EC1
00000000CE20
00000009F400
0000005F8000
000003EB0000
00001DD10000
0000AF300000
0007F6000000
004F90000000
02EC00000000
0CE200000000
7FFFFFFFFC00
ENDCHAR
STARTCHAR zdotaccent
ENCODING 380
SWIDTH 600 0
DWIDTH 12 0
BBX 11 14 0 0
BITMAP
000000AE5000
000000CE4000
000000000000
000000000000
009FFFFFFF90
00000002DC10
0000001DD100
000001CD2000
00000BE20000
0000AE300000
0009F4000000
008F50000000
06F700000000
3FFFFFFFF600
ENDCHAR
STARTCHAR Zcaron
ENCODING 381
SWIDTH 600 0
DWIDTH 12 0
BBX 12 17 0 0
BITMAP
00000C200790
000007D3BC10
000000BFC100
000000000000
005FFFFFFFF8
000000002EC1
00000000CE20
00000009F400
0000005F8000
000003EB0000
00001DD10000
0000AF300000
0007F6000000
004F90000000
02EC00000000
0CE200000000
7FFFFFFFFC00
ENDCHAR
STARTCHAR zcaron
ENCODING 382
SWIDTH 600 0
DWIDTH 12 0
BBX 11 15 0 0
BITMAP
00004A001A50
00001D93D900
000003FF7000
000000000000
000000000000
009FFFFFFF90
00000002DC10
0000001DD100
000001CD2000
00000BE20000
0000AE300000
0009F4000000
008F50000000
06F700000000
3FFFFFFFF600
ENDCHAR
STARTCHAR longs
ENCODING 383
SWIDTH 600 0
DWIDTH 12 0
BBX 11 14 2 0
BITMAP
000007CEDA30
0000AE512720
0003F6000000
0008F1000000
8EFFD0000000
000FA0000000
003F70000000
006F40000000
009F10000000
00CD00000000
00EA00000000
02F600000000
05F300000000
08F100000000
ENDCHAR
STARTCHAR uni0180
ENCODING 384
SWIDTH 600 0
DWIDTH 12 0
BBX 11 14 0 0
BITMAP
0008F0000000
000AC0000000
05EFFFFFE000
002F60000000
005F30000000
008E18DEC500
00BEA512AF30
00EA00001F90
02F500000DB0
05F200000E90
08E000004F50
0CC00001DC00
0EE9204DD200
3F28DFD81000
ENDCHAR
STARTCHAR uni018A
ENCODING 394
SWIDTH 600 0
DWIDTH 12 0
BBX 12 13 0 0
BITMAP
0005BEFEB500
00BD5DB28F80
08D11F8008F3
0E603F5002F8
3F206F2000EA
3F309E0000EA
0EB0DB0001F9
0471F80004F5
0004F50009E1
0007F2002E90
000AE001CC10
000DB15DB100
001FFDA50000
ENDCHAR
STARTCHAR uni018F
ENCODING 399
SWIDTH 600 0
DWIDTH 12 0
BBX 11 13 1 0
BITMAP
0017BEFD7000
009D5117F600
00100000AE00
000000005F20
000000004F40
000000004F40
AFFFFFFFFF20
DA000000BE00
DA000001F900
DA000008F200
AE00003F8000
3F9117E80000
04CFEA400000
ENDCHAR
STARTCHAR uni0192
ENCODING 402
SWIDTH 600 0
DWIDTH 12 0
BBX 13 15 -1 -2
BITMAP
0000000019EEA0
00000000CC2140
00000005F20000
0000000BB00000
0000001F600000
00008FFFFFF100
000000BB000000
000001F6000000
000005F2000000
000009C0000000
00000E70000000
00004F30000000
00009C00000000
1316F400000000
4DEC5000000000
ENDCHAR
STARTCHAR uni0193
ENCODING 403
SWIDTH 600 0
DWIDTH 12 0
BBX 13 16 1 0
BITMAP
0000000007ED10
000000002F3100
000000005E0000
00006CEEDF1000
001CD5118F4000
01DC1000030000
09E20000000000
1F800000000000
6F300000000000
AE000000000000
BD0006FFFB0000
BD000000E80000
9F100002F40000
4F700006F10000
09F7114CC00000
006CEFC7100000
ENDCHAR
STARTCHAR Ohorn
ENCODING 416
SWIDTH 600 0
DWIDTH 12 0
BBX 13 16 0 0
BITMAP
00000000000880
00000000000AA0
00000000000D50
00004BEEB8A600
0008E6117F7000
007F30000BE000
02E8000006F300
08F1000004F500
0DB0000004F400
1F80000006F300
2F70000009E000
2F7000000DA000
1F8000005F3000
0BD00002E90000
03E9215DA00000
003BEEC6000000
ENDCHAR
STARTCHAR ohorn
ENCODING 417
SWIDTH 600 0
DWIDTH 12 0
BBX 12 13 0 0
BITMAP
00000000005B
00000000006D
0000000000B7
00029DFD9B60
004EA214ED00
02EA00005F50
09E100001F80
0EA000000F80
1F8000002F60
0F9000008E10
0CD00003F800
03F9216EA000
003BEEB50000
ENDCHAR
STARTCHAR Uhorn
ENCODING 431
SWIDTH 600 0
DWIDTH 12 0
BBX 14 16 1 0
BITMAP
000000000002D2
000000000002F3
000000000019D0
02F700000DE910
05F400001F7000
08F100004F4000
0BD000007F1000
0EA00000AD0000
2F700000DA0000
5F400001F70000
8F100004F30000
AD000007E00000
AD00000CA00000
7F10004F400000
1EB215E9000000
03BEEC60000000
ENDCHAR
STARTCHAR uhorn
ENCODING 432
SWIDTH 600 0
DWIDTH 12 0
BBX 13 14 1 0
BITMAP
00000000002C10
00000000003F20
00000000005E00
0000000003D900
09E00000AF9000
0CB00000DB0000
0F800001F80000
3F500003F50000
6F200006F20000
9E000009E00000
CC00000CB00000
DB00008F800000
AE314A4F500000
2CED812F200000
ENDCHAR
STARTCHAR uni01C2
ENCODING 450
SWIDTH 600 0
DWIDTH 12 0
BBX 10 18 1 -4
BITMAP
000002F600
000005F200
000009E000
00000CA000
00001F7000
00004F4000
1EEFFFFFF5
0000BB0000
0000F80000
AEFFFFFFA0
0007F10000
000AD00000
000DA00000
001F700000
003F400000
006F200000
009E000000
00CB000000
ENDCHAR
STARTCHAR uni01CD
ENCODING 461
SWIDTH 600 0
DWIDTH 12 0
BBX 12 17 -1 0
BITMAP
000000A5004C
0000004F58E3
00000008FE30
000000000000
00000009F800
0000003FC900
000000BA9B00
000004F27D00
00000CA06F00
00005F304F20
0000DB003F40
0007F3002F60
001EFFFFFF80
008F20000D90
02F800000CB0
0AE100000AD0
3F70000009F0
ENDCHAR
STARTCHAR uni01CE
ENCODING 462
SWIDTH 600 0
DWIDTH 12 0
BBX 10 15 1 0
BITMAP
0001C2005A
00007D3AD2
00000BFB10
0000000000
0000000000
0018DFD65E
02DC303BDC
0CC10001F9
5F400002F6
AD000005F3
DA000007F0
EA00000AC0
CD00002E90
6F7117AF60
07DFC62F30
ENDCHAR
STARTCHAR uni01CF
ENCODING 463
SWIDTH 600 0
DWIDTH 12 0
BBX 12 17 0 0
BITMAP
00000A5004C0
000004F58E30
0000008FE300
000000000000
000CFFFFFFF5
000000CC0000
000000E90000
000002F60000
000005F30000
000008F00000
00000BC00000
00000E900000
00002F700000
00005F400000
00007F100000
0000AD000000
2FFFFFFFE000
ENDCHAR
STARTCHAR uni01D0
ENCODING 464
SWIDTH 600 0
DWIDTH 12 0
BBX 9 15 2 0
BITMAP
0086002C20
003E56E500
0006FE4000
0000000000
0000000000
CFFFF50000
0007F10000
000AD00000
000DA00000
002F700000
005F400000
008F100000
00AE000000
007F413200
0009EEC500
ENDCHAR
STARTCHAR uni01D1
ENCODING 465
SWIDTH 600 0
DWIDTH 12 0
BBX 12 17 0 0
BITMAP
00000A5004C0
000004F58E30
0000008FE300
000000000000
00004BEEB400
0008E6117F40
007F30000BD0
02E8000006F3
08F1000004F5
0DB0000004F5
1F80000006F3
2F70000009F0
2F7000000DA0
1F8000005F40
0BD00002E900
03E9215DA000
003BEEC60000
ENDCHAR
STARTCHAR uni01D2
ENCODING 466
SWIDTH 600 0
DWIDTH 12 0
BBX 11 15 0 0
BITMAP
00003B000970
00000CA3CA00
000002EF8000
000000000000
000000000000
00029DFD7000
004EA214EA00
02EA00005F40
09E100001F80
0EA000000F80
1F8000002F60
0F9000008F20
0CD00003F800
03F9216EA000
003BEEB50000
ENDCHAR
STARTCHAR uni01D3
ENCODING 467
SWIDTH 600 0
DWIDTH 12 0
BBX 11 17 1 0
BITMAP
0000A5004C00
00004F58E300
000008FE3000
000000000000
02F700000DA0
05F400001F70
08F100004F40
0BD000007F10
0EA00000AD00
2F700000DA00
5F400001F700
8F100004F300
AD000007F000
AD00000CB000
7F10004F4000
1EB215E90000
03BEEC600000
ENDCHAR
STARTCHAR uni01D4
ENCODING 468
SWIDTH 600 0
DWIDTH 12 0
BBX 10 15 1 0
BITMAP
0004A00196
0000CA3DA0
00002EF800
0000000000
0000000000
09E00000AD
0CB00000DA
0F800001F7
3F500003F5
6F200006F2
9E000009E0
CC00000CB0
DB00008F80
AE314A4F50
2CED812F20
ENDCHAR
STARTCHAR uni01D5
ENCODING 469
SWIDTH 600 0
DWIDTH 12 0
BBX 11 18 1 0
BITMAP
00006FFFFB00
000000000000
0000B802D400
0000C702E300
000000000000
02F700000DA0
05F400001F70
08F100004F40
0BD000007F10
0EA00000AD00
2F700000DA00
5F400001F700
8F100004F300
AD000007F000
AD00000CB000
7F10004F4000
1EB215E90000
03BEEC600000
ENDCHAR
STARTCHAR uni01D6
ENCODING 470
SWIDTH 600 0
DWIDTH 12 0
BBX 10 16 1 0
BITMAP
0000AFFFF6
0000000000
0003E207C0
0004D208B0
0000000000
0000000000
09E00000AD
0CB00000DA
0F800001F7
3F500003F5
6F200006F2
9E000009E0
CC00000CB0
DB00008F80
AE314A4F50
2CED812F20
ENDCHAR
STARTCHAR uni01D7
ENCODING 471
SWIDTH 600 0
DWIDTH 12 0
BBX 11 19 1 0
BITMAP
00000001B300
0000001CB100
000000780000
0000B802D400
0000C702E300
000000000000
02F700000DA0
05F400001F70
08F100004F40
0BD000007F10
0EA00000AD00
2F700000DA00
5F400001F700
8F100004F300
AD000007F000
AD00000CB000
7F10004F4000
1EB215E90000
03BEEC600000
ENDCHAR
STARTCHAR uni01D8
ENCODING 472
SWIDTH 600 0
DWIDTH 12 0
BBX 10 17 1 0
BITMAP
0000000580
0000003E40
000000A300
0003E207C0
0004D208B0
0000000000
0000000000
09E00000AD
0CB00000DA
0F800001F7
3F500003F5
6F200006F2
9E000009E0
CC00000CB0
DB00008F80
AE314A4F50
2CED812F20
ENDCHAR
STARTCHAR uni01D9
ENCODING 473
SWIDTH 600 0
DWIDTH 12 0
BBX 11 19 1 0
BITMAP
00001C418800
000004EE7000
000000000000
0000B802D400
0000C702E300
000000000000
02F700000DA0
05F400001F70
08F100004F40
0BD000007F10
0EA00000AD00
2F700000DA00
5F400001F700
8F100004F300
AD000007F000
AD00000CB000
7F10004F4000
1EB215E90000
03BEEC600000
ENDCHAR
STARTCHAR uni01DA
ENCODING 474
SWIDTH 600 0
DWIDTH 12 0
BBX 10 17 1 0
BITMAP
00006912A5
000009ED40
0000000000
0003E207C0
0004D208B0
0000000000
0000000000
09E00000AD
0CB00000DA
0F800001F7
3F500003F5
6F200006F2
9E000009E0
CC00000CB0
DB00008F80
AE314A4F50
2CED812F20
ENDCHAR
STARTCHAR uni01DB
ENCODING 475
SWIDTH 600 0
DWIDTH 12 0
BBX 11 19 1 0
BITMAP
000007800000
000003E20000
000000680000
0000B802D400
0000C702E300
000000000000
02F700000DA0
05F400001F70
08F100004F40
0BD000007F10
0EA00000AD00
2F700000DA00
5F400001F700
8F100004F300
AD000007F000
AD00000CB000
7F10004F4000
1EB215E90000
03BEEC600000
ENDCHAR
STARTCHAR uni01DC
ENCODING 476
SWIDTH 600 0
DWIDTH 12 0
BBX 10 17 1 0
BITMAP
0000095000
000006C000
000000A200
0003E207C0
0004D208B0
0000000000
0000000000
09E00000AD
0CB00000DA
0F800001F7
3F500003F5
6F200006F2
9E000009E0
CC00000CB0
DB00008F80
AE314A4F50
2CED812F20
ENDCHAR
STARTCHAR uni01E2
ENCODING 482
SWIDTH 600 0
DWIDTH 12 0
BBX 15 16 -2 0
BITMAP
0000000008FFFF90
0000000000000000
0000000000000000
000000009FFFFFD0
00000003FCC00000
0000000CABA00000
0000006E2E700000
000001E72F500000
00000AD05F200000
00004F508FFFE000
0000DB00BA000000
0007FFFFF7000000
002E6003F4000000
00BC0006F1000000
05F40009D0000000
1DA0000BFFFFA000
ENDCHAR
STARTCHAR uni01E3
ENCODING 483
SWIDTH 600 0
DWIDTH 12 0
BBX 13 13 -1 0
BITMAP
000004FFFFD000
00000000000000
00000000000000
005AEEA03BEC20
008612D9D51AA0
0000009F5005E0
000001AC0005E0
0028DEFD999CC0
06E930F8666630
2F6001F3000000
6F1003F5000000
5F416CBC215500
0AED811AEEB400
ENDCHAR
STARTCHAR Gcaron
ENCODING 486
SWIDTH 600 0
DWIDTH 12 0
BBX 11 17 1 0
BITMAP
00003A001A50
00000CB4D900
000002EF8000
000000000000
00006CEEC500
001CD5118F30
01DC10000300
09E200000000
1F8000000000
6F3000000000
AE0006FFFB00
BD000000E800
BD000001F500
9F100004F200
4F700007E000
09F7115DA000
006CEEC60000
ENDCHAR
STARTCHAR gcaron
ENCODING 487
SWIDTH 600 0
DWIDTH 12 0
BBX 11 19 0 -4
BITMAP
00001C2005A0
000007D3AD20
000000BFB100
000000000000
000000000000
00018DFD65E0
002DC303CDB0
00CC10001F80
05F400002F50
0AD000005F20
0DB000008E00
0DB00000AB00
0AE10005E800
03EC66A8F500
0028A824F200
00000008E000
0000001D8000
5C4114CC1000
28DFEC710000
ENDCHAR
STARTCHAR uni01EA
ENCODING 490
SWIDTH 600 0
DWIDTH 12 0
BBX 12 17 0 -4
BITMAP
00004BEEB400
0008E6117F40
007F30000BD0
02E8000006F3
08F1000004F5
0DB0000004F5
1F80000006F3
2F70000009F0
2F7000000DA0
1F8000005F40
0BD00002EA00
03E9215DB100
003BFFC60000
0006A3000000
003D00000000
008C12000000
003DEA000000
ENDCHAR
STARTCHAR uni01EB
ENCODING 491
SWIDTH 600 0
DWIDTH 12 0
BBX 11 14 0 -4
BITMAP
00018DFD8100
003EA214EA00
01EA00005F40
09E100001F80
0EA000000F80
1F8000002F60
0F9000008F20
0CD00003F800
04F9216EA100
004CFFD60000
0006B3000000
003C00000000
008C12000000
003DEB000000
ENDCHAR
STARTCHAR uni01F4
ENCODING 500
SWIDTH 600 0
DWIDTH 12 0
BBX 11 17 1 0
BITMAP
000000007900
0000003CE600
000000A81000
000000000000
00006CEEC500
001CD5118F30
01DC10000300
09E200000000
1F8000000000
6F3000000000
AE0006FFFB00
BD000000E800
BD000001F500
9F100004F200
4F700007E000
09F7115DA000
006CEEC60000
ENDCHAR
STARTCHAR uni01F5
ENCODING 501
SWIDTH 600 0
DWIDTH 12 0
BBX 11 20 0 -4
BITMAP
000000002B10
00000003ED20
0000004EB100
000000880000
000000000000
000000000000
00018DFD65E0
002DC303CDB0
00CC10001F80
05F400002F50
0AD000005F20
0DB000008E00
0DB00000AB00
0AE10005E800
03EC66A8F500
0028A824F200
00000008E000
0000001D8000
5C4114CC1000
28DFEC710000
ENDCHAR
STARTCHAR uni01F8
ENCODING 504
SWIDTH 600 0
DWIDTH 12 0
BBX 12 18 0 0
BITMAP
000002A00000
000005F90000
0000006F5000
000000078000
000000000000
000ED00000E9
003FF30001F6
006EC80004F3
009B8C0007E0
00C94F200AC0
00F70E700E90
03F409C01F60
06F104F24F30
09D000E67E00
0CA000AA9C00
0F70005EB900
3F40000EF500
6F10000AF200
ENDCHAR
STARTCHAR uni01F9
ENCODING 505
SWIDTH 600 0
DWIDTH 12 0
BBX 11 16 0 0
BITMAP
000002B20000
000002EB0000
0000004F6000
00000006A000
000000000000
000000000000
007D03AEEA00
00AB79316F60
00CE50000F90
01F700001F80
03F400004F50
06F100007F20
09D00000AE00
0CB00000DB00
0F800001F800
3F500003F500
ENDCHAR
STARTCHAR Aringacute
ENCODING 506
SWIDTH 600 0
DWIDTH 12 0
BBX 12 20 -1 0
BITMAP
000000000010
0000000005E4
000000009E40
0000000A23B0
0000000E26B0
00000008EC30
000000000000
00000009F800
0000003EB900
000000B88B00
000004F17D00
00000C906F00
00005F204F20
0000DA003F40
0007F3002F60
001EFFFFFF80
008F20000D90
02F800000CB0
0AE100000AD0
3F70000009F0
ENDCHAR
STARTCHAR aringacute
ENCODING 507
SWIDTH 600 0
DWIDTH 12 0
BBX 10 17 1 0
BITMAP
00000003A0
0000006D50
000008FE50
00004C16B0
00006B1890
00001CEB10
0000000000
0018DFD65E
02DC303CDC
0CC10001F9
5F400002F6
AD000005F3
DA000008F0
EA00000BC0
CD00004F90
6F7128AF60
07DFC62F30
ENDCHAR
STARTCHAR AEacute
ENCODING 508
SWIDTH 600 0
DWIDTH 12 0
BBX 15 17 -2 0
BITMAP
0000000000001960
000000000004DD40
00000000001C6000
0000000000000000
000000009FFFFFD0
00000003FCC00000
0000000CABA00000
0000006E2E700000
000001E72F500000
00000AD05F200000
00004F508FFFE000
0000DB00BA000000
0007FFFFF7000000
002E6003F4000000
00BC0006F1000000
05F40009D0000000
1DA0000BFFFFA000
ENDCHAR
STARTCHAR aeacute
ENCODING 509
SWIDTH 600 0
DWIDTH 12 0
BBX 13 16 -1 0
BITMAP
00000000059000
000000006FB000
00000007F80000
0000000B400000
00000000000000
00000000000000
005AEEA03BEC20
008612D9D51AA0
0000009F5005E0
000001AC0005E0
0028DEFD999CC0
06E930F8666630
2F6001F3000000
6F1003F5000000
5F416CBC215500
0AED811AEEB400
ENDCHAR
STARTCHAR Oslashacute
ENCODING 510
SWIDTH 600 0
DWIDTH 12 0
BBX 14 18 -1 -1
BITMAP
0000000002B300
000000007FB200
00000003C40000
00000000000040
000004BEEC45F4
00008E6119FF70
0007F30003FE00
002E70002EDF30
008F1001DB4F40
00DB001CC14F50
01F700BD105F30
02F60AE2008F00
02F68E3000DA00
01FDF40005F400
00BF50001D9000
04FFB215DA0000
1E82BEEC600000
04000000000000
ENDCHAR
STARTCHAR oslashacute
ENCODING 511
SWIDTH 600 0
DWIDTH 12 0
BBX 12 17 0 -1
BITMAP
000000005900
00000006FB00
0000007F8000
000000B40000
000000000000
000000000020
00018DFD85F4
004E9215EF70
02E90007FF40
09E1008F5F70
0E9009E40E80
1F70AE301F60
0F9BD2007F20
0CFD2002E800
2DFA215DA000
BB4BEEB50000
200000000000
ENDCHAR
STARTCHAR uni0218
ENCODING 536
SWIDTH 600 0
DWIDTH 12 0
BBX 11 18 0 -5
BITMAP
00005CFEC600
0007F6128F70
001E90000400
002F70000000
000DD2000000
0004EE700000
00002BFD3000
0000005EE200
00000003F800
00000000EA00
19300003F700
0CE6114DC100
007CEEC71000
000000000000
0001DA000000
00003F400000
00017E100000
005EA3000000
ENDCHAR
STARTCHAR uni0219
ENCODING 537
SWIDTH 600 0
DWIDTH 12 0
BBX 10 15 1 -5
BITMAP
003AEFD920
02E8114BE1
06F1000020
04F9100000
007FEA4000
00017DFA00
0000007F50
2200000F70
9E72018E20
06BEFDA300
0000000000
001DA10000
0003F40000
0017E20000
05EA300000
ENDCHAR
STARTCHAR uni021A
ENCODING 538
SWIDTH 600 0
DWIDTH 12 0
BBX 11 18 2 -5
BITMAP
EFFFFFFFFF50
0000CB000000
0000F9000000
0003F6000000
0006F3000000
0009F0000000
000CC0000000
000E90000000
002F60000000
005F30000000
008F00000000
00BC00000000
00E900000000
000000000000
08C400000000
01AB00000000
13D800000000
CC7000000000
ENDCHAR
STARTCHAR uni021B
ENCODING 539
SWIDTH 600 0
DWIDTH 12 0
BBX 10 18 1 -5
BITMAP
0000A90000
0000E60000
0004F30000
6EFFFFFFFB
000CB00000
000F800000
003F500000
006F200000
009E000000
00BC000000
00BC000000
008F512720
0019EEDA30
0000000000
0001E90000
00004F3000
00028E1000
005EA20000
ENDCHAR
STARTCHAR uni0237
ENCODING 567
SWIDTH 600 0
DWIDTH 12 0
BBX 10 14 -1 -4
BITMAP
0004FFFFFC
00000000F9
00000003F6
00000006F3
00000009E0
0000000CC0
0000000E90
0000002F60
0000005F30
0000008E00
000000CB00
000003F600
08213DB000
2ADFD81000
ENDCHAR
STARTCHAR uni0243
ENCODING 579
SWIDTH 600 0
DWIDTH 12 0
BBX 11 13 0 0
BITMAP
0009FFFEC600
000CA0028F70
000F80000CD0
003F50000BD0
006F20001E80
009F0014CB10
00BFFFFF8000
00E90014DB00
02F600003F50
DFFFFF302F60
09E000007F20
0CB00038F700
1FFFFECA4000
ENDCHAR
STARTCHAR uni0250
ENCODING 592
SWIDTH 600 0
DWIDTH 12 0
BBX 10 10 1 0
BITMAP
08B06CEE90
0BBB7205F6
0EC20000F8
2F600007F3
5F3247CE50
8FEDB95100
AD00000000
AD00000100
6F6114AE10
07DFEC8300
ENDCHAR
STARTCHAR uni0251
ENCODING 593
SWIDTH 600 0
DWIDTH 12 0
BBX 10 10 1 0
BITMAP
0018DFD65E
02DC303BDC
0CC10001F9
5F400002F6
AD000005F3
DA000007F0
EA00000AC0
CD00002E90
6F7117AF60
07DFC62F30
ENDCHAR
STARTCHAR uni0252
ENCODING 594
SWIDTH 600 0
DWIDTH 12 0
BBX 11 10 0 0
BITMAP
007D07DEC400
00ADA612BF20
00CC10001F80
01F700000DA0
03F400000DA0
06F200001F80
09E000007F30
0CC00002EA00
0FD9214DC100
3F17DFD70000
ENDCHAR
STARTCHAR uni0253
ENCODING 595
SWIDTH 600 0
DWIDTH 12 0
BBX 11 14 0 0
BITMAP
00003BEE8000
0003F7112000
000BB0000000
001F50000000
005F27DEC400
008EA512BF20
00BC10001F80
00E600000DA0
02F400000DA0
05F100001F80
08E000007F30
0BD00001EA00
0EDA214DC100
3F27DFD70000
ENDCHAR
STARTCHAR uni0254
ENCODING 596
SWIDTH 600 0
DWIDTH 12 0
BBX 11 10 0 0
BITMAP
0018DFEB4000
00CB3029F500
00100000BE00
000000006F30
000000005F30
000000007F10
00000000DB00
01000008F300
3F7103AE5000
05CEFD920000
ENDCHAR
STARTCHAR uni0255
ENCODING 597
SWIDTH 600 0
DWIDTH 12 0
BBX 11 12 0 -2
BITMAP
00005BEFD710
000AE6115D90
009E20000110
02F600000000
07E000000000
09D000000000
09E017CFD500
05F7DA309B00
00BFB203D700
01E9CEEC6000
0AB000000000
1C3000000000
ENDCHAR
STARTCHAR uni0256
ENCODING 598
SWIDTH 600 0
DWIDTH 12 0
BBX 11 18 1 -4
BITMAP
000000000AE0
000000000DB0
000000001F80
000000004F50
0018DFD67F20
02DC303BEE00
0CC10001FB00
5F400002F800
AD000005F500
DA000007F200
EA00000AE000
CD00002EB000
6F7117AF8000
07DFC55F5000
0000008F2000
000000AE0000
000000AE1000
0000004EE400
ENDCHAR
STARTCHAR uni0257
ENCODING 599
SWIDTH 600 0
DWIDTH 12 0
BBX 13 14 1 0
BITMAP
0000000001AEB0
000000000AD110
000000001F7000
000000004F4000
0018DFD67F1000
02DC303BED0000
0CC10001FA0000
5F400002F70000
AD000005F40000
DA000007F10000
EA00000AD00000
CD00002EA00000
6F7127AF600000
07DEC61F300000
ENDCHAR
STARTCHAR uni0258
ENCODING 600
SWIDTH 600 0
DWIDTH 12 0
BBX 10 10 1 0
BITMAP
0029DFD810
04EA314DC0
1E900004F4
6F100001F8
7FFFFFFFF8
00000004F6
00000009F2
0000004F90
7C4116EB10
29DFEB6000
ENDCHAR
STARTCHAR uni0259
ENCODING 601
SWIDTH 600 0
DWIDTH 12 0
BBX 10 10 1 0
BITMAP
016BEFEA20
03D6113CD1
00000002F6
00000000E9
BFFFFFFFF9
D8000004F7
E800000AF2
BC00004F90
4F8116EB10
04CFEC6000
ENDCHAR
STARTCHAR uni025A
ENCODING 602
SWIDTH 600 0
DWIDTH 12 0
BBX 14 10 -1 0
BITMAP
0028CEEA200000
0038314EC00000
00000006F7A900
00000039FD9D11
00017CEBF51DE5
05AEA506F20000
1F91000BC00000
0E70004F300000
08E414E7000000
009EFC50000000
ENDCHAR
STARTCHAR uni025B
ENCODING 603
SWIDTH 600 0
DWIDTH 12 0
BBX 10 10 1 0
BITMAP
0039DFEC70
03EA2016E7
08F1000010
04F7100000
029FFFA000
4E82100000
CB00000000
DC00000000
7F92015C30
05CEFEC710
ENDCHAR
STARTCHAR uni025C
ENCODING 604
SWIDTH 600 0
DWIDTH 12 0
BBX 10 10 1 0
BITMAP
017BDFEA30
03B5203CE1
00000006F2
0000015D90
000DFFF700
0000028F60
0000000DB0
2000001EA0
CC5103BE30
28CEED8200
ENDCHAR
STARTCHAR uni025E
ENCODING 606
SWIDTH 600 0
DWIDTH 12 0
BBX 11 10 0 0
BITMAP
00018CEEB400
003EB412AF30
02EB00004F50
09E20014CC10
0EA009FFA000
1F800016F900
0F900000AE00
0BD10000CD00
03EC3129F400
0019EFDA3000
ENDCHAR
STARTCHAR uni025F
ENCODING 607
SWIDTH 600 0
DWIDTH 12 0
BBX 13 14 -1 -4
BITMAP
0004FFFFFC0000
00000000F90000
00000002F70000
00000004F40000
00000007F20000
0006EEFFFFFF10
0000000DA00000
0000001F700000
0000004F400000
0000007F100000
000000BC000000
000002F7000000
08213CC0000000
2ADFD810000000
ENDCHAR
STARTCHAR uni0260
ENCODING 608
SWIDTH 600 0
DWIDTH 12 0
BBX 14 16 0 -4
BITMAP
00000000004CF5
0000000001E810
00018DFC56F100
002DC403CDD000
00CD10001FA000
05F500002F6000
0AE000005F3000
0DB000007F0000
0DB00000AC0000
0BD00001D90000
05F8116BF60000
006DFD74F30000
00000007E00000
0000001D900000
5C4114CC100000
28DFEC71000000
ENDCHAR
STARTCHAR uni0261
ENCODING 609
SWIDTH 600 0
DWIDTH 12 0
BBX 11 14 0 -4
BITMAP
00018DFD65E0
002DC303CDB0
00CC10001F80
05F400002F50
0AD000005F20
0DB000008E00
0DB00000AB00
0AE10005E800
03EC66A8F500
0028A824F200
00000008E000
0000001D8000
5C4114CC1000
28DFEC710000
ENDCHAR
STARTCHAR uni0262
ENCODING 610
SWIDTH 600 0
DWIDTH 12 0
BBX 10 10 1 0
BITMAP
0006BEFD81
01BD5115D8
0BE2000010
4F60000000
9E00000000
BC000CFFF2
BE000007E0
7F40000AB0
0BD5115E80
007DFEB600
ENDCHAR
STARTCHAR uni0263
ENCODING 611
SWIDTH 600 0
DWIDTH 12 0
BBX 11 14 1 -4
BITMAP
2F6000004F50
0DA00000DA00
09D00008E100
05F2003F5000
01F600CB0000
00C906E20000
008D1E600000
004FBB000000
002FF3000000
00ACF5000000
04F3C8000000
0AA0B8000000
0BA2E5000000
05EE80000000
ENDCHAR
STARTCHAR uni0264
ENCODING 612
SWIDTH 600 0
DWIDTH 12 0
BBX 10 10 2 0
BITMAP
CFC403AEE2
21AF8F8120
001EF80000
01BDDD0000
0BD13F7000
7F200CC000
DA000AC000
F7000D8000
DC12AD1000
3BEE910000
ENDCHAR
STARTCHAR uni0265
ENCODING 613
SWIDTH 600 0
DWIDTH 12 0
BBX 10 14 1 -4
BITMAP
09E00000AE
0CB00000CB
0F800000F8
3F500003F5
6F200006F2
9E000008E0
CC00000BB0
DB00008F80
AE314A6F50
2CED816F20
0000009E00
000000CB00
000000F800
000003F500
ENDCHAR
STARTCHAR uni0266
ENCODING 614
SWIDTH 600 0
DWIDTH 12 0
BBX 11 14 0 0
BITMAP
00003BEE8000
0003F8112000
000BB0000000
001F50000000
005F23AEE900
008D79316F60
00BE50000F80
00E700001F70
02F400004F40
05F100007F10
08D00000AE00
0BA00000DB00
0E800001F800
3F500003F500
ENDCHAR
STARTCHAR uni0267
ENCODING 615
SWIDTH 600 0
DWIDTH 12 0
BBX 11 18 0 -4
BITMAP
00003BEE8000
0003F8112000
000BB0000000
001F50000000
005F23AEE900
008D79316F50
00BE50000F80
00E700001F70
02F400004F50
05F100006F20
08D000009E00
0BA00000CB00
0E800000E800
3F500002F500
00000005F200
00000008D000
0000012E8000
00001EE91000
ENDCHAR
STARTCHAR uni0268
ENCODING 616
SWIDTH 600 0
DWIDTH 12 0
BBX 9 14 1 0
BITMAP
00001DD200
00002DC100
0000000000
0000000000
0CFFFF5000
00007F1000
0000AD0000
0000D90000
3EFFFFFF90
0005F20000
0008E00000
000AE00000
0007F51320
00009EEC50
ENDCHAR
STARTCHAR uni026A
ENCODING 618
SWIDTH 600 0
DWIDTH 12 0
BBX 11 10 0 0
BITMAP
006FFFFFFF90
000007F20000
000009E00000
00000CC00000
00000F900000
00002F700000
00005F400000
00008F100000
0000AE000000
1FFFFFFFD000
ENDCHAR
STARTCHAR uni026B
ENCODING 619
SWIDTH 600 0
DWIDTH 12 0
BBX 8 14 2 0
BITMAP
1FFFFB00
0001F700
0004F400
0007F100
000AD000
057FA043
8CAFB1D4
D25FFE80
008F0000
00BC0000
00E90000
01F70000
00DB1150
003CFEB1
ENDCHAR
STARTCHAR uni026C
ENCODING 620
SWIDTH 600 0
DWIDTH 12 0
BBX 9 14 1 0
BITMAP
01FFFFB000
00001F7000
00003F4000
00006F1000
00008D0000
1CE9BA0000
4E26F70000
09EFFFFF10
0008F10000
000BC00000
000E900000
001F700000
000DB11500
0004CFEB10
ENDCHAR
STARTCHAR uni026D
ENCODING 621
SWIDTH 600 0
DWIDTH 12 0
BBX 7 18 2 -4
BITMAP
1FFFFB00
0001F800
0004F500
0007F200
000AE000
000DA000
001F7000
004F4000
007F1000
00BD0000
00EA0000
02F70000
05F40000
08F10000
0BD00000
0BC00000
08E31420
01AEEC40
ENDCHAR
STARTCHAR uni026E
ENCODING 622
SWIDTH 600 0
DWIDTH 12 0
BBX 12 18 0 -4
BITMAP
000CA0000000
001F70000000
003F40000000
007F10000000
00AFFFFFFFF7
00D800001DB0
01F60001CC10
04F3000BD100
07F0009E2000
0AC008E40000
0D904FFFC300
1F600203DD00
4F4000006F30
7F1000005F20
000000008E00
00100002E700
01E8204DA000
004BEFC60000
ENDCHAR
STARTCHAR uni026F
ENCODING 623
SWIDTH 600 0
DWIDTH 12 0
BBX 12 10 0 0
BITMAP
05F302F500F7
08F105F203F5
0BC008E006F2
0EA00BB009E0
2F700E800BB0
5F401F500E80
8F104F202F50
AD009E006F20
BE16CF25CE00
5ED53EE77B00
ENDCHAR
STARTCHAR uni0270
ENCODING 624
SWIDTH 600 0
DWIDTH 12 0
BBX 12 14 0 -4
BITMAP
05F303F501F7
08F006F204F4
0BC008E006F1
0E900BB009D0
2F600E800CA0
5F302F500F70
8F105F203F40
BD009E007F10
BD17CE15DD00
6ED53ED6BA00
00000000E700
00000002F400
00000005F100
00000008D000
ENDCHAR
STARTCHAR uni0271
ENCODING 625
SWIDTH 600 0
DWIDTH 12 0
BBX 12 14 0 -4
BITMAP
02F2AEA19EC1
05F927FA36F5
08E106F304F4
0BB008D007F2
0E800BA009E0
2F500E800CB0
5F302F500F80
8F005F203F50
BC008E005F20
E900BB008E00
00000000BB00
00000000E800
00000015F200
000002EE7000
ENDCHAR
STARTCHAR uni0272
ENCODING 626
SWIDTH 600 0
DWIDTH 12 0
BBX 13 14 -2 -4
BITMAP
00007D03AEEA00
00009B79316F60
0000CE50000F90
0000F700001F80
0003F400004F50
0005F100007F20
0008E00000AE00
000BB00000DB00
000E800001F800
001F500003F500
004F2000000000
007E0000000000
11D80000000000
9EA10000000000
ENDCHAR
STARTCHAR uni0273
ENCODING 627
SWIDTH 600 0
DWIDTH 12 0
BBX 11 14 0 -4
BITMAP
005A03AEE900
009B79316F60
00CE50000F80
00F700001F80
03F400004F60
06F100007F30
09D000009F00
0CB00000CC00
0F800000F900
3F500003F600
00000006F300
00000008F100
00000008F200
00000003DF50
ENDCHAR
STARTCHAR uni0274
ENCODING 628
SWIDTH 600 0
DWIDTH 12 0
BBX 10 10 1 0
BITMAP
03FA0002F5
05FF1005F3
08DE7008E0
0BA9D00AC0
0E83F40D90
2F50CA1F60
5F306F4F30
8F001ECF10
BC0008FD00
D90002FA00
ENDCHAR
STARTCHAR uni0275
ENCODING 629
SWIDTH 600 0
DWIDTH 12 0
BBX 11 10 0 0
BITMAP
00029DFD7000
004E9314DA00
02E700004F40
09D000000F80
0EFFFFFFFF80
1F6000003F60
0F8000008F20
0CD00003F800
03F9216EA000
003BEEB50000
ENDCHAR
STARTCHAR uni0276
ENCODING 630
SWIDTH 600 0
DWIDTH 12 0
BBX 13 10 0 0
BITMAP
0018DFFFFFFF60
02EB307F444410
0DC0009E000000
6F4000BA000000
BC0000EFFFC000
DA0002F4000000
DA0005F2000000
BC0007E0000000
5F811BC0000000
05CEFFFFFFD000
ENDCHAR
STARTCHAR uni0278
ENCODING 632
SWIDTH 600 0
DWIDTH 12 0
BBX 12 18 0 -4
BITMAP
0000002F7000
0000006F3000
0000009F0000
000000CC0000
0004AEFEA200
00AE65F7AE20
08E308F20DB0
2F800BE008F1
6F200EB007F1
8F001F8009E0
8F204F501EA0
4F607F108F30
09E5BD19F500
007DFFE92000
0002F7000000
0005F4000000
0008F1000000
000CC0000000
ENDCHAR
STARTCHAR uni0279
ENCODING 633
SWIDTH 600 0
DWIDTH 12 0
BBX 10 10 0 0
BITMAP
00000000CB
00000000E8
00000002F5
00000004F2
00000007E0
00000009C0
0000003E90
0000038F60
0412793F30
2DFD604F00
ENDCHAR
STARTCHAR uni027A
ENCODING 634
SWIDTH 600 0
DWIDTH 12 0
BBX 11 14 0 0
BITMAP
000000000BC0
000000000E90
000000002F60
000000005F20
000000008E00
00000000CB00
00000000E800
00000003F400
00000006F100
00000009D000
0000002EA000
0000028F7000
03027A3F3000
2DFD604F0000
ENDCHAR
STARTCHAR uni027B
ENCODING 635
SWIDTH 600 0
DWIDTH 12 0
BBX 9 14 0 -4
BITMAP
0000003F50
0000005F20
0000008E00
000000BC00
000000D900
000001F600
000003F300
00000BF100
04129BD000
2DEB3CA000
00000E7000
00002F5000
00001F7120
000009ED40
ENDCHAR
STARTCHAR uni027D
ENCODING 637
SWIDTH 600 0
DWIDTH 12 0
BBX 10 14 1 -4
BITMAP
003F118DEB
006E1A5113
009C810000
00CD100000
00F6000000
03F4000000
06F1000000
09E0000000
0BB0000000
0E80000000
2F70000000
1F80000000
0DD2154000
03CEEB4000
ENDCHAR
STARTCHAR uni027E
ENCODING 638
SWIDTH 600 0
DWIDTH 12 0
BBX 9 10 2 0
BITMAP
0006CEFEB0
009E620240
04F4000000
0AC0000000
0E80000000
2F50000000
5F20000000
8E00000000
BC00000000
E900000000
ENDCHAR
STARTCHAR uni0280
ENCODING 640
SWIDTH 600 0
DWIDTH 12 0
BBX 10 10 1 0
BITMAP
00BFFFEC40
00E8002CE1
02F60006F3
05F30008F1
08F1016F70
0BFFFFD600
0E900BB000
1F6005F200
4F3000E900
7F10009E10
ENDCHAR
STARTCHAR uni0281
ENCODING 641
SWIDTH 600 0
DWIDTH 12 0
BBX 10 10 1 0
BITMAP
06F30007F1
01E9000AD0
008E100DB0
002F501F80
019FFFFF50
1DC3007F20
7F20009E00
9F0000CB00
6F7100E800
08DFFFF500
ENDCHAR
STARTCHAR uni0282
ENCODING 642
SWIDTH 600 0
DWIDTH 12 0
BBX 11 14 0 -4
BITMAP
0003AEFD9200
002E8114BE10
006F10000200
004F91000000
0007FEA40000
000017DFA000
00000007F500
02200000F700
0DE72018E200
2F7ADFDA3000
5F1000000000
7F0000000000
6F2100000000
1BF900000000
ENDCHAR
STARTCHAR uni0283
ENCODING 643
SWIDTH 600 0
DWIDTH 12 0
BBX 14 18 -1 -4
BITMAP
000000002AEEA3
00000001DA1172
00000006F10000
0000000AD00000
0000000DA00000
0000001F600000
0000004F300000
0000007F100000
000000AC000000
000000D9000000
000001F6000000
000004F3000000
000007F1000000
00000BC0000000
00000E90000000
00002F50000000
0721AD10000000
2AEEB200000000
ENDCHAR
STARTCHAR uni0284
ENCODING 644
SWIDTH 600 0
DWIDTH 12 0
BBX 14 18 -1 -4
BITMAP
000000003BEEA3
00000001EA1172
00000007F10000
0000000BC00000
0000000E900000
0000002F600000
0000005F300000
0000009E000000
003EEFFFFFF400
000000F8000000
000003F5000000
000006F2000000
000009E0000000
00000BC0000000
00000E90000000
00003F40000000
0721AC00000000
2AEEA200000000
ENDCHAR
STARTCHAR uni0287
ENCODING 647
SWIDTH 600 0
DWIDTH 12 0
BBX 10 13 0 -3
BITMAP
006CEFD500
006511AF20
0000003F50
0000003F50
0000005F30
0000008F00
000000BC00
000000E900
000002F600
2FFFFFFFEE
000009D000
00000C8000
00001F4000
ENDCHAR
STARTCHAR uni0288
ENCODING 648
SWIDTH 600 0
DWIDTH 12 0
BBX 10 17 1 -4
BITMAP
0000A90000
0000E60000
0004F30000
6EFFFFFFFB
000CB00000
000F800000
003F500000
006F200000
008E000000
00BC000000
00E9000000
02F6000000
05F3000000
07F1000000
06F2000000
03F9115500
005DFEB500
ENDCHAR
STARTCHAR uni0289
ENCODING 649
SWIDTH 600 0
DWIDTH 12 0
BBX 12 10 0 0
BITMAP
001F70003F50
004F40006F20
006F20008F00
009E0000BC00
8EFFFFFFFFF5
00F80002F600
03F50005F300
05F3001BF000
04F8139CC000
009EE80B9000
ENDCHAR
STARTCHAR uni028A
ENCODING 650
SWIDTH 600 0
DWIDTH 12 0
BBX 11 10 1 0
BITMAP
1FFF806FFF20
009B102E4000
06E10009B000
1E700006F000
7F100006F100
AD000008E000
BC00000E9000
9E10007E2000
3FA118F50000
04CFEA300000
ENDCHAR
STARTCHAR uni028B
ENCODING 651
SWIDTH 600 0
DWIDTH 12 0
BBX 10 10 1 0
BITMAP
09E001EE90
0CB00006F5
0F800000F8
3F500000F8
6F200002F6
9E000007F2
BC00000DB0
BE00008E20
5F8118E500
05CEEA3000
ENDCHAR
STARTCHAR uni028C
ENCODING 652
SWIDTH 600 0
DWIDTH 12 0
BBX 10 10 0 0
BITMAP
000007FC00
00001EBE00
00009C3F30
0003F40F60
000CA00CA0
006F2009D0
01E80006F1
09E10003F5
3F600000E8
BC000000BB
ENDCHAR
STARTCHAR uni028D
ENCODING 653
SWIDTH 600 0
DWIDTH 12 0
BBX 12 10 -1 0
BITMAP
0001EF300CF7
0006DF303EE7
000C8F309AD7
003F3F41E4E8
009C0E46D0E8
01E60E4C70D9
06E10D7F10D9
0C900DC900D9
4F300CF300DA
AD00056000DA
ENDCHAR
STARTCHAR uni028E
ENCODING 654
SWIDTH 600 0
DWIDTH 12 0
BBX 13 14 0 0
BITMAP
0000000019EE60
00000001DA2110
0000000AD00000
0000005F400000
000001EA000000
00000AF9000000
00004F7D000000
0001D82F200000
0008D10E600000
003F500BA00000
00CB0007E00000
07E20004F30000
2F700000F70000
BD000000BB0000
ENDCHAR
STARTCHAR uni028F
ENCODING 655
SWIDTH 600 0
DWIDTH 12 0
BBX 10 10 2 0
BITMAP
AE10000CC1
4F60008E20
0DB005F400
07F22E6000
01E7C90000
009FB00000
006F300000
009F100000
00BD000000
00EA000000
ENDCHAR
STARTCHAR uni0290
ENCODING 656
SWIDTH 600 0
DWIDTH 12 0
BBX 11 14 0 -4
BITMAP
009FFFFFFF90
00000002DC10
0000001DD100
000001CD2000
00000BE20000
0000AE300000
0009F4000000
008F50000000
06F700000000
3FFFFFFFF600
00000006F300
00000008F100
00000007F310
00000001CF80
ENDCHAR
STARTCHAR uni0291
ENCODING 657
SWIDTH 600 0
DWIDTH 12 0
BBX 12 12 0 -2
BITMAP
009FFFFFFF60
00000003EA00
0000002EB000
000001DC1000
00001CD10000
0000BD200000
000AE201AEC1
009E301C71E3
07F5009916C0
3FFFFFFFEA20
00000C600000
00003D000000
ENDCHAR
STARTCHAR uni0292
ENCODING 658
SWIDTH 600 0
DWIDTH 12 0
BBX 12 14 -1 -4
BITMAP
0003FFFFFFF9
000000003EC1
00000003EB10
0000003EB100
000004EA0000
00004E900000
0002EFFE9100
00004115EC00
000000007F30
000000005F30
000000007E10
03000002E800
1EA3116E9000
039DFEB50000
ENDCHAR
STARTCHAR uni0294
ENCODING 660
SWIDTH 600 0
DWIDTH 12 0
BBX 9 14 2 0
BITMAP
029DEEC500
2FA3118F60
0300000CD0
0000000BE0
0000001EA0
0000009F30
00002BF600
0018ED4000
006F600000
009E000000
00DB000000
01F8000000
04F5000000
07F2000000
ENDCHAR
STARTCHAR uni0295
ENCODING 661
SWIDTH 600 0
DWIDTH 12 0
BBX 10 14 2 0
BITMAP
0018DFEA30
02EB3129F4
0BD0000061
0F80000000
1F80000000
0DD0000000
06F9000000
009FA10000
0009F10000
0009D00000
000CA00000
001F700000
004F400000
007F100000
ENDCHAR
STARTCHAR uni0298
ENCODING 664
SWIDTH 600 0
DWIDTH 12 0
BBX 10 14 1 0
BITMAP
00018DFC40
002DB317F4
00CB0000CB
06F200008E
0DA000006F
3F5000007F
6F109E308E
9E00BD20BB
AC000000E8
AC000005F3
9D00000CB0
6F20006F30
0DB217F500
02AEEB3000
ENDCHAR
STARTCHAR uni0299
ENCODING 665
SWIDTH 600 0
DWIDTH 12 0
BBX 10 10 1 0
BITMAP
00DFFFFD60
01F7001AF2
04F40006F2
07F1014D90
09FFFFFA00
0CA0015F80
0F80000CB0
3F50000E90
6F2002AE20
9FFFFEA200
ENDCHAR
STARTCHAR uni029C
ENCODING 668
SWIDTH 600 0
DWIDTH 12 0
BBX 11 10 0 0
BITMAP
007F20000CB0
00AE00000E80
00DC00002F50
01FA00004F20
03F700006E00
06FFFFFFFB00
09F00000D800
0CC00002F500
0F800005F200
3F500008E000
ENDCHAR
STARTCHAR uni029D
ENCODING 669
SWIDTH 600 0
DWIDTH 12 0
BBX 10 19 0 -5
BITMAP
00000008E7
00000009E6
0000000000
0000000000
004FFFFFC0
0000000F90
0000003F60
0000006F30
0000009E00
000000CC00
000000E900
000002F600
000005F300
000008F000
2BEE9CB000
C913BF7000
E803DEE100
4CFD82F700
0000009600
ENDCHAR
STARTCHAR uni029E
ENCODING 670
SWIDTH 600 0
DWIDTH 12 0
BBX 11 14 0 -4
BITMAP
05F400000F80
00CC00002F50
005F40004F20
000CC0008E00
0005F45CEB00
0000CFE3E800
0003EC23F500
004EA106F200
06F80009E000
8F60000CB000
0000000F8000
0000003F5000
0000006F2000
0000009E0000
ENDCHAR
STARTCHAR uni029F
ENCODING 671
SWIDTH 600 0
DWIDTH 12 0
BBX 8 10 2 0
BITMAP
01F70000
04F40000
07F10000
0AE00000
0DB00000
1F800000
3F500000
6F200000
9E000000
CFFFFFFB
ENDCHAR
STARTCHAR uni02A1
ENCODING 673
SWIDTH 600 0
DWIDTH 12 0
BBX 10 14 1 0
BITMAP
0029DEEC50
02FA3118F6
00300000CD
00000000BE
00000000EA
00000008F3
0000009E40
00006DA200
4EEFFFFFE0
000AE00000
000DB00000
001F800000
004F500000
007F200000
ENDCHAR
STARTCHAR uni02A2
ENCODING 674
SWIDTH 600 0
DWIDTH 12 0
BBX 11 14 1 0
BITMAP
00018DFEA300
002EB3129F40
00AD10000610
00F900000000
01F800000000
00DC00000000
006F60000000
0007F7000000
1EEFFFFFF100
0000AE000000
0000DA000000
0001F7000000
0004F4000000
0007F1000000
ENDCHAR
STARTCHAR uni02A4
ENCODING 676
SWIDTH 600 0
DWIDTH 12 0
BBX 14 18 -1 -4
BITMAP
00000003F40000
00000006F10000
00000009C00000
0000000C900000
0008EE5EFFFFFD
00AD32CF2003F4
05F3008E001D80
0CB000AB00BB00
1F6000D807E200
4F5000F63F4000
4F3003F3BFF900
3F5007F0216F60
0EA16DC0000E90
04DE6990000E90
00000000002F60
00000000009E10
000005B217F500
0000019EFC4000
ENDCHAR
STARTCHAR uni02A6
ENCODING 678
SWIDTH 600 0
DWIDTH 12 0
BBX 11 13 1 0
BITMAP
007A00000000
00C800000000
01F500000000
CFFFFFFFEA20
0AD00AE32810
0DA00BB00000
1F7007E30000
4F50009F6000
7F200007F400
9E000000E800
AE000001F700
5F82014CD100
06CEFEC81000
ENDCHAR
STARTCHAR uni02A7
ENCODING 679
SWIDTH 600 0
DWIDTH 12 0
BBX 13 18 1 -4
BITMAP
0000000007DF50
000C70006F5100
001F4000DC0000
006F1002F80000
2EFFFFFFF50000
00E90008F20000
02F6000BE00000
05F3000EB00000
08F1002F800000
0BD0005F500000
0EA0007F200000
1F8000AE000000
0EB120DB000000
05DFA1F7000000
000004F4000000
000007F1000000
00011D90000000
001EE910000000
ENDCHAR
STARTCHAR h.sups
ENCODING 688
SWIDTH 600 0
DWIDTH 12 0
BBX 8 10 3 7
BITMAP
00590000
00990000
00C60000
00F5CFC1
03F912F4
06C000F3
099003F1
0C6005C0
0F200890
18000640
ENDCHAR
STARTCHAR j.sups
ENCODING 690
SWIDTH 600 0
DWIDTH 12 0
BBX 8 12 2 5
BITMAP
000002D6
00000000
00000000
004FFFB0
00000980
00000D40
00001F10
00004D00
00007A00
0000A700
1415E200
3CEC4000
ENDCHAR
STARTCHAR r.sups
ENCODING 691
SWIDTH 600 0
DWIDTH 12 0
BBX 7 7 4 7
BITMAP
01E3BF90
04EB3110
07D10000
0A800000
0D500000
1F200000
17000000
ENDCHAR
STARTCHAR w.sups
ENCODING 695
SWIDTH 600 0
DWIDTH 12 0
BBX 9 6 3 8
BITMAP
E305F106A0
D40BC20D30
C558B36B00
A6C1A5D300
9A908AB000
8F207F3000
ENDCHAR
STARTCHAR y.sups
ENCODING 696
SWIDTH 600 0
DWIDTH 12 0
BBX 9 9 2 5
BITMAP
008A000B70
004D004D00
001F10D400
000C46B000
00098D2000
0006E80000
0005D10000
013D400000
2ED5000000
ENDCHAR
STARTCHAR uni02B9
ENCODING 697
SWIDTH 600 0
DWIDTH 12 0
BBX 4 5 5 9
BITMAP
00D9
03F3
07C0
0B60
1E10
ENDCHAR
STARTCHAR uni02BB
ENCODING 699
SWIDTH 600 0
DWIDTH 12 0
BBX 5 7 5 7
BITMAP
002970
04E910
2E7000
9E0000
CFE200
CFF400
6EA000
ENDCHAR
STARTCHAR uni02BC
ENCODING 700
SWIDTH 600 0
DWIDTH 12 0
BBX 5 7 4 7
BITMAP
00AE60
03FFD0
01DFD0
000D90
007F20
18E500
792000
ENDCHAR
STARTCHAR uni02BE
ENCODING 702
SWIDTH 600 0
DWIDTH 12 0
BBX 5 6 5 11
BITMAP
0EC300
019E00
002F20
004F10
26E700
AA4000
ENDCHAR
STARTCHAR uni02BF
ENCODING 703
SWIDTH 600 0
DWIDTH 12 0
BBX 5 6 5 10
BITMAP
004AA0
08D510
2F3000
3F1000
1E8100
04CD00
ENDCHAR
STARTCHAR uni02C1
ENCODING 705
SWIDTH 600 0
DWIDTH 12 0
BBX 6 8 5 9
BITMAP
19DEA1
AA2188
F20000
F30000
AB0000
1BB000
07A000
086000
ENDCHAR
STARTCHAR circumflex
ENCODING 710
SWIDTH 600 0
DWIDTH 12 0
BBX 7 3 4 12
BITMAP
01BFC000
2CA3D800
A6002C10
ENDCHAR
STARTCHAR caron
ENCODING 711
SWIDTH 600 0
DWIDTH 12 0
BBX 7 3 4 12
BITMAP
3B000970
0CA3CA00
02EF8000
ENDCHAR
STARTCHAR uni02C8
ENCODING 712
SWIDTH 600 0
DWIDTH 12 0
BBX 3 7 6 7
BITMAP
6F70
8F30
AE00
CA00
D600
F200
4000
ENDCHAR
STARTCHAR uni02C9
ENCODING 713
SWIDTH 600 0
DWIDTH 12 0
BBX 6 1 4 12
BITMAP
4FFFFC
ENDCHAR
STARTCHAR uni02CA
ENCODING 714
SWIDTH 600 0
DWIDTH 12 0
BBX 4 4 6 12
BITMAP
0059
06FB
7F80
B400
ENDCHAR
STARTCHAR uni02CB
ENCODING 715
SWIDTH 600 0
DWIDTH 12 0
BBX 4 4 5 12
BITMAP
5B00
6F70
08F3
0096
ENDCHAR
STARTCHAR uni02CC
ENCODING 716
SWIDTH 600 0
DWIDTH 12 0
BBX 4 6 2 -5
BITMAP
0098
00E6
03F4
07F2
0BE0
1FD0
ENDCHAR
STARTCHAR uni02D0
ENCODING 720
SWIDTH 600 0
DWIDTH 12 0
BBX 6 10 3 0
BITMAP
00DFE1
008F40
003800
000000
000000
000000
000000
029000
0CE100
8FF500
ENDCHAR
STARTCHAR uni02D1
ENCODING 721
SWIDTH 600 0
DWIDTH 12 0
BBX 4 3 5 7
BITMAP
DFE1
8F40
3800
ENDCHAR
STARTCHAR breve
ENCODING 728
SWIDTH 600 0
DWIDTH 12 0
BBX 7 4 4 11
BITMAP
01000110
7A000880
4E416E20
08EEA200
ENDCHAR
STARTCHAR dotaccent
ENCODING 729
SWIDTH 600 0
DWIDTH 12 0
BBX 3 2 6 12
BITMAP
9E60
AE50
ENDCHAR
STARTCHAR ring
ENCODING 730
SWIDTH 600 0
DWIDTH 12 0
BBX 5 4 5 11
BITMAP
1AEC20
991A70
B71C50
4DE800
ENDCHAR
STARTCHAR ogonek
ENCODING 731
SWIDTH 600 0
DWIDTH 12 0
BBX 4 4 2 -4
BITMAP
03B3
2C10
7C12
3DEB
ENDCHAR
STARTCHAR tilde
ENCODING 732
SWIDTH 600 0
DWIDTH 12 0
BBX 8 3 3 12
BITMAP
01892018
0ABAD28B
1D207EC2
ENDCHAR
STARTCHAR hungarumlaut
ENCODING 733
SWIDTH 600 0
DWIDTH 12 0
BBX 7 4 5 11
BITMAP
00A40A50
06E26E20
2E42E400
77077000
ENDCHAR
STARTCHAR uni02DE
ENCODING 734
SWIDTH 600 0
DWIDTH 12 0
BBX 5 4 4 5
BITMAP
003200
5CF400
B6C610
006EB0
ENDCHAR
STARTCHAR uni02E0
ENCODING 736
SWIDTH 600 0
DWIDTH 12 0
BBX 7 9 4 5
BITMAP
980007A0
4C002D10
1E10B500
0B45A000
078C1000
05E70000
1C690000
5A7A0000
3ED30000
ENDCHAR
STARTCHAR l.sups
ENCODING 737
SWIDTH 600 0
DWIDTH 12 0
BBX 5 9 5 8
BITMAP
1FFA00
00A700
00E400
02F100
06C000
099000
0C5000
0E5100
09ED20
ENDCHAR
STARTCHAR s.sups
ENCODING 738
SWIDTH 600 0
DWIDTH 12 0
BBX 6 6 4 8
BITMAP
07DFC4
1F4147
0AB400
0039C1
B403F3
4CFD70
ENDCHAR
STARTCHAR x.sups
ENCODING 739
SWIDTH 600 0
DWIDTH 12 0
BBX 8 7 3 7
BITMAP
01E406D1
007B3E30
001ED500
004ED000
02E4D500
1C707C00
35001610
ENDCHAR
STARTCHAR uni02E4
ENCODING 740
SWIDTH 600 0
DWIDTH 12 0
BBX 6 10 5 7
BITMAP
19DEA1
AA2188
F20000
F30000
AB0000
1BB000
07A000
0A7000
0D4000
091000
ENDCHAR
STARTCHAR uni0300
ENCODING 768
SWIDTH 600 0
DWIDTH 12 0
BBX 4 4 5 12
BITMAP
5B00
6F70
08F3
0096
ENDCHAR
STARTCHAR uni0301
ENCODING 769
SWIDTH 600 0
DWIDTH 12 0
BBX 4 4 6 12
BITMAP
0059
06FB
7F80
B400
ENDCHAR
STARTCHAR uni0302
ENCODING 770
SWIDTH 600 0
DWIDTH 12 0
BBX 7 3 4 12
BITMAP
01BFC000
2CA3D800
A6002C10
ENDCHAR
STARTCHAR uni0303
ENCODING 771
SWIDTH 600 0
DWIDTH 12 0
BBX 8 3 3 12
BITMAP
01892018
0ABAD28B
1D207EC2
ENDCHAR
STARTCHAR uni0304
ENCODING 772
SWIDTH 600 0
DWIDTH 12 0
BBX 6 1 4 12
BITMAP
4FFFFC
ENDCHAR
STARTCHAR uni0305
ENCODING 773
SWIDTH 600 0
DWIDTH 12 0
BBX 6 1 4 12
BITMAP
4FFFFC
ENDCHAR
STARTCHAR uni0306
ENCODING 774
SWIDTH 600 0
DWIDTH 12 0
BBX 7 4 4 11
BITMAP
01000110
7A000880
4E416E20
08EEA200
ENDCHAR
STARTCHAR uni0307
ENCODING 775
SWIDTH 600 0
DWIDTH 12 0
BBX 3 2 6 12
BITMAP
9E60
AE50
ENDCHAR
STARTCHAR uni0308
ENCODING 776
SWIDTH 600 0
DWIDTH 12 0
BBX 7 2 4 12
BITMAP
4E408D10
5E309D10
ENDCHAR
STARTCHAR uni0309
ENCODING 777
SWIDTH 600 0
DWIDTH 12 0
BBX 3 4 6 11
BITMAP
9D60
18F0
1AC0
8A10
ENDCHAR
STARTCHAR uni030A
ENCODING 778
SWIDTH 600 0
DWIDTH 12 0
BBX 5 4 5 11
BITMAP
1AEC20
991A70
B71C50
4DE800
ENDCHAR
STARTCHAR uni030B
ENCODING 779
SWIDTH 600 0
DWIDTH 12 0
BBX 7 4 5 11
BITMAP
00A40A50
06E26E20
2E42E400
77077000
ENDCHAR
STARTCHAR uni030C
ENCODING 780
SWIDTH 600 0
DWIDTH 12 0
BBX 7 3 4 12
BITMAP
3B000970
0CA3CA00
02EF8000
ENDCHAR
STARTCHAR uni030F
ENCODING 783
SWIDTH 600 0
DWIDTH 12 0
BBX 6 4 3 11
BITMAP
4C04C0
2F32F3
0B70B8
05905A
ENDCHAR
STARTCHAR uni0310
ENCODING 784
SWIDTH 600 0
DWIDTH 12 0
BBX 7 5 4 11
BITMAP
00075000
014FC010
880525B0
5D315E30
08EEB300
ENDCHAR
STARTCHAR uni0311
ENCODING 785
SWIDTH 600 0
DWIDTH 12 0
BBX 7 4 4 10
BITMAP
04CFD400
4D417E00
C4000F20
10000100
ENDCHAR
STARTCHAR uni0312
ENCODING 786
SWIDTH 600 0
DWIDTH 12 0
BBX 3 4 6 11
BITMAP
1A50
A500
FD00
BC00
ENDCHAR
STARTCHAR uni0313
ENCODING 787
SWIDTH 600 0
DWIDTH 12 0
BBX 3 4 6 11
BITMAP
5E50
5F80
0C40
A500
ENDCHAR
STARTCHAR uni0318
ENCODING 792
SWIDTH 600 0
DWIDTH 12 0
BBX 5 5 2 -6
BITMAP
000510
000E10
5FFC00
005A00
003300
ENDCHAR
STARTCHAR uni0319
ENCODING 793
SWIDTH 600 0
DWIDTH 12 0
BBX 4 5 2 -6
BITMAP
1500
5A00
8FFA
B400
5100
ENDCHAR
STARTCHAR uni031A
ENCODING 794
SWIDTH 600 0
DWIDTH 12 0
BBX 4 3 6 11
BITMAP
2FFF
002C
0059
ENDCHAR
STARTCHAR uni031B
ENCODING 795
SWIDTH 600 0
DWIDTH 12 0
BBX 4 4 6 9
BITMAP
004B
006D
04D8
6C70
ENDCHAR
STARTCHAR uni031C
ENCODING 796
SWIDTH 600 0
DWIDTH 12 0
BBX 4 4 2 -5
BITMAP
05D6
2E30
4D10
0AB0
ENDCHAR
STARTCHAR uni031D
ENCODING 797
SWIDTH 600 0
DWIDTH 12 0
BBX 4 3 2 -4
BITMAP
01E0
04B0
DFFD
ENDCHAR
STARTCHAR uni031E
ENCODING 798
SWIDTH 600 0
DWIDTH 12 0
BBX 5 3 2 -5
BITMAP
9FFF30
069000
096000
ENDCHAR
STARTCHAR uni031F
ENCODING 799
SWIDTH 600 0
DWIDTH 12 0
BBX 5 5 2 -6
BITMAP
006000
02D000
BFFF10
087000
042000
ENDCHAR
STARTCHAR uni0320
ENCODING 800
SWIDTH 600 0
DWIDTH 12 0
BBX 5 1 2 -4
BITMAP
BFFF10
ENDCHAR
STARTCHAR uni0323
ENCODING 803
SWIDTH 600 0
DWIDTH 12 0
BBX 4 2 2 -4
BITMAP
0BE4
1DD2
ENDCHAR
STARTCHAR uni0324
ENCODING 804
SWIDTH 600 0
DWIDTH 12 0
BBX 6 2 1 -4
BITMAP
6E20AC
7D20BB
ENDCHAR
STARTCHAR uni0325
ENCODING 805
SWIDTH 600 0
DWIDTH 12 0
BBX 5 4 2 -5
BITMAP
3CEA00
C61D30
E42E10
7ED500
ENDCHAR
STARTCHAR uni0326
ENCODING 806
SWIDTH 600 0
DWIDTH 12 0
BBX 4 4 2 -5
BITMAP
08C4
01BB
13D8
CC70
ENDCHAR
STARTCHAR uni0327
ENCODING 807
SWIDTH 600 0
DWIDTH 12 0
BBX 4 5 2 -5
BITMAP
01C1
09E5
01BA
13D6
DC60
ENDCHAR
STARTCHAR uni0328
ENCODING 808
SWIDTH 600 0
DWIDTH 12 0
BBX 4 4 2 -4
BITMAP
03B3
2C10
7C12
3DEB
ENDCHAR
STARTCHAR uni0329
ENCODING 809
SWIDTH 600 0
DWIDTH 12 0
BBX 2 4 3 -5
BITMAP
2E
6C
99
C7
ENDCHAR
STARTCHAR uni032A
ENCODING 810
SWIDTH 600 0
DWIDTH 12 0
BBX 6 3 1 -5
BITMAP
1FFFFB
3A0058
670085
ENDCHAR
STARTCHAR uni032C
ENCODING 812
SWIDTH 600 0
DWIDTH 12 0
BBX 7 3 1 -4
BITMAP
59001A50
1D94D800
03FF6000
ENDCHAR
STARTCHAR uni032E
ENCODING 814
SWIDTH 600 0
DWIDTH 12 0
BBX 7 4 1 -5
BITMAP
01000100
98000B60
6D318D10
09EEA100
ENDCHAR
STARTCHAR uni032F
ENCODING 815
SWIDTH 600 0
DWIDTH 12 0
BBX 6 4 1 -6
BITMAP
05DFC3
6C319C
E2002F
100001
ENDCHAR
STARTCHAR uni0330
ENCODING 816
SWIDTH 600 0
DWIDTH 12 0
BBX 8 3 0 -4
BITMAP
01891028
0BBBC199
2D108EB1
ENDCHAR
STARTCHAR uni0331
ENCODING 817
SWIDTH 600 0
DWIDTH 12 0
BBX 6 1 1 -4
BITMAP
6FFFFA
ENDCHAR
STARTCHAR uni0334
ENCODING 820
SWIDTH 600 0
DWIDTH 12 0
BBX 8 3 2 3
BITMAP
05720043
8C9E51D4
D203CE80
ENDCHAR
STARTCHAR uni0339
ENCODING 825
SWIDTH 600 0
DWIDTH 12 0
BBX 4 4 2 -5
BITMAP
08C2
01A8
02C5
3D80
ENDCHAR
STARTCHAR uni033A
ENCODING 826
SWIDTH 600 0
DWIDTH 12 0
BBX 6 3 1 -5
BITMAP
0C002A
3A0059
6FFFF6
ENDCHAR
STARTCHAR uni033B
ENCODING 827
SWIDTH 600 0
DWIDTH 12 0
BBX 6 4 1 -5
BITMAP
0FFFFC
2B0049
590077
7FFFF4
ENDCHAR
STARTCHAR uni033C
ENCODING 828
SWIDTH 600 0
DWIDTH 12 0
BBX 8 3 0 -5
BITMAP
07ED6DD2
3C18A1B4
00000010
ENDCHAR
STARTCHAR uni033D
ENCODING 829
SWIDTH 600 0
DWIDTH 12 0
BBX 4 4 5 10
BITMAP
0B3B
09F4
4CB8
1111
ENDCHAR
STARTCHAR uni0342
ENCODING 834
SWIDTH 600 0
DWIDTH 12 0
BBX 8 3 3 12
BITMAP
01892018
0ABAD28B
1D207EC2
ENDCHAR
STARTCHAR uni0345
ENCODING 837
SWIDTH 600 0
DWIDTH 12 0
BBX 3 3 3 -4
BITMAP
3F10
5E00
2EB0
ENDCHAR
STARTCHAR uni035F
ENCODING 863
SWIDTH 600 0
DWIDTH 12 0
BBX 20 1 -6 -3
BITMAP
8FFFFFFFFFFFFFFFFFFE
ENDCHAR
STARTCHAR uni0361
ENCODING 865
SWIDTH 600 0
DWIDTH 12 0
BBX 19 3 -2 12
BITMAP
000048BDEFEDC9610000
03ADA642101246AEA200
6A400000000000006C10
ENDCHAR
STARTCHAR pi
ENCODING 960
SWIDTH 600 0
DWIDTH 12 0
BBX 11 11 1 -1
BITMAP
7FFFFFFFFFC0
00D8000AC000
01F5000D8000
04F2002F5000
07E0005F2000
0AB0008E0000
0E8000BB0000
3F4000E80000
7F1000F81000
AC00008FB000
010000000000
ENDCHAR
STARTCHAR a.sups
ENCODING 7491
SWIDTH 600 0
DWIDTH 12 0
BBX 8 6 3 8
BITMAP
007DE9D2
0AC317E0
4F1007B0
6C000A70
5E316E40
0AED6C10
ENDCHAR
STARTCHAR b.sups
ENCODING 7495
SWIDTH 600 0
DWIDTH 12 0
BBX 8 9 3 8
BITMAP
00770000
00C60000
01F30000
04E7DE80
07D514F3
0B8000F4
0E5003F1
2F514D80
49AED700
ENDCHAR
STARTCHAR d.sups
ENCODING 7496
SWIDTH 600 0
DWIDTH 12 0
BBX 8 9 3 8
BITMAP
00000068
000000A8
000000D4
018EE8F1
0BB218D0
4E1008A0
7C000B60
5E316F30
0AED6C00
ENDCHAR
STARTCHAR e.sups
ENCODING 7497
SWIDTH 600 0
DWIDTH 12 0
BBX 7 6 3 8
BITMAP
005CEC30
06E517B0
0E6002E0
2FFFFFD0
0E512810
04CFD810
ENDCHAR
STARTCHAR g.sups
ENCODING 7501
SWIDTH 600 0
DWIDTH 12 0
BBX 8 9 3 5
BITMAP
007DE9D2
09C317E0
3F2007B0
6D000A80
5F416E50
09ED8F20
00005E00
7413D800
6CFD8000
ENDCHAR
STARTCHAR k.sups
ENCODING 7503
SWIDTH 600 0
DWIDTH 12 0
BBX 7 10 4 7
BITMAP
03E00000
06C00000
09900000
0C601B80
1F32C600
3E4E6000
6ECBA000
9C12F300
C6009B00
61001610
ENDCHAR
STARTCHAR m.sups
ENCODING 7504
SWIDTH 600 0
DWIDTH 12 0
BBX 10 7 2 7
BITMAP
0E5CE56DE3
2F808E60B8
5D007A00B6
8A00A700E3
B700D402F1
E401F105D0
8102700350
ENDCHAR
STARTCHAR o.sups
ENCODING 7506
SWIDTH 600 0
DWIDTH 12 0
BBX 8 6 3 8
BITMAP
006CEC30
09C318D0
2F2003F1
5E0006E0
2F415E50
06DEC500
ENDCHAR
STARTCHAR p.sups
ENCODING 7510
SWIDTH 600 0
DWIDTH 12 0
BBX 8 9 3 5
BITMAP
02F6DEA0
05E613E5
08A000D6
0B7001F3
0E713CA0
2E9ED800
6C000000
99000000
64000000
ENDCHAR
STARTCHAR t.sups
ENCODING 7511
SWIDTH 600 0
DWIDTH 12 0
BBX 7 9 4 8
BITMAP
00030000
004C0000
00890000
7FFFFF40
01F30000
04E00000
07B00000
08C12100
03DEC300
ENDCHAR
STARTCHAR u.sups
ENCODING 7512
SWIDTH 600 0
DWIDTH 12 0
BBX 8 6 3 8
BITMAP
06C000E4
098003F1
0C5006C0
1F200A90
2F327F50
0BFD5B20
ENDCHAR
STARTCHAR v.sups
ENCODING 7515
SWIDTH 600 0
DWIDTH 12 0
BBX 7 6 4 8
BITMAP
8A001E40
5C00A900
2F04E100
0E2D6000
0CAC0000
09F30000
ENDCHAR
STARTCHAR c.sups
ENCODING 7580
SWIDTH 600 0
DWIDTH 12 0
BBX 6 6 4 8
BITMAP
02AEE7
2E7126
AA0000
D60000
AB1181
2BEE80
ENDCHAR
STARTCHAR f.sups
ENCODING 7584
SWIDTH 600 0
DWIDTH 12 0
BBX 7 10 5 7
BITMAP
002BED40
00C91310
03F10000
EFFFF600
08A00000
0B600000
0E300000
2F100000
5C000000
45000000
ENDCHAR
STARTCHAR z.sups
ENCODING 7611
SWIDTH 600 0
DWIDTH 12 0
BBX 8 6 3 8
BITMAP
05FFFFE2
00003D30
0004D300
005C2000
06C10000
5FFFFF40
ENDCHAR
STARTCHAR uni1E06
ENCODING 7686
SWIDTH 600 0
DWIDTH 12 0
BBX 11 17 0 -4
BITMAP
000AFFFEC600
000DA0027F80
001F70000BD0
004F50000BC0
007F20002F70
00AE3347E800
00DECCDF9100
01F80002CC10
04F500004F50
07F200003F50
0AE000008F10
0DB00138F600
1FFFFEDA3000
000000000000
000000000000
000000000000
01FFFFF10000
ENDCHAR
STARTCHAR uni1E07
ENCODING 7687
SWIDTH 600 0
DWIDTH 12 0
BBX 11 18 0 -4
BITMAP
0008E0000000
000BC0000000
000E80000000
002F50000000
005F27DEC400
008EA512BF20
00BC10001F80
00E700000DA0
02F400000DA0
06F200001F80
09E000007F30
0CD00001EA00
0EDA214DC100
3F27DFD70000
000000000000
000000000000
000000000000
00FFFFF10000
ENDCHAR
STARTCHAR uni1E0C
ENCODING 7692
SWIDTH 600 0
DWIDTH 12 0
BBX 12 17 0 -4
BITMAP
001FFFEC7000
004F4016EC10
007F10003F90
00AD00000BE0
00DA000008F1
01F7000007F2
04F4000008F0
07F200000BD0
0AE000001F80
0DB000008F20
1F800005F700
4F50139F7000
7FFFED920000
000000000000
000000000000
002DD1000000
003EC1000000
ENDCHAR
STARTCHAR uni1E0D
ENCODING 7693
SWIDTH 600 0
DWIDTH 12 0
BBX 11 18 1 -4
BITMAP
000000000AD0
000000000DA0
000000001F70
000000004F40
0018DFC67F10
02DC303BDD00
0CC10001FA00
5F400002F700
AD000005F400
DA000007F100
EA00000AD000
CD00002EA000
6F7117AF6000
07DFC62F3000
000000000000
000000000000
008E70000000
009E60000000
ENDCHAR
STARTCHAR uni1E0E
ENCODING 7694
SWIDTH 600 0
DWIDTH 12 0
BBX 12 17 0 -4
BITMAP
001FFFEC7000
004F4016EC10
007F10003F90
00AD00000BE0
00DA000008F1
01F7000007F2
04F4000008F0
07F200000BD0
0AE000001F80
0DB000008F20
1F800005F700
4F50139F7000
7FFFED920000
000000000000
000000000000
000000000000
09FFFF800000
ENDCHAR
STARTCHAR uni1E0F
ENCODING 7695
SWIDTH 600 0
DWIDTH 12 0
BBX 11 18 1 -4
BITMAP
000000000AD0
000000000DA0
000000001F70
000000004F40
0018DFC67F10
02DC303BDD00
0CC10001FA00
5F400002F700
AD000005F400
DA000007F100
EA00000AD000
CD00002EA000
6F7117AF6000
07DFC62F3000
000000000000
000000000000
000000000000
1FFFFF000000
ENDCHAR
STARTCHAR uni1E10
ENCODING 7696
SWIDTH 600 0
DWIDTH 12 0
BBX 12 18 0 -5
BITMAP
001FFFEC7000
004F4016EC10
007F10003F90
00AD00000BE0
00DA000008F1
01F7000007F2
04F4000008F0
07F200000BD0
0AE000001F80
0DB000008F20
1F800005F700
4F50139F7000
7FFFED920000
0004A0000000
001DD2000000
0003E6000000
0015E2000000
03EB30000000
ENDCHAR
STARTCHAR uni1E11
ENCODING 7697
SWIDTH 600 0
DWIDTH 12 0
BBX 11 19 1 -5
BITMAP
000000000AD0
000000000DA0
000000001F70
000000004F40
0018DFC67F10
02DC303BDD00
0CC10001FA00
5F400002F700
AD000005F400
DA000007F100
EA00000AD000
CD00002EA000
6F7117AF6000
07DFC62F3000
002C10000000
00AE40000000
002C90000000
014E50000000
0EC500000000
ENDCHAR
STARTCHAR uni1E16
ENCODING 7702
SWIDTH 600 0
DWIDTH 12 0
BBX 11 20 1 0
BITMAP
000000002B10
00000002D900
000000096000
000000000000
00001FFFFF10
000000000000
000000000000
004FFFFFFFC0
007F00000000
00AD00000000
00DA00000000
01F800000000
04F500000000
07FFFFFF9000
0AE000000000
0DB000000000
1F8000000000
4F5000000000
7F2000000000
AFFFFFFF9000
ENDCHAR
STARTCHAR uni1E17
ENCODING 7703
SWIDTH 600 0
DWIDTH 12 0
BBX 10 17 1 0
BITMAP
00000004A0
0000002E50
0000008500
0000000000
0002FFFFE0
0000000000
0000000000
0007CFEA20
01CD412BD0
0BD10002F5
4F400000F7
9FFFFFFFF5
BC00000000
AE00000000
7F40000100
1DD4116D60
02AEFEB500
ENDCHAR
STARTCHAR uni1E20
ENCODING 7712
SWIDTH 600 0
DWIDTH 12 0
BBX 11 16 1 0
BITMAP
00005FFFFC00
000000000000
000000000000
00006CEEC500
001CD5118F30
01DC10000300
09E200000000
1F8000000000
6F3000000000
AE0006FFFB00
BD000000E800
BD000001F500
9F100004F200
4F700007E000
09F7115DA000
006CEEC60000
ENDCHAR
STARTCHAR uni1E21
ENCODING 7713
SWIDTH 600 0
DWIDTH 12 0
BBX 11 17 0 -4
BITMAP
00000FFFFF20
000000000000
000000000000
00018DFD65E0
002DC303CDB0
00CC10001F80
05F400002F50
0AD000005F20
0DB000008E00
0DB00000AB00
0AE10005E800
03EC66A8F500
0028A824F200
00000008E000
0000001D8000
5C4114CC1000
28DFEC710000
ENDCHAR
STARTCHAR uni1E24
ENCODING 7716
SWIDTH 600 0
DWIDTH 12 0
BBX 12 17 0 -4
BITMAP
002F700000DA
005F400001F7
008F100004F4
00BD000007F1
00EB000009D0
02F800000CA0
05FFFFFFFF70
08F100004F40
0BD000007F10
0EA00000AD00
2F700000DA00
5F300002F700
8F100005F400
000000000000
000000000000
000BE4000000
001DD2000000
ENDCHAR
STARTCHAR uni1E25
ENCODING 7717
SWIDTH 600 0
DWIDTH 12 0
BBX 11 18 0 -4
BITMAP
0008F0000000
000BC0000000
000E90000000
002F50000000
005F23AEEA00
008E79316F60
00BE50000F90
00E700001F80
02F400004F50
06F100007F20
09D00000AE00
0CA00000DB00
0E800001F800
3F500003F500
000000000000
000000000000
0006E9000000
0008E7000000
ENDCHAR
STARTCHAR uni1E26
ENCODING 7718
SWIDTH 600 0
DWIDTH 12 0
BBX 12 16 0 0
BITMAP
00000AA01D60
00000B901E50
000000000000
002F700000DA
005F400001F7
008F100004F4
00BD000007F1
00EB000009D0
02F800000CA0
05FFFFFFFF70
08F100004F40
0BD000007F10
0EA00000AD00
2F700000DA00
5F300002F700
8F100005F400
ENDCHAR
STARTCHAR uni1E27
ENCODING 7719
SWIDTH 600 0
DWIDTH 12 0
BBX 11 17 0 0
BITMAP
00B902E50000
00C802E40000
000000000000
0008F0000000
000BC0000000
000E90000000
002F50000000
005F23AEEA00
008E79316F60
00BE50000F90
00E700001F80
02F400004F50
06F100007F20
09D00000AE00
0CA00000DB00
0E800001F800
3F500003F500
ENDCHAR
STARTCHAR uni1E28
ENCODING 7720
SWIDTH 600 0
DWIDTH 12 0
BBX 14 18 -2 -5
BITMAP
00002F700000DA
00005F400001F7
00008F100004F4
0000BD000007F1
0000EB000009D0
0002F800000CA0
0005FFFFFFFF70
0008F100004F40
000BD000007F10
000EA00000AD00
002F700000DA00
005F300002F700
008F100005F400
00860000000000
03FB0000000000
006F2000000000
029C0000000000
7D910000000000
ENDCHAR
STARTCHAR uni1E29
ENCODING 7721
SWIDTH 600 0
DWIDTH 12 0
BBX 13 19 -2 -5
BITMAP
000008F0000000
00000BC0000000
00000E90000000
00002F50000000
00005F23AEEA00
00008E79316F60
0000BE50000F90
0000E700001F80
0002F400004F50
0006F100007F20
0009D00000AE00
000CA00000DB00
000E800001F800
003F500003F500
004A0000000000
01DD2000000000
003E6000000000
015E2000000000
3EB40000000000
ENDCHAR
STARTCHAR uni1E2A
ENCODING 7722
SWIDTH 600 0
DWIDTH 12 0
BBX 12 18 0 -5
BITMAP
002F700000DA
005F400001F7
008F100004F4
00BD000007F1
00EB000009D0
02F800000CA0
05FFFFFFFF70
08F100004F40
0BD000007F10
0EA00000AD00
2F700000DA00
5F300002F700
8F100005F400
000000000000
001000100000
098000B60000
06D318D10000
009EEA100000
ENDCHAR
STARTCHAR uni1E2B
ENCODING 7723
SWIDTH 600 0
DWIDTH 12 0
BBX 11 19 0 -5
BITMAP
0008F0000000
000BC0000000
000E90000000
002F50000000
005F23AEEA00
008E79316F60
00BE50000F90
00E700001F80
02F400004F50
06F100007F20
09D00000AE00
0CA00000DB00
0E800001F800
3F500003F500
000000000000
001000010000
03E0004D0000
01E714E50000
004DEC400000
ENDCHAR
STARTCHAR uni1E32
ENCODING 7730
SWIDTH 600 0
DWIDTH 12 0
BBX 13 17 0 -4
BITMAP
000AE00001CC10
000DB0002DB100
001F7002DB1000
004F402DB00000
007F12DA000000
00AD3EF1000000
00DDEBF7000000
01FF90BD000000
04F8005F600000
07F1000DC00000
0AD00007F40000
0DA00001EB0000
1F7000009F2000
00000000000000
00000000000000
0000BE40000000
0000CE30000000
ENDCHAR
STARTCHAR uni1E33
ENCODING 7731
SWIDTH 600 0
DWIDTH 12 0
BBX 11 18 1 -4
BITMAP
004F40000000
007F10000000
00AD00000000
00DA00000000
01F70001AE30
04F4001CE300
07F102DD2000
0AD04ED20000
0D95FF500000
1FDF8CC00000
5FE504F50000
8F3000BD0000
BD00003F6000
E900000AD000
000000000000
000000000000
001CE3000000
002DD1000000
ENDCHAR
STARTCHAR uni1E34
ENCODING 7732
SWIDTH 600 0
DWIDTH 12 0
BBX 13 17 0 -4
BITMAP
000AE00001CC10
000DB0002DB100
001F7002DB1000
004F402DB00000
007F12DA000000
00AD3EF1000000
00DDEBF7000000
01FF90BD000000
04F8005F600000
07F1000DC00000
0AD00007F40000
0DA00001EB0000
1F7000009F2000
00000000000000
00000000000000
00000000000000
005FFFFB000000
ENDCHAR
STARTCHAR uni1E35
ENCODING 7733
SWIDTH 600 0
DWIDTH 12 0
BBX 11 18 1 -4
BITMAP
004F40000000
007F10000000
00AD00000000
00DA00000000
01F70001AE30
04F4001CE300
07F102DD2000
0AD04ED20000
0D95FF500000
1FDF8CC00000
5FE504F50000
8F3000BD0000
BD00003F6000
E900000AD000
000000000000
000000000000
000000000000
08FFFF900000
ENDCHAR
STARTCHAR uni1E36
ENCODING 7734
SWIDTH 600 0
DWIDTH 12 0
BBX 9 17 2 -4
BITMAP
008F100000
00BD000000
00EA000000
02F7000000
05F4000000
08F1000000
0BD0000000
0EA0000000
2F70000000
5F40000000
8F10000000
BD00000000
EFFFFFFF30
0000000000
0000000000
006E900000
008E700000
ENDCHAR
STARTCHAR uni1E37
ENCODING 7735
SWIDTH 600 0
DWIDTH 12 0
BBX 8 18 2 -4
BITMAP
1FFFFB00
0001F700
0004F400
0007F100
000AD000
000EA000
002F7000
005F3000
008F0000
00BC0000
00E90000
01F70000
00DB1150
003CFEB1
00000000
00000000
002DD100
003EC100
ENDCHAR
STARTCHAR uni1E38
ENCODING 7736
SWIDTH 600 0
DWIDTH 12 0
BBX 9 20 2 -4
BITMAP
0BFFFF6000
0000000000
0000000000
008F100000
00BD000000
00EA000000
02F7000000
05F4000000
08F1000000
0BD0000000
0EA0000000
2F70000000
5F40000000
8F10000000
BD00000000
EFFFFFFF30
0000000000
0000000000
006E900000
008E700000
ENDCHAR
STARTCHAR uni1E39
ENCODING 7737
SWIDTH 600 0
DWIDTH 12 0
BBX 8 21 2 -4
BITMAP
003FFFFE
00000000
00000000
1FFFFB00
0001F700
0004F400
0007F100
000AD000
000EA000
002F7000
005F3000
008F0000
00BC0000
00E90000
01F70000
00DB1150
003CFEB1
00000000
00000000
002DD100
003EC100
ENDCHAR
STARTCHAR uni1E3A
ENCODING 7738
SWIDTH 600 0
DWIDTH 12 0
BBX 9 17 2 -4
BITMAP
008F100000
00BD000000
00EA000000
02F7000000
05F4000000
08F1000000
0BD0000000
0EA0000000
2F70000000
5F40000000
8F10000000
BD00000000
EFFFFFFF30
0000000000
0000000000
0000000000
0FFFFF2000
ENDCHAR
STARTCHAR uni1E3B
ENCODING 7739
SWIDTH 600 0
DWIDTH 12 0
BBX 8 18 2 -4
BITMAP
1FFFFB00
0001F700
0004F400
0007F100
000AD000
000EA000
002F7000
005F3000
008F0000
00BC0000
00E90000
01F70000
00DB1150
003CFEB1
00000000
00000000
00000000
09FFFF70
ENDCHAR
STARTCHAR uni1E3E
ENCODING 7742
SWIDTH 600 0
DWIDTH 12 0
BBX 12 17 0 0
BITMAP
000000002B30
00000007FB20
0000003C4000
000000000000
003FD00005FA
006FF0000DF7
009CF2007CE4
00C9F401E8F1
00F7D609B8D0
03F4B82F3BA0
06F199AA0E70
09D07CE22F40
0CA05F905F10
0F6027109D00
3F300000CA00
6F100000E700
9C000003F400
ENDCHAR
STARTCHAR uni1E3F
ENCODING 7743
SWIDTH 600 0
DWIDTH 12 0
BBX 12 16 0 0
BITMAP
000000003B00
00000004ED20
0000005FA100
000000970000
000000000000
000000000000
02F2AEA19EC1
05F927FA36F5
08E106F304F4
0BB008D007F1
0E800BA00AD0
2F500E800DA0
5F302F501F70
8F005F204F40
BC008E006F10
E900BB009D00
ENDCHAR
STARTCHAR uni1E40
ENCODING 7744
SWIDTH 600 0
DWIDTH 12 0
BBX 12 16 0 0
BITMAP
0000001DA000
0000002E9000
000000000000
003FD00005FA
006FF0000DF7
009CF2007CE4
00C9F401E8F1
00F7D609B8D0
03F4B82F3BA0
06F199AA0E70
09D07CE22F40
0CA05F905F10
0F6027109D00
3F300000CA00
6F100000E700
9C000003F400
ENDCHAR
STARTCHAR uni1E41
ENCODING 7745
SWIDTH 600 0
DWIDTH 12 0
BBX 12 14 0 0
BITMAP
0000006E9000
0000007E7000
000000000000
000000000000
02F2AEA19EC1
05F927FA36F5
08E106F304F4
0BB008D007F1
0E800BA00AD0
2F500E800DA0
5F302F501F70
8F005F204F40
BC008E006F10
E900BB009D00
ENDCHAR
STARTCHAR uni1E42
ENCODING 7746
SWIDTH 600 0
DWIDTH 12 0
BBX 12 17 0 -4
BITMAP
003FD00005FA
006FF0000DF7
009CF2007CE4
00C9F401E8F1
00F7D609B8D0
03F4B82F3BA0
06F199AA0E70
09D07CE22F40
0CA05F905F10
0F6027109D00
3F300000CA00
6F100000E700
9C000003F400
000000000000
000000000000
000BE4000000
001DD2000000
ENDCHAR
STARTCHAR uni1E43
ENCODING 7747
SWIDTH 600 0
DWIDTH 12 0
BBX 12 14 0 -4
BITMAP
02F2AEA19EC1
05F927FA36F5
08E106F304F4
0BB008D007F1
0E800BA00AD0
2F500E800DA0
5F302F501F70
8F005F204F40
BC008E006F10
E900BB009D00
000000000000
000000000000
0009E6000000
000BE5000000
ENDCHAR
STARTCHAR uni1E44
ENCODING 7748
SWIDTH 600 0
DWIDTH 12 0
BBX 12 16 0 0
BITMAP
0000001DA000
0000002E9000
000000000000
000ED00000E9
003FF30001F6
006EC80004F3
009B8C0007E0
00C94F200AC0
00F70E700E90
03F409C01F60
06F104F24F30
09D000E67E00
0CA000AA9C00
0F70005EB900
3F40000EF500
6F10000AF200
ENDCHAR
STARTCHAR uni1E45
ENCODING 7749
SWIDTH 600 0
DWIDTH 12 0
BBX 11 14 0 0
BITMAP
0000005EA000
0000007E8000
000000000000
000000000000
007D03AEEA00
00AB79316F60
00CE50000F90
01F700001F80
03F400004F50
06F100007F20
09D00000AE00
0CB00000DB00
0F800001F800
3F500003F500
ENDCHAR
STARTCHAR uni1E46
ENCODING 7750
SWIDTH 600 0
DWIDTH 12 0
BBX 12 17 0 -4
BITMAP
000ED00000E9
003FF30001F6
006EC80004F3
009B8C0007E0
00C94F200AC0
00F70E700E90
03F409C01F60
06F104F24F30
09D000E67E00
0CA000AA9C00
0F70005EB900
3F40000EF500
6F10000AF200
000000000000
000000000000
0008E7000000
0009E6000000
ENDCHAR
STARTCHAR uni1E47
ENCODING 7751
SWIDTH 600 0
DWIDTH 12 0
BBX 11 14 0 -4
BITMAP
007D03AEEA00
00AB79316F60
00CE50000F90
01F700001F80
03F400004F50
06F100007F20
09D00000AE00
0CB00000DB00
0F800001F800
3F500003F500
000000000000
000000000000
0006E9000000
0008E7000000
ENDCHAR
STARTCHAR uni1E48
ENCODING 7752
SWIDTH 600 0
DWIDTH 12 0
BBX 12 17 0 -4
BITMAP
000ED00000E9
003FF30001F6
006EC80004F3
009B8C0007E0
00C94F200AC0
00F70E700E90
03F409C01F60
06F104F24F30
09D000E67E00
0CA000AA9C00
0F70005EB900
3F40000EF500
6F10000AF200
000000000000
000000000000
000000000000
01FFFFF00000
ENDCHAR
STARTCHAR uni1E49
ENCODING 7753
SWIDTH 600 0
DWIDTH 12 0
BBX 11 14 0 -4
BITMAP
007D03AEEA00
00AB79316F60
00CE50000F90
01F700001F80
03F400004F50
06F100007F20
09D00000AE00
0CB00000DB00
0F800001F800
3F500003F500
000000000000
000000000000
000000000000
00FFFFF20000
ENDCHAR
STARTCHAR uni1E52
ENCODING 7762
SWIDTH 600 0
DWIDTH 12 0
BBX 12 20 0 0
BITMAP
000000000A40
00000000BC20
00000005A000
000000000000
00000CFFFF50
000000000000
000000000000
00004BEEB400
0008E6117F40
007F30000BD0
02E8000006F3
08F1000004F5
0DB0000004F5
1F80000006F3
2F70000009F0
2F7000000DA0
1F8000005F40
0BD00002E900
03E9215DA000
003BEEC60000
ENDCHAR
STARTCHAR uni1E53
ENCODING 7763
SWIDTH 600 0
DWIDTH 12 0
BBX 11 17 0 0
BITMAP
000000006800
00000004E400
0000000A3000
000000000000
00004FFFFC00
000000000000
000000000000
00029DFD7000
004EA214EA00
02EA00005F40
09E100001F80
0EA000000F80
1F8000002F60
0F9000008F20
0CD00003F800
03F9216EA000
003BEEB50000
ENDCHAR
STARTCHAR uni1E58
ENCODING 7768
SWIDTH 600 0
DWIDTH 12 0
BBX 11 16 0 0
BITMAP
0000001DA000
0000002E9000
000000000000
000CFFFEC700
000F70017F90
003F50000AE0
006F20000AE0
009E00001E90
00CB0025DC10
00FFFFFC6000
03F404F50000
06F100DB0000
09D0008F2000
0CB0002F7000
0F80000CD000
3F500007F400
ENDCHAR
STARTCHAR uni1E59
ENCODING 7769
SWIDTH 600 0
DWIDTH 12 0
BBX 9 14 2 0
BITMAP
00001CE300
00001DD200
0000000000
0000000000
03F118DFB0
06E1B51130
09C9100000
0CD1000000
0F60000000
3F30000000
6F10000000
9D00000000
CB00000000
E800000000
ENDCHAR
STARTCHAR uni1E5A
ENCODING 7770
SWIDTH 600 0
DWIDTH 12 0
BBX 11 17 0 -4
BITMAP
000CFFFEC700
000F70017F90
003F50000AE0
006F20000AE0
009E00001E90
00CB0025DC10
00FFFFFC6000
03F404F50000
06F100DB0000
09D0008F2000
0CB0002F7000
0F80000CD000
3F500007F400
000000000000
000000000000
0005EA000000
0006E9000000
ENDCHAR
STARTCHAR uni1E5B
ENCODING 7771
SWIDTH 600 0
DWIDTH 12 0
BBX 10 14 1 -4
BITMAP
003F118DFB
006E1B5113
009C910000
00CD100000
00F6000000
03F3000000
06F1000000
09D0000000
0CB0000000
0E80000000
0000000000
0000000000
BE40000000
CE30000000
ENDCHAR
STARTCHAR uni1E5C
ENCODING 7772
SWIDTH 600 0
DWIDTH 12 0
BBX 11 20 0 -4
BITMAP
00000CFFFF40
000000000000
000000000000
000CFFFEC700
000F70017F90
003F50000AE0
006F20000AE0
009E00001E90
00CB0025DC10
00FFFFFC6000
03F404F50000
06F100DB0000
09D0008F2000
0CB0002F7000
0F80000CD000
3F500007F400
000000000000
000000000000
0005EA000000
0006E9000000
ENDCHAR
STARTCHAR uni1E5D
ENCODING 7773
SWIDTH 600 0
DWIDTH 12 0
BBX 10 17 1 -4
BITMAP
00008FFFF8
0000000000
0000000000
003F118DFB
006E1B5113
009C910000
00CD100000
00F6000000
03F3000000
06F1000000
09D0000000
0CB0000000
0E80000000
0000000000
0000000000
BE40000000
CE30000000
ENDCHAR
STARTCHAR uni1E5E
ENCODING 7774
SWIDTH 600 0
DWIDTH 12 0
BBX 11 17 0 -4
BITMAP
000CFFFEC700
000F70017F90
003F50000AE0
006F20000AE0
009E00001E90
00CB0025DC10
00FFFFFC6000
03F404F50000
06F100DB0000
09D0008F2000
0CB0002F7000
0F80000CD000
3F500007F400
000000000000
000000000000
000000000000
00DFFFF30000
ENDCHAR
STARTCHAR uni1E5F
ENCODING 7775
SWIDTH 600 0
DWIDTH 12 0
BBX 12 14 -1 -4
BITMAP
00003F118DFB
00006E1B5113
00009C910000
0000CD100000
0000F6000000
0003F3000000
0006F1000000
0009D0000000
000CB0000000
000E80000000
000000000000
000000000000
000000000000
5FFFFB000000
ENDCHAR
STARTCHAR uni1E60
ENCODING 7776
SWIDTH 600 0
DWIDTH 12 0
BBX 11 16 0 0
BITMAP
0000004E6000
0000005E5000
000000000000
00005CFEC600
0007F6128F70
001E90000400
002F70000000
000DD2000000
0004EE700000
00002BFD3000
0000005EE200
00000003F800
00000000EA00
19300003F700
0CE6114DC100
007CEEC71000
ENDCHAR
STARTCHAR uni1E61
ENCODING 7777
SWIDTH 600 0
DWIDTH 12 0
BBX 10 14 1 0
BITMAP
000009E600
00000AE500
0000000000
0000000000
003AEFD920
02E8114BE1
06F1000020
04F9100000
007FEA4000
00017DFA00
0000007F50
2200000F70
9E72018E20
06BEFDA300
ENDCHAR
STARTCHAR uni1E62
ENCODING 7778
SWIDTH 600 0
DWIDTH 12 0
BBX 11 17 0 -4
BITMAP
00005CFEC600
0007F6128F70
001E90000400
002F70000000
000DD2000000
0004EE700000
00002BFD3000
0000005EE200
00000003F800
00000000EA00
19300003F700
0CE6114DC100
007CEEC71000
000000000000
000000000000
0005EA000000
0006E9000000
ENDCHAR
STARTCHAR uni1E63
ENCODING 7779
SWIDTH 600 0
DWIDTH 12 0
BBX 10 14 1 -4
BITMAP
003AEFD920
02E8114BE1
06F1000020
04F9100000
007FEA4000
00017DFA00
0000007F50
2200000F70
9E72018E20
06BEFDA300
0000000000
0000000000
005EB00000
006E900000
ENDCHAR
STARTCHAR uni1E6C
ENCODING 7788
SWIDTH 600 0
DWIDTH 12 0
BBX 11 17 2 -4
BITMAP
EFFFFFFFFF50
0000CB000000
0000F9000000
0003F6000000
0006F3000000
0009F0000000
000CC0000000
000E90000000
002F60000000
005F30000000
008F00000000
00BC00000000
00E900000000
000000000000
000000000000
0BE400000000
1DD200000000
ENDCHAR
STARTCHAR uni1E6D
ENCODING 7789
SWIDTH 600 0
DWIDTH 12 0
BBX 10 17 1 -4
BITMAP
0000A90000
0000E60000
0004F30000
6EFFFFFFFB
000CB00000
000F800000
003F500000
006F200000
009E000000
00BC000000
00BC000000
008F512720
0019EEDA30
0000000000
0000000000
0005EA0000
0007E80000
ENDCHAR
STARTCHAR uni1E6E
ENCODING 7790
SWIDTH 600 0
DWIDTH 12 0
BBX 12 17 1 -4
BITMAP
0EFFFFFFFFF5
00000CB00000
00000F900000
00003F600000
00006F300000
00009F000000
0000CC000000
0000E9000000
0002F6000000
0005F3000000
0008F0000000
000BC0000000
000E90000000
000000000000
000000000000
000000000000
6FFFFB000000
ENDCHAR
STARTCHAR uni1E6F
ENCODING 7791
SWIDTH 600 0
DWIDTH 12 0
BBX 10 17 1 -4
BITMAP
0000A90000
0000E60000
0004F30000
6EFFFFFFFB
000CB00000
000F800000
003F500000
006F200000
009E000000
00BC000000
00BC000000
008F512720
0019EEDA30
0000000000
0000000000
0000000000
00EFFFF300
ENDCHAR
STARTCHAR uni1E7E
ENCODING 7806
SWIDTH 600 0
DWIDTH 12 0
BBX 11 17 2 -4
BITMAP
8F1000005F60
6F300000CC00
5F400005F400
3F50000DB000
2F60006F3000
0F8000DA0000
0E9006F20000
0CA00D900000
0AB07E100000
09D0E8000000
07E6E1000000
06FE70000000
04FD00000000
000000000000
000000000000
0CE300000000
1DD200000000
ENDCHAR
STARTCHAR uni1E7F
ENCODING 7807
SWIDTH 600 0
DWIDTH 12 0
BBX 11 14 1 -4
BITMAP
2F6000003F50
0E900000CB00
0BC00005F300
07F0001D9000
04F3008E1000
01F602F60000
00D90AC00000
009C3F300000
006FB9000000
003FE1000000
000000000000
000000000000
00AE50000000
00CE40000000
ENDCHAR
STARTCHAR Wgrave
ENCODING 7808
SWIDTH 600 0
DWIDTH 12 0
BBX 12 18 1 0
BITMAP
00003A000000
00005F800000
000007F50000
000000870000
000000000000
2F50000000CA
3F40000001F6
4F30000006F1
5F1016200AB0
6F007F501E60
7E00DD705F20
8D05D9809C00
9C0C7890E700
AB3E17A3F300
B9A906C7D000
C9F205DB8000
DDB004EE4000
DF4003FE0000
ENDCHAR
STARTCHAR wgrave
ENCODING 7809
SWIDTH 600 0
DWIDTH 12 0
BBX 13 16 0 0
BITMAP
00000790000000
000008F5000000
000000AE100000
0000000B400000
00000000000000
00000000000000
1F700273004F40
1F7009F600AC00
0F701EC701E600
0F707CB706E100
0F70D6A80C9000
0E74E1A83F3000
0E7A90A99C0000
0E8F3099E60000
0DDC009DE10000
0DF5009F900000
ENDCHAR
STARTCHAR Wacute
ENCODING 7810
SWIDTH 600 0
DWIDTH 12 0
BBX 12 17 1 0
BITMAP
00000003B200
0000007FA200
000004B30000
000000000000
2F50000000CA
3F40000001F6
4F30000006F1
5F1016200AB0
6F007F501E60
7E00DD705F20
8D05D9809C00
9C0C7890E700
AB3E17A3F300
B9A906C7D000
C9F205DB8000
DDB004EE4000
DF4003FE0000
ENDCHAR
STARTCHAR wacute
ENCODING 7811
SWIDTH 600 0
DWIDTH 12 0
BBX 13 16 0 0
BITMAP
00000000770000
00000008F90000
000000AE600000
000001B3000000
00000000000000
00000000000000
1F700273004F40
1F7009F600AC00
0F701EC701E600
0F707CB706E100
0F70D6A80C9000
0E74E1A83F3000
0E7A90A99C0000
0E8F3099E60000
0DDC009DE10000
0DF5009F900000
ENDCHAR
STARTCHAR Wdieresis
ENCODING 7812
SWIDTH 600 0
DWIDTH 12 0
BBX 12 16 1 0
BITMAP
0000B902D500
0000C802E400
000000000000
2F50000000CA
3F40000001F6
4F30000006F1
5F1016200AB0
6F007F501E60
7E00DD705F20
8D05D9809C00
9C0C7890E700
AB3E17A3F300
B9A906C7D000
C9F205DB8000
DDB004EE4000
DF4003FE0000
ENDCHAR
STARTCHAR wdieresis
ENCODING 7813
SWIDTH 600 0
DWIDTH 12 0
BBX 13 14 0 0
BITMAP
00006E20AC0000
00007D20BB0000
00000000000000
00000000000000
1F700273004F40
1F7009F600AC00
0F701EC701E600
0F707CB706E100
0F70D6A80C9000
0E74E1A83F3000
0E7A90A99C0000
0E8F3099E60000
0DDC009DE10000
0DF5009F900000
ENDCHAR
STARTCHAR uni1E8E
ENCODING 7822
SWIDTH 600 0
DWIDTH 12 0
BBX 11 16 2 0
BITMAP
00003E700000
00005E600000
000000000000
AE0000007F30
5F400003F600
0E80001DA000
0AD0009D1000
05F204F40000
00E61D800000
00AB8C000000
005FE2000000
002F60000000
005F30000000
008F00000000
00BC00000000
00E900000000
ENDCHAR
STARTCHAR uni1E8F
ENCODING 7823
SWIDTH 600 0
DWIDTH 12 0
BBX 13 18 -1 -4
BITMAP
0000000BE40000
0000000CE30000
00000000000000
00000000000000
002F5000004F50
000D900000CB00
0009C00006F200
0006F1001E8000
0002F4009D1000
0000D803F50000
00009B0CA00000
00005E5E200000
00001FD7000000
00000ED0000000
00006F40000000
0001E900000000
212CC100000000
9FD81000000000
ENDCHAR
STARTCHAR uni1E90
ENCODING 7824
SWIDTH 600 0
DWIDTH 12 0
BBX 12 17 0 0
BITMAP
0000009FE100
00000AD3BB00
000069101B30
000000000000
005FFFFFFFF8
000000002EC1
00000000CE20
00000009F400
0000005F8000
000003EB0000
00001DD10000
0000AF300000
0007F6000000
004F90000000
02EC00000000
0CE200000000
7FFFFFFFFC00
ENDCHAR
STARTCHAR uni1E91
ENCODING 7825
SWIDTH 600 0
DWIDTH 12 0
BBX 11 15 0 0
BITMAP
000001CFB000
00002D93E700
0000B5003B00
000000000000
000000000000
009FFFFFFF90
00000002DC10
0000001DD100
000001CD2000
00000BE20000
0000AE300000
0009F4000000
008F50000000
06F700000000
3FFFFFFFF600
ENDCHAR
STARTCHAR uni1E92
ENCODING 7826
SWIDTH 600 0
DWIDTH 12 0
BBX 12 17 0 -4
BITMAP
005FFFFFFFF8
000000002EC1
00000000CE20
00000009F400
0000005F8000
000003EB0000
00001DD10000
0000AF300000
0007F6000000
004F90000000
02EC00000000
0CE200000000
7FFFFFFFFC00
000000000000
000000000000
0003EC000000
0005EA000000
ENDCHAR
STARTCHAR uni1E93
ENCODING 7827
SWIDTH 600 0
DWIDTH 12 0
BBX 11 14 0 -4
BITMAP
009FFFFFFF90
00000002DC10
0000001DD100
000001CD2000
00000BE20000
0000AE300000
0009F4000000
008F50000000
06F700000000
3FFFFFFFF600
000000000000
000000000000
0005EA000000
0006E9000000
ENDCHAR
STARTCHAR uni1E94
ENCODING 7828
SWIDTH 600 0
DWIDTH 12 0
BBX 12 17 0 -4
BITMAP
005FFFFFFFF8
000000002EC1
00000000CE20
00000009F400
0000005F8000
000003EB0000
00001DD10000
0000AF300000
0007F6000000
004F90000000
02EC00000000
0CE200000000
7FFFFFFFFC00
000000000000
000000000000
000000000000
00CFFFF50000
ENDCHAR
STARTCHAR uni1E95
ENCODING 7829
SWIDTH 600 0
DWIDTH 12 0
BBX 11 14 0 -4
BITMAP
009FFFFFFF90
00000002DC10
0000001DD100
000001CD2000
00000BE20000
0000AE300000
0009F4000000
008F50000000
06F700000000
3FFFFFFFF600
000000000000
000000000000
000000000000
00DFFFF30000
ENDCHAR
STARTCHAR uni1E96
ENCODING 7830
SWIDTH 600 0
DWIDTH 12 0
BBX 11 18 0 -4
BITMAP
0008F0000000
000BC0000000
000E90000000
002F50000000
005F23AEEA00
008E79316F60
00BE50000F90
00E700001F80
02F400004F50
06F100007F20
09D00000AE00
0CA00000DB00
0E800001F800
3F500003F500
000000000000
000000000000
000000000000
00FFFFF20000
ENDCHAR
STARTCHAR uni1E97
ENCODING 7831
SWIDTH 600 0
DWIDTH 12 0
BBX 10 17 1 0
BITMAP
002E705E30
003E606E20
0000000000
0000000000
0000A90000
0000E60000
0004F30000
6EFFFFFFFB
000CB00000
000F800000
003F500000
006F200000
009E000000
00BC000000
00BC000000
008F512720
0019EEDA30
ENDCHAR
STARTCHAR uni1E9E
ENCODING 7838
SWIDTH 600 0
DWIDTH 12 0
BBX 11 13 0 0
BITMAP
00003AEFD600
0005F9214E70
002E800008E0
008E10005F80
00DA0004F800
01F7003E8000
04F400AF7100
07F10016ED20
0AD000002EA0
0EA000000BC0
2F7000000DA0
5F42C402AE20
8F107DFEA200
ENDCHAR
STARTCHAR uni1EA0
ENCODING 7840
SWIDTH 600 0
DWIDTH 12 0
BBX 11 17 -1 -4
BITMAP
00000009F800
0000003FC900
000000BA9B00
000004F27D00
00000CA06F00
00005F304F20
0000DB003F40
0007F3002F60
001EFFFFFF80
008F20000D90
02F800000CB0
0AE100000AD0
3F70000009F0
000000000000
000000000000
00007E800000
00009E600000
ENDCHAR
STARTCHAR uni1EA1
ENCODING 7841
SWIDTH 600 0
DWIDTH 12 0
BBX 10 14 1 -4
BITMAP
0018DFD65E
02DC303BDC
0CC10001F9
5F400002F6
AD000005F3
DA000007F0
EA00000AC0
CD00002E90
6F7117AF60
07DFC62F30
0000000000
0000000000
008E700000
009E600000
ENDCHAR
STARTCHAR uni1EA2
ENCODING 7842
SWIDTH 600 0
DWIDTH 12 0
BBX 11 18 -1 0
BITMAP
00000007D800
000000006F20
000000018D00
00000006B200
000000000000
00000009F800
0000003FC900
000000BA9B00
000004F27D00
00000CA06F00
00005F304F20
0000DB003F40
0007F3002F60
001EFFFFFF80
008F20000D90
02F800000CB0
0AE100000AD0
3F70000009F0
ENDCHAR
STARTCHAR uni1EA3
ENCODING 7843
SWIDTH 600 0
DWIDTH 12 0
BBX 10 15 1 0
BITMAP
000005E900
0000004F40
0000006F20
000004C400
0000000000
0018DFD65E
02DC303BDC
0CC10001F9
5F400002F6
AD000005F3
DA000007F0
EA00000AC0
CD00002E90
6F7117AF60
07DFC62F30
ENDCHAR
STARTCHAR uni1EA4
ENCODING 7844
SWIDTH 600 0
DWIDTH 12 0
BBX 14 18 -1 0
BITMAP
000000000002B3
00000000002B40
00000007EE4000
0000008814C100
00000000000000
00000009F80000
0000003FC90000
000000BA9B0000
000004F27D0000
00000CA06F0000
00005F304F2000
0000DB003F4000
0007F3002F6000
001EFFFFFF8000
008F20000D9000
02F800000CB000
0AE100000AD000
3F70000009F000
ENDCHAR
STARTCHAR uni1EA5
ENCODING 7845
SWIDTH 600 0
DWIDTH 12 0
BBX 12 16 1 0
BITMAP
0000000000A4
000000000AB1
000007FC4A00
00008E6D9000
0001B202B000
000000000000
0018DFD65E00
02DC303BDC00
0CC10001F900
5F400002F600
AD000005F300
DA000007F000
EA00000AC000
CD00002E9000
6F7117AF6000
07DFC62F3000
ENDCHAR
STARTCHAR uni1EA6
ENCODING 7846
SWIDTH 600 0
DWIDTH 12 0
BBX 12 18 -1 0
BITMAP
00000B300000
000003B10000
00000007EE40
0000008814C1
000000000000
00000009F800
0000003FC900
000000BA9B00
000004F27D00
00000CA06F00
00005F304F20
0000DB003F40
0007F3002F60
001EFFFFFF80
008F20000D90
02F800000CB0
0AE100000AD0
3F70000009F0
ENDCHAR
STARTCHAR uni1EA7
ENCODING 7847
SWIDTH 600 0
DWIDTH 12 0
BBX 10 16 1 0
BITMAP
00A5000000
006E100000
000957FC00
00008E6D90
0001B202B0
0000000000
0018DFD65E
02DC303BDC
0CC10001F9
5F400002F6
AD000005F3
DA000007F0
EA00000AC0
CD00002E90
6F7117AF60
07DFC62F30
ENDCHAR
STARTCHAR uni1EA8
ENCODING 7848
SWIDTH 600 0
DWIDTH 12 0
BBX 14 19 -1 0
BITMAP
00000000002E80
000000000003F2
000000000005E0
00000007EE4D40
0000008814C100
00000000000000
00000009F80000
0000003FC90000
000000BA9B0000
000004F27D0000
00000CA06F0000
00005F304F2000
0000DB003F4000
0007F3002F6000
001EFFFFFF8000
008F20000D9000
02F800000CB000
0AE100000AD000
3F70000009F000
ENDCHAR
STARTCHAR uni1EA9
ENCODING 7849
SWIDTH 600 0
DWIDTH 12 0
BBX 11 17 1 0
BITMAP
000000004E70
0000000006F0
0000000008C0
000006FC2C30
00007E6D9000
0001B202B000
000000000000
0018DFD65E00
02DC303BDC00
0CC10001F900
5F400002F600
AD000005F300
DA000007F000
EA00000AC000
CD00002E9000
6F7117AF6000
07DFC62F3000
ENDCHAR
STARTCHAR uni1EAA
ENCODING 7850
SWIDTH 600 0
DWIDTH 12 0
BBX 13 19 -1 0
BITMAP
0000002DE71B20
000000953CE800
00000000000000
00000007EE4000
0000008814C100
00000000000000
00000009F80000
0000003FC90000
000000BA9B0000
000004F27D0000
00000CA06F0000
00005F304F2000
0000DB003F4000
0007F3002F6000
001EFFFFFF8000
008F20000D9000
02F800000CB000
0AE100000AD000
3F70000009F000
ENDCHAR
STARTCHAR uni1EAB
ENCODING 7851
SWIDTH 600 0
DWIDTH 12 0
BBX 10 16 1 0
BITMAP
00002BB429
0000A66DE4
000019ED30
0000B715C1
0000000000
0000000000
0018DFD65E
02DC303BDC
0CC10001F9
5F400002F6
AD000005F3
DA000007F0
EA00000AC0
CD00002E90
6F7117AF60
07DFC62F30
ENDCHAR
STARTCHAR uni1EAC
ENCODING 7852
SWIDTH 600 0
DWIDTH 12 0
BBX 12 21 -1 -4
BITMAP
00000006FF40
0000007E58D1
000003B20086
000000000000
00000009F800
0000003FC900
000000BA9B00
000004F27D00
00000CA06F00
00005F304F20
0000DB003F40
0007F3002F60
001EFFFFFF80
008F20000D90
02F800000CB0
0AE100000AD0
3F70000009F0
000000000000
000000000000
00007E800000
00009E600000
ENDCHAR
STARTCHAR uni1EAD
ENCODING 7853
SWIDTH 600 0
DWIDTH 12 0
BBX 10 19 1 -4
BITMAP
000007FE20
00009D3AC0
00069100A4
0000000000
0000000000
0018DFD65E
02DC303BDC
0CC10001F9
5F400002F6
AD000005F3
DA000007F0
EA00000AC0
CD00002E90
6F7117AF60
07DFC62F30
0000000000
0000000000
008E700000
009E600000
ENDCHAR
STARTCHAR uni1EAE
ENCODING 7854
SWIDTH 600 0
DWIDTH 12 0
BBX 12 19 -1 0
BITMAP
0000000002B2
000000102DA2
000000D2784B
000000AA13D4
0000002BEC40
000000000000
00000009F800
0000003FC900
000000BA9B00
000004F27D00
00000CA06F00
00005F304F20
0000DB003F40
0007F3002F60
001EFFFFFF80
008F20000D90
02F800000CB0
0AE100000AD0
3F70000009F0
ENDCHAR
STARTCHAR uni1EAF
ENCODING 7855
SWIDTH 600 0
DWIDTH 12 0
BBX 10 17 1 0
BITMAP
00000003B1
0000002E90
0000108601
0003D0003D
0001E614D5
00004DEC40
0000000000
0018DFD65E
02DC303BDC
0CC10001F9
5F400002F6
AD000005F3
DA000007F0
EA00000AC0
CD00002E90
6F7117AF60
07DFC62F30
ENDCHAR
STARTCHAR uni1EB0
ENCODING 7856
SWIDTH 600 0
DWIDTH 12 0
BBX 12 19 -1 0
BITMAP
00000005A000
00000012E501
000000D2594B
000000AA13D4
0000002BEC40
000000000000
00000009F800
0000003FC900
000000BA9B00
000004F27D00
00000CA06F00
00005F304F20
0000DB003F40
0007F3002F60
001EFFFFFF80
008F20000D90
02F800000CB0
0AE100000AD0
3F70000009F0
ENDCHAR
STARTCHAR uni1EB1
ENCODING 7857
SWIDTH 600 0
DWIDTH 12 0
BBX 10 17 1 0
BITMAP
0000068000
000003F300
0000107701
0003D0003D
0001E614D5
00004DEC40
0000000000
0018DFD65E
02DC303BDC
0CC10001F9
5F400002F6
AD000005F3
DA000007F0
EA00000AC0
CD00002E90
6F7117AF60
07DFC62F30
ENDCHAR
STARTCHAR uni1EB2
ENCODING 7858
SWIDTH 600 0
DWIDTH 12 0
BBX 12 20 -1 0
BITMAP
00000000AC30
000000001B90
000000101C61
000000D2894B
000000AA13D4
0000002BEC40
000000000000
00000009F800
0000003FC900
000000BA9B00
000004F27D00
00000CA06F00
00005F304F20
0000DB003F40
0007F3002F60
001EFFFFFF80
008F20000D90
02F800000CB0
0AE100000AD0
3F70000009F0
ENDCHAR
STARTCHAR uni1EB3
ENCODING 7859
SWIDTH 600 0
DWIDTH 12 0
BBX 10 17 1 0
BITMAP
000000CB20
0000001C80
0000102D61
0003D0A83D
0001E614D5
00004DEC40
0000000000
0018DFD65E
02DC303BDC
0CC10001F9
5F400002F6
AD000005F3
DA000007F0
EA00000AC0
CD00002E90
6F7117AF60
07DFC62F30
ENDCHAR
STARTCHAR uni1EB4
ENCODING 7860
SWIDTH 600 0
DWIDTH 12 0
BBX 13 19 -1 0
BITMAP
0000002DE71B20
000000953BE800
00000010000100
000000C602A800
0000004CFD7000
00000000000000
00000009F80000
0000003FC90000
000000BA9B0000
000004F27D0000
00000CA06F0000
00005F304F2000
0000DB003F4000
0007F3002F6000
001EFFFFFF8000
008F20000D9000
02F800000CB000
0AE100000AD000
3F70000009F000
ENDCHAR
STARTCHAR uni1EB5
ENCODING 7861
SWIDTH 600 0
DWIDTH 12 0
BBX 10 16 1 0
BITMAP
00002BB42A
0000B66DE5
0000100010
0001E402C5
00006EFC60
0000000000
0018DFD65E
02DC303BDC
0CC10001F9
5F400002F6
AD000005F3
DA000007F0
EA00000AC0
CD00002E90
6F7117AF60
07DFC62F30
ENDCHAR
STARTCHAR uni1EB6
ENCODING 7862
SWIDTH 600 0
DWIDTH 12 0
BBX 12 21 -1 -4
BITMAP
000000C3003B
000000B913D5
0000002CEC50
000000000000
00000009F800
0000003FC900
000000BA9B00
000004F27D00
00000CA06F00
00005F304F20
0000DB003F40
0007F3002F60
001EFFFFFF80
008F20000D90
02F800000CB0
0AE100000AD0
3F70000009F0
000000000000
000000000000
00007E800000
00009E600000
ENDCHAR
STARTCHAR uni1EB7
ENCODING 7863
SWIDTH 600 0
DWIDTH 12 0
BBX 10 19 1 -4
BITMAP
0000100001
0003E0004D
0001E714D5
00004DEC50
0000000000
0018DFD65E
02DC303BDC
0CC10001F9
5F400002F6
AD000005F3
DA000007F0
EA00000AC0
CD00002E90
6F7117AF60
07DFC62F30
0000000000
0000000000
008E700000
009E600000
ENDCHAR
STARTCHAR uni1EB8
ENCODING 7864
SWIDTH 600 0
DWIDTH 12 0
BBX 11 17 1 -4
BITMAP
004FFFFFFFC0
007F00000000
00AD00000000
00DA00000000
01F800000000
04F500000000
07FFFFFF9000
0AE000000000
0DB000000000
1F8000000000
4F5000000000
7F2000000000
AFFFFFFF9000
000000000000
000000000000
001CE3000000
002DD1000000
ENDCHAR
STARTCHAR uni1EB9
ENCODING 7865
SWIDTH 600 0
DWIDTH 12 0
BBX 10 14 1 -4
BITMAP
0007CFEA20
01CD412BD0
0BD10002F5
4F400000F7
9FFFFFFFF5
BC00000000
AE00000000
7F40000100
1DD4116D60
02AEFEB500
0000000000
0000000000
004EB00000
006E900000
ENDCHAR
STARTCHAR uni1EBA
ENCODING 7866
SWIDTH 600 0
DWIDTH 12 0
BBX 11 18 1 0
BITMAP
000000BC4000
0000001AC000
0000002C9000
000000A90000
000000000000
004FFFFFFFC0
007F00000000
00AD00000000
00DA00000000
01F800000000
04F500000000
07FFFFFF9000
0AE000000000
0DB000000000
1F8000000000
4F5000000000
7F2000000000
AFFFFFFF9000
ENDCHAR
STARTCHAR uni1EBB
ENCODING 7867
SWIDTH 600 0
DWIDTH 12 0
BBX 10 15 1 0
BITMAP
000007D700
0000006F20
0000018E00
000006B300
0000000000
0007CFEA20
01CD412BD0
0BD10002F5
4F400000F7
9FFFFFFFF5
BC00000000
AE00000000
7F40000100
1DD4116D60
02AEFEB500
ENDCHAR
STARTCHAR uni1EBC
ENCODING 7868
SWIDTH 600 0
DWIDTH 12 0
BBX 12 17 1 0
BITMAP
000001300020
00006EDC34E1
0000C308ED40
000000000000
004FFFFFFFC0
007F00000000
00AD00000000
00DA00000000
01F800000000
04F500000000
07FFFFFF9000
0AE000000000
0DB000000000
1F8000000000
4F5000000000
7F2000000000
AFFFFFFF9000
ENDCHAR
STARTCHAR uni1EBD
ENCODING 7869
SWIDTH 600 0
DWIDTH 12 0
BBX 11 15 1 0
BITMAP
00007A300810
0007D9E36D00
000C405ED300
000000000000
000000000000
0007CFEA2000
01CD412BD000
0BD10002F500
4F400000F700
9FFFFFFFF500
BC0000000000
AE0000000000
7F4000010000
1DD4116D6000
02AEFEB50000
ENDCHAR
STARTCHAR uni1EBE
ENCODING 7870
SWIDTH 600 0
DWIDTH 12 0
BBX 12 18 1 0
BITMAP
00000000004B
000000000592
000001AEC100
00001B607900
000000000000
004FFFFFFFC0
007F00000000
00AD00000000
00DA00000000
01F800000000
04F500000000
07FFFFFF9000
0AE000000000
0DB000000000
1F8000000000
4F5000000000
7F2000000000
AFFFFFFF9000
ENDCHAR
STARTCHAR uni1EBF
ENCODING 7871
SWIDTH 600 0
DWIDTH 12 0
BBX 12 16 1 0
BITMAP
0000000001B2
000000001CA0
000009FA5800
00009E6E6000
0002B103A000
000000000000
0007CFEA2000
01CD412BD000
0BD10002F500
4F400000F700
9FFFFFFFF500
BC0000000000
AE0000000000
7F4000010000
1DD4116D6000
02AEFEB50000
ENDCHAR
STARTCHAR uni1EC0
ENCODING 7872
SWIDTH 600 0
DWIDTH 12 0
BBX 11 18 1 0
BITMAP
0003B1000000
000069000000
000001AEC100
00001B607900
000000000000
004FFFFFFFC0
007F00000000
00AD00000000
00DA00000000
01F800000000
04F500000000
07FFFFFF9000
0AE000000000
0DB000000000
1F8000000000
4F5000000000
7F2000000000
AFFFFFFF9000
ENDCHAR
STARTCHAR uni1EC1
ENCODING 7873
SWIDTH 600 0
DWIDTH 12 0
BBX 10 16 1 0
BITMAP
00B3000000
008C000000
000A39FA00
00009E6E60
0002B103A0
0000000000
0007CFEA20
01CD412BD0
0BD10002F5
4F400000F7
9FFFFFFFF5
BC00000000
AE00000000
7F40000100
1DD4116D60
02AEFEB500
ENDCHAR
STARTCHAR uni1EC2
ENCODING 7874
SWIDTH 600 0
DWIDTH 12 0
BBX 12 19 1 0
BITMAP
0000000007D5
00000000008C
00000000009A
000001AEC6B2
00001B607900
000000000000
004FFFFFFFC0
007F00000000
00AD00000000
00DA00000000
01F800000000
04F500000000
07FFFFFF9000
0AE000000000
0DB000000000
1F8000000000
4F5000000000
7F2000000000
AFFFFFFF9000
ENDCHAR
STARTCHAR uni1EC3
ENCODING 7875
SWIDTH 600 0
DWIDTH 12 0
BBX 11 17 1 0
BITMAP
000000006D50
0000000008D0
0000000009A0
000008FB4B10
00009E6E7000
0002B103A000
000000000000
0007CFEA2000
01CD412BD000
0BD10002F500
4F400000F700
9FFFFFFFF500
BC0000000000
AE0000000000
7F4000010000
1DD4116D6000
02AEFEB50000
ENDCHAR
STARTCHAR uni1EC4
ENCODING 7876
SWIDTH 600 0
DWIDTH 12 0
BBX 11 19 1 0
BITMAP
000006EC43B0
00000C26DE40
000000000000
000001AEC100
00001B608900
000000000000
004FFFFFFFC0
007F00000000
00AD00000000
00DA00000000
01F800000000
04F500000000
07FFFFFF9000
0AE000000000
0DB000000000
1F8000000000
4F5000000000
7F2000000000
AFFFFFFF9000
ENDCHAR
STARTCHAR uni1EC5
ENCODING 7877
SWIDTH 600 0
DWIDTH 12 0
BBX 10 16 1 0
BITMAP
00003BA347
0000B57DD2
00002AEC20
0001C606B0
0000000000
0000000000
0007CFEA20
01CD412BD0
0BD10002F5
4F400000F7
9FFFFFFFF5
BC00000000
AE00000000
7F40000100
1DD4116D60
02AEFEB500
ENDCHAR
STARTCHAR uni1EC6
ENCODING 7878
SWIDTH 600 0
DWIDTH 12 0
BBX 11 21 1 -4
BITMAP
000000AFD100
00001BC3CA00
000078001B20
000000000000
004FFFFFFFC0
007F00000000
00AD00000000
00DA00000000
01F800000000
04F500000000
07FFFFFF9000
0AE000000000
0DB000000000
1F8000000000
4F5000000000
7F2000000000
AFFFFFFF9000
000000000000
000000000000
001CE3000000
002DD1000000
ENDCHAR
STARTCHAR uni1EC7
ENCODING 7879
SWIDTH 600 0
DWIDTH 12 0
BBX 10 19 1 -4
BITMAP
000009FD10
0001BC3CA0
00088001B2
0000000000
0000000000
0007CFEA20
01CD412BD0
0BD10002F5
4F400000F7
9FFFFFFFF5
BC00000000
AE00000000
7F40000100
1DD4116D60
02AEFEB500
0000000000
0000000000
004EB00000
006E900000
ENDCHAR
STARTCHAR uni1EC8
ENCODING 7880
SWIDTH 600 0
DWIDTH 12 0
BBX 12 18 0 0
BITMAP
0000007D8000
00000006F200
00000018D000
0000006B2000
000000000000
000CFFFFFFF5
000000CC0000
000000E90000
000002F60000
000005F30000
000008F00000
00000BC00000
00000E900000
00002F700000
00005F400000
00007F100000
0000AD000000
2FFFFFFFE000
ENDCHAR
STARTCHAR uni1EC9
ENCODING 7881
SWIDTH 600 0
DWIDTH 12 0
BBX 8 15 2 0
BITMAP
0001EB20
00002D90
00003D60
0000D700
00000000
CFFFF500
0007F100
000AD000
000DA000
002F7000
005F4000
008F1000
00AE0000
007F4132
0009EEC5
ENDCHAR
STARTCHAR uni1ECA
ENCODING 7882
SWIDTH 600 0
DWIDTH 12 0
BBX 12 17 0 -4
BITMAP
000CFFFFFFF5
000000CC0000
000000E90000
000002F60000
000005F30000
000008F00000
00000BC00000
00000E900000
00002F700000
00005F400000
00007F100000
0000AD000000
2FFFFFFFE000
000000000000
000000000000
000BE4000000
001DD2000000
ENDCHAR
STARTCHAR uni1ECB
ENCODING 7883
SWIDTH 600 0
DWIDTH 12 0
BBX 8 18 2 -4
BITMAP
0001DD20
0002DC10
00000000
00000000
CFFFF500
0007F100
000AD000
000DA000
002F7000
005F4000
008F1000
00AE0000
007F4132
0009EEC5
00000000
00000000
000CE300
001DD200
ENDCHAR
STARTCHAR uni1ECC
ENCODING 7884
SWIDTH 600 0
DWIDTH 12 0
BBX 12 17 0 -4
BITMAP
00004BEEB400
0008E6117F40
007F30000BD0
02E8000006F3
08F1000004F5
0DB0000004F5
1F80000006F3
2F70000009F0
2F7000000DA0
1F8000005F40
0BD00002E900
03E9215DA000
003BEEC60000
000000000000
000000000000
000CE3000000
001DD2000000
ENDCHAR
STARTCHAR uni1ECD
ENCODING 7885
SWIDTH 600 0
DWIDTH 12 0
BBX 11 14 0 -4
BITMAP
00029DFD7000
004EA214EA00
02EA00005F40
09E100001F80
0EA000000F80
1F8000002F60
0F9000008F20
0CD00003F800
03F9216EA000
003BEEB50000
000000000000
000000000000
000BE4000000
001DD2000000
ENDCHAR
STARTCHAR uni1ECE
ENCODING 7886
SWIDTH 600 0
DWIDTH 12 0
BBX 12 18 0 0
BITMAP
0000007D8000
00000006F200
00000018D000
0000006B2000
000000000000
00004BEEB400
0008E6117F40
007F30000BD0
02E8000006F3
08F1000004F5
0DB0000004F5
1F80000006F3
2F70000009F0
2F7000000DA0
1F8000005F40
0BD00002E900
03E9215DA000
003BEEC60000
ENDCHAR
STARTCHAR uni1ECF
ENCODING 7887
SWIDTH 600 0
DWIDTH 12 0
BBX 11 15 0 0
BITMAP
0000009D6000
00000018F000
0000001AC000
0000008A1000
000000000000
00029DFD7000
004EA214EA00
02EA00005F40
09E100001F80
0EA000000F80
1F8000002F60
0F9000008F20
0CD00003F800
03F9216EA000
003BEEB50000
ENDCHAR
STARTCHAR uni1ED0
ENCODING 7888
SWIDTH 600 0
DWIDTH 12 0
BBX 13 18 0 0
BITMAP
00000000002B30
0000000002B400
0000007EE40000
000008814C1000
00000000000000
00004BEEB40000
0008E6117F4000
007F30000BD000
02E8000006F300
08F1000004F500
0DB0000004F500
1F80000006F300
2F70000009F000
2F7000000DA000
1F8000005F4000
0BD00002E90000
03E9215DA00000
003BEEC6000000
ENDCHAR
STARTCHAR uni1ED1
ENCODING 7889
SWIDTH 600 0
DWIDTH 12 0
BBX 13 16 0 0
BITMAP
00000000002B10
0000000002D800
000000BF876000
00001BC6F40000
00004910580000
00000000000000
00029DFD700000
004EA214EA0000
02EA00005F4000
09E100001F8000
0EA000000F8000
1F8000002F6000
0F9000008F2000
0CD00003F80000
03F9216EA00000
003BEEB5000000
ENDCHAR
STARTCHAR uni1ED2
ENCODING 7890
SWIDTH 600 0
DWIDTH 12 0
BBX 12 18 0 0
BITMAP
0000B3000000
00003B100000
0000007EE400
000008814C10
000000000000
00004BEEB400
0008E6117F40
007F30000BD0
02E8000006F3
08F1000004F5
0DB0000004F5
1F80000006F3
2F70000009F0
2F7000000DA0
1F8000005F40
0BD00002E900
03E9215DA000
003BEEC60000
ENDCHAR
STARTCHAR uni1ED3
ENCODING 7891
SWIDTH 600 0
DWIDTH 12 0
BBX 11 16 0 0
BITMAP
002C10000000
000AA0000000
0001B2BF8000
00001BC6F400
000049105800
000000000000
00029DFD7000
004EA214EA00
02EA00005F40
09E100001F80
0EA000000F80
1F8000002F60
0F9000008F20
0CD00003F800
03F9216EA000
003BEEB50000
ENDCHAR
STARTCHAR uni1ED4
ENCODING 7892
SWIDTH 600 0
DWIDTH 12 0
BBX 13 19 0 0
BITMAP
0000000002E800
00000000003F20
00000000005E00
0000007EE4D400
000008814C1000
00000000000000
00004BEEB40000
0008E6117F4000
007F30000BD000
02E8000006F300
08F1000004F500
0DB0000004F500
1F80000006F300
2F70000009F000
2F7000000DA000
1F8000005F4000
0BD00002E90000
03E9215DA00000
003BEEC6000000
ENDCHAR
STARTCHAR uni1ED5
ENCODING 7893
SWIDTH 600 0
DWIDTH 12 0
BBX 12 17 0 0
BITMAP
0000000008C4
0000000001AB
0000000001B8
000000AF86A1
00001BC6F400
000049105900
000000000000
00029DFD7000
004EA214EA00
02EA00005F40
09E100001F80
0EA000000F80
1F8000002F60
0F9000008F20
0CD00003F800
03F9216EA000
003BEEB50000
ENDCHAR
STARTCHAR uni1ED6
ENCODING 7894
SWIDTH 600 0
DWIDTH 12 0
BBX 12 19 0 0
BITMAP
000002DE71B2
00000953CE80
000000000000
0000007EE400
000008814C10
000000000000
00004BEEB400
0008E6117F40
007F30000BD0
02E8000006F3
08F1000004F5
0DB0000004F5
1F80000006F3
2F70000009F0
2F7000000DA0
1F8000005F40
0BD00002E900
03E9215DA000
003BEEC60000
ENDCHAR
STARTCHAR uni1ED7
ENCODING 7895
SWIDTH 600 0
DWIDTH 12 0
BBX 11 16 0 0
BITMAP
000004B92650
00000C48EC10
000003CEB100
00003B408900
000000000000
000000000000
00029DFD7000
004EA214EA00
02EA00005F40
09E100001F80
0EA000000F80
1F8000002F60
0F9000008F20
0CD00003F800
03F9216EA000
003BEEB50000
ENDCHAR
STARTCHAR uni1ED8
ENCODING 7896
SWIDTH 600 0
DWIDTH 12 0
BBX 12 21 0 -4
BITMAP
0000006FF400
000007E58D10
00003B200860
000000000000
00004BEEB400
0008E6117F40
007F30000BD0
02E8000006F3
08F1000004F5
0DB0000004F5
1F80000006F3
2F70000009F0
2F7000000DA0
1F8000005F40
0BD00002E900
03E9215DA000
003BEEC60000
000000000000
000000000000
000CE3000000
001DD2000000
ENDCHAR
STARTCHAR uni1ED9
ENCODING 7897
SWIDTH 600 0
DWIDTH 12 0
BBX 11 19 0 -4
BITMAP
000001BFC000
00002CA3D800
0000A6002C10
000000000000
000000000000
00029DFD7000
004EA214EA00
02EA00005F40
09E100001F80
0EA000000F80
1F8000002F60
0F9000008F20
0CD00003F800
03F9216EA000
003BEEB50000
000000000000
000000000000
000BE4000000
001DD2000000
ENDCHAR
STARTCHAR uni1EDA
ENCODING 7898
SWIDTH 600 0
DWIDTH 12 0
BBX 13 17 0 0
BITMAP
000000002B3000
00000007FB2880
0000003C400AA0
00000000000D50
00004BEEB8A600
0008E6117F7000
007F30000BE000
02E8000006F300
08F1000004F500
0DB0000004F400
1F80000006F300
2F70000009E000
2F7000000DA000
1F8000005F3000
0BD00002E90000
03E9215DA00000
003BEEC6000000
ENDCHAR
STARTCHAR uni1EDB
ENCODING 7899
SWIDTH 600 0
DWIDTH 12 0
BBX 12 16 0 0
BITMAP
000000005900
00000006FB00
0000007F8000
000000B4005B
00000000006D
0000000000B7
00029DFD9B60
004EA214ED00
02EA00005F50
09E100001F80
0EA000000F80
1F8000002F60
0F9000008E10
0CD00003F800
03F9216EA000
003BEEB50000
ENDCHAR
STARTCHAR uni1EDC
ENCODING 7900
SWIDTH 600 0
DWIDTH 12 0
BBX 13 18 0 0
BITMAP
000002A0000000
000005F9000000
0000006F500880
00000007800AA0
00000000000D50
00004BEEB8A600
0008E6117F7000
007F30000BE000
02E8000006F300
08F1000004F500
0DB0000004F400
1F80000006F300
2F70000009E000
2F7000000DA000
1F8000005F3000
0BD00002E90000
03E9215DA00000
003BEEC6000000
ENDCHAR
STARTCHAR uni1EDD
ENCODING 7901
SWIDTH 600 0
DWIDTH 12 0
BBX 12 16 0 0
BITMAP
000005B00000
000006F70000
0000008F3000
00000009605B
00000000006D
0000000000B7
00029DFD9B60
004EA214ED00
02EA00005F50
09E100001F80
0EA000000F80
1F8000002F60
0F9000008E10
0CD00003F800
03F9216EA000
003BEEB50000
ENDCHAR
STARTCHAR uni1EDE
ENCODING 7902
SWIDTH 600 0
DWIDTH 12 0
BBX 13 18 0 0
BITMAP
0000007D800000
00000006F20000
00000018D00880
0000006B200AA0
00000000000D50
00004BEEB8A600
0008E6117F7000
007F30000BE000
02E8000006F300
08F1000004F500
0DB0000004F400
1F80000006F300
2F70000009E000
2F7000000DA000
1F8000005F3000
0BD00002E90000
03E9215DA00000
003BEEC6000000
ENDCHAR
STARTCHAR uni1EDF
ENCODING 7903
SWIDTH 600 0
DWIDTH 12 0
BBX 12 15 0 0
BITMAP
0000009D6000
00000018F000
0000001AC05B
0000008A106D
0000000000B7
00029DFD9B60
004EA214ED00
02EA00005F50
09E100001F80
0EA000000F80
1F8000002F60
0F9000008E10
0CD00003F800
03F9216EA000
003BEEB50000
ENDCHAR
STARTCHAR uni1EE0
ENCODING 7904
SWIDTH 600 0
DWIDTH 12 0
BBX 13 17 0 0
BITMAP
00000220011000
0000BDE8199880
0004B02BEB1AA0
00000000000D50
00004BEEB8A600
0008E6117F7000
007F30000BE000
02E8000006F300
08F1000004F500
0DB0000004F400
1F80000006F300
2F70000009E000
2F7000000DA000
1F8000005F3000
0BD00002E90000
03E9215DA00000
003BEEC6000000
ENDCHAR
STARTCHAR uni1EE1
ENCODING 7905
SWIDTH 600 0
DWIDTH 12 0
BBX 12 15 0 0
BITMAP
00006A400730
0005E9E53E10
000A603DD55B
00000000006D
0000000000B7
00029DFD9B60
004EA214ED00
02EA00005F50
09E100001F80
0EA000000F80
1F8000002F60
0F9000008E10
0CD00003F800
03F9216EA000
003BEEB50000
ENDCHAR
STARTCHAR uni1EE2
ENCODING 7906
SWIDTH 600 0
DWIDTH 12 0
BBX 13 20 0 -4
BITMAP
00000000000880
00000000000AA0
00000000000D50
00004BEEB8A600
0008E6117F7000
007F30000BE000
02E8000006F300
08F1000004F500
0DB0000004F400
1F80000006F300
2F70000009E000
2F7000000DA000
1F8000005F3000
0BD00002E90000
03E9215DA00000
003BEEC6000000
00000000000000
00000000000000
000CE300000000
001DD200000000
ENDCHAR
STARTCHAR uni1EE3
ENCODING 7907
SWIDTH 600 0
DWIDTH 12 0
BBX 12 17 0 -4
BITMAP
00000000005B
00000000006D
0000000000B7
00029DFD9B60
004EA214ED00
02EA00005F50
09E100001F80
0EA000000F80
1F8000002F60
0F9000008E10
0CD00003F800
03F9216EA000
003BEEB50000
000000000000
000000000000
000BE4000000
001DD2000000
ENDCHAR
STARTCHAR uni1EE4
ENCODING 7908
SWIDTH 600 0
DWIDTH 12 0
BBX 11 17 1 -4
BITMAP
02F700000DA0
05F400001F70
08F100004F40
0BD000007F10
0EA00000AD00
2F700000DA00
5F400001F700
8F100004F300
AD000007F000
AD00000CB000
7F10004F4000
1EB215E90000
03BEEC600000
000000000000
000000000000
00CE30000000
01DD20000000
ENDCHAR
STARTCHAR uni1EE5
ENCODING 7909
SWIDTH 600 0
DWIDTH 12 0
BBX 10 14 1 -4
BITMAP
09E00000AD
0CB00000DA
0F800001F7
3F500003F5
6F200006F2
9E000009E0
CC00000CB0
DB00008F80
AE314A4F50
2CED812F20
0000000000
0000000000
008E700000
009E600000
ENDCHAR
STARTCHAR uni1EE6
ENCODING 7910
SWIDTH 600 0
DWIDTH 12 0
BBX 11 18 1 0
BITMAP
000007D80000
0000006F2000
0000018D0000
000006B20000
000000000000
02F700000DA0
05F400001F70
08F100004F40
0BD000007F10
0EA00000AD00
2F700000DA00
5F400001F700
8F100004F300
AD000007F000
AD00000CB000
7F10004F4000
1EB215E90000
03BEEC600000
ENDCHAR
STARTCHAR uni1EE7
ENCODING 7911
SWIDTH 600 0
DWIDTH 12 0
BBX 10 15 1 0
BITMAP
00000AD500
0000019F00
000001AC00
000009A100
0000000000
09E00000AD
0CB00000DA
0F800001F7
3F500003F5
6F200006F2
9E000009E0
CC00000CB0
DB00008F80
AE314A4F50
2CED812F20
ENDCHAR
STARTCHAR uni1EE8
ENCODING 7912
SWIDTH 600 0
DWIDTH 12 0
BBX 14 17 1 0
BITMAP
00000002B30000
0000007FB202D2
000003C40002F3
000000000019D0
02F700000DE910
05F400001F7000
08F100004F4000
0BD000007F1000
0EA00000AD0000
2F700000DA0000
5F400001F70000
8F100004F30000
AD000007E00000
AD00000CA00000
7F10004F400000
1EB215E9000000
03BEEC60000000
ENDCHAR
STARTCHAR uni1EE9
ENCODING 7913
SWIDTH 600 0
DWIDTH 12 0
BBX 13 16 1 0
BITMAP
00000005900000
0000006FB00000
000008F7002C10
00000B40003F20
00000000005E00
0000000003D900
09E00000AF9000
0CB00000DB0000
0F800001F80000
3F500003F50000
6F200006F20000
9E000009E00000
CC00000CB00000
DB00008F800000
AE314A4F500000
2CED812F200000
ENDCHAR
STARTCHAR uni1EEA
ENCODING 7914
SWIDTH 600 0
DWIDTH 12 0
BBX 14 18 1 0
BITMAP
00002A00000000
00005F90000000
000006F50002D2
000000780002F3
000000000019D0
02F700000DE910
05F400001F7000
08F100004F4000
0BD000007F1000
0EA00000AD0000
2F700000DA0000
5F400001F70000
8F100004F30000
AD000007E00000
AD00000CA00000
7F10004F400000
1EB215E9000000
03BEEC60000000
ENDCHAR
STARTCHAR uni1EEB
ENCODING 7915
SWIDTH 600 0
DWIDTH 12 0
BBX 13 16 1 0
BITMAP
00005B00000000
00006F70000000
000008F3002C10
000000A6003F20
00000000005E00
0000000003D900
09E00000AF9000
0CB00000DB0000
0F800001F80000
3F500003F50000
6F200006F20000
9E000009E00000
CC00000CB00000
DB00008F800000
AE314A4F500000
2CED812F200000
ENDCHAR
STARTCHAR uni1EEC
ENCODING 7916
SWIDTH 600 0
DWIDTH 12 0
BBX 14 18 1 0
BITMAP
000007D8000000
0000006F200000
0000018D0002D2
000006B20002F3
000000000019D0
02F700000DE910
05F400001F7000
08F100004F4000
0BD000007F1000
0EA00000AD0000
2F700000DA0000
5F400001F70000
8F100004F30000
AD000007E00000
AD00000CA00000
7F10004F400000
1EB215E9000000
03BEEC60000000
ENDCHAR
STARTCHAR uni1EED
ENCODING 7917
SWIDTH 600 0
DWIDTH 12 0
BBX 13 15 1 0
BITMAP
00000AD5000000
0000019F002C10
000001AC003F20
000009A1005E00
0000000003D900
09E00000AF9000
0CB00000DB0000
0F800001F80000
3F500003F50000
6F200006F20000
9E000009E00000
CC00000CB00000
DB00008F800000
AE314A4F500000
2CED812F200000
ENDCHAR
STARTCHAR uni1EEE
ENCODING 7918
SWIDTH 600 0
DWIDTH 12 0
BBX 14 17 1 0
BITMAP
00000310011000
0002DDE51D52D2
0009705DE802F3
000000000019D0
02F700000DE910
05F400001F7000
08F100004F4000
0BD000007F1000
0EA00000AD0000
2F700000DA0000
5F400001F70000
8F100004F30000
AD000007E00000
AD00000CA00000
7F10004F400000
1EB215E9000000
03BEEC60000000
ENDCHAR
STARTCHAR uni1EEF
ENCODING 7919
SWIDTH 600 0
DWIDTH 12 0
BBX 13 15 1 0
BITMAP
00029910370000
000CABB1A82C10
003C009EA13F20
00000000005E00
0000000003D900
09E00000AF9000
0CB00000DB0000
0F800001F80000
3F500003F50000
6F200006F20000
9E000009E00000
CC00000CB00000
DB00008F800000
AE314A4F500000
2CED812F200000
ENDCHAR
STARTCHAR uni1EF0
ENCODING 7920
SWIDTH 600 0
DWIDTH 12 0
BBX 14 20 1 -4
BITMAP
000000000002D2
000000000002F3
000000000019D0
02F700000DE910
05F400001F7000
08F100004F4000
0BD000007F1000
0EA00000AD0000
2F700000DA0000
5F400001F70000
8F100004F30000
AD000007E00000
AD00000CA00000
7F10004F400000
1EB215E9000000
03BEEC60000000
00000000000000
00000000000000
00CE3000000000
01DD2000000000
ENDCHAR
STARTCHAR uni1EF1
ENCODING 7921
SWIDTH 600 0
DWIDTH 12 0
BBX 13 18 1 -4
BITMAP
00000000002C10
00000000003F20
00000000005E00
0000000003D900
09E00000AF9000
0CB00000DB0000
0F800001F80000
3F500003F50000
6F200006F20000
9E000009E00000
CC00000CB00000
DB00008F800000
AE314A4F500000
2CED812F200000
00000000000000
00000000000000
008E7000000000
009E6000000000
ENDCHAR
STARTCHAR Ygrave
ENCODING 7922
SWIDTH 600 0
DWIDTH 12 0
BBX 11 18 2 0
BITMAP
000590000000
0008F5000000
00009E300000
00000A400000
000000000000
AE0000007F30
5F400003F600
0E80001DA000
0AD0009D1000
05F204F40000
00E61D800000
00AB8C000000
005FE2000000
002F60000000
005F30000000
008F00000000
00BC00000000
00E900000000
ENDCHAR
STARTCHAR ygrave
ENCODING 7923
SWIDTH 600 0
DWIDTH 12 0
BBX 13 20 -1 -4
BITMAP
00000079000000
0000008F500000
0000000AE10000
00000000B40000
00000000000000
00000000000000
002F5000004F50
000D900000CB00
0009C00006F200
0006F1001E8000
0002F4009D1000
0000D803F50000
00009B0CA00000
00005E5E200000
00001FD7000000
00000ED0000000
00006F40000000
0001E900000000
212CC100000000
9FD81000000000
ENDCHAR
STARTCHAR uni1EF4
ENCODING 7924
SWIDTH 600 0
DWIDTH 12 0
BBX 11 17 2 -4
BITMAP
AE0000007F30
5F400003F600
0E80001DA000
0AD0009D1000
05F204F40000
00E61D800000
00AB8C000000
005FE2000000
002F60000000
005F30000000
008F00000000
00BC00000000
00E900000000
000000000000
000000000000
0BE400000000
1DD200000000
ENDCHAR
STARTCHAR uni1EF5
ENCODING 7925
SWIDTH 600 0
DWIDTH 12 0
BBX 13 14 -1 -4
BITMAP
002F5000004F50
000D900000CB00
0009C00006F200
0006F1001E8000
0002F4009D1000
0000D803F50000
00009B0CA00000
00005E5E200000
00001FD7000000
00000ED0000000
00006F40000000
0001E900000000
212CC106EA0000
9FD81007E80000
ENDCHAR
STARTCHAR uni1EF6
ENCODING 7926
SWIDTH 600 0
DWIDTH 12 0
BBX 11 18 2 0
BITMAP
0000AD500000
000019D00000
00001BA00000
000099100000
000000000000
AE0000007F30
5F400003F600
0E80001DA000
0AD0009D1000
05F204F40000
00E61D800000
00AB8C000000
005FE2000000
002F60000000
005F30000000
008F00000000
00BC00000000
00E900000000
ENDCHAR
STARTCHAR uni1EF7
ENCODING 7927
SWIDTH 600 0
DWIDTH 12 0
BBX 13 19 -1 -4
BITMAP
0000000CC40000
00000001AC0000
00000002B90000
0000000A910000
00000000000000
002F5000004F50
000D900000CB00
0009C00006F200
0006F1001E8000
0002F4009D1000
0000D803F50000
00009B0CA00000
00005E5E200000
00001FD7000000
00000ED0000000
00006F40000000
0001E900000000
212CC100000000
9FD81000000000
ENDCHAR
STARTCHAR uni1EF8
ENCODING 7928
SWIDTH 600 0
DWIDTH 12 0
BBX 11 17 2 0
BITMAP
000130001000
005EDD33E100
00C407ED5000
000000000000
AE0000007F30
5F400003F600
0E80001DA000
0AD0009D1000
05F204F40000
00E61D800000
00AB8C000000
005FE2000000
002F60000000
005F30000000
008F00000000
00BC00000000
00E900000000
ENDCHAR
STARTCHAR uni1EF9
ENCODING 7929
SWIDTH 600 0
DWIDTH 12 0
BBX 13 19 -1 -4
BITMAP
00000199103700
00000CABB1A800
00003C009EB100
00000000000000
00000000000000
002F5000004F50
000D900000CB00
0009C00006F200
0006F1001E8000
0002F4009D1000
0000D803F50000
00009B0CA00000
00005E5E200000
00001FD7000000
00000ED0000000
00006F40000000
0001E900000000
212CC100000000
9FD81000000000
ENDCHAR
STARTCHAR uni2007
ENCODING 8199
SWIDTH 600 0
DWIDTH 12 0
BBX 1 1 0 0
BITMAP
00
ENDCHAR
STARTCHAR uni2010
ENCODING 8208
SWIDTH 600 0
DWIDTH 12 0
BBX 10 1 1 6
BITMAP
4FFFFFFFF4
ENDCHAR
STARTCHAR figuredash
ENCODING 8210
SWIDTH 600 0
DWIDTH 12 0
BBX 10 1 1 5
BITMAP
9FFFFFFFF3
ENDCHAR
STARTCHAR endash
ENCODING 8211
SWIDTH 600 0
DWIDTH 12 0
BBX 10 1 1 5
BITMAP
9FFFFFFFF3
ENDCHAR
STARTCHAR emdash
ENCODING 8212
SWIDTH 600 0
DWIDTH 12 0
BBX 13 1 -1 5
BITMAP
3FFFFFFFFFFFC0
ENDCHAR
STARTCHAR uni2015
ENCODING 8213
SWIDTH 600 0
DWIDTH 12 0
BBX 13 1 -1 5
BITMAP
3FFFFFFFFFFFC0
ENDCHAR
STARTCHAR uni2016
ENCODING 8214
SWIDTH 600 0
DWIDTH 12 0
BBX 6 20 3 -5
BITMAP
C9008D
C9008D
C9008D
C9008D
C9008D
C9008D
C9008D
C9008D
C9008D
C9008D
C9008D
C9008D
C9008D
C9008D
C9008D
C9008D
C9008D
C9008D
C9008D
C9008D
ENDCHAR
STARTCHAR underscoredbl
ENCODING 8215
SWIDTH 600 0
DWIDTH 12 0
BBX 11 3 -1 -5
BITMAP
6FFFFFFFFF30
000000000000
EFFFFFFFFA00
ENDCHAR
STARTCHAR quoteleft
ENCODING 8216
SWIDTH 600 0
DWIDTH 12 0
BBX 5 7 5 7
BITMAP
002970
04E910
2E7000
9E0000
CFE200
CFF400
6EA000
ENDCHAR
STARTCHAR quoteright
ENCODING 8217
SWIDTH 600 0
DWIDTH 12 0
BBX 5 7 4 7
BITMAP
00AE60
03FFD0
01DFD0
000D90
007F20
18E500
792000
ENDCHAR
STARTCHAR quotesinglbase
ENCODING 8218
SWIDTH 600 0
DWIDTH 12 0
BBX 5 7 3 -4
BITMAP
02DD20
09FF70
06EF70
004F40
00CB00
3CC100
B71000
ENDCHAR
STARTCHAR quotereversed
ENCODING 8219
SWIDTH 600 0
DWIDTH 12 0
BBX 5 7 4 7
BITMAP
05EB00
1EFF10
5FE800
5F1000
1E6000
06F500
006A00
ENDCHAR
STARTCHAR quotedblleft
ENCODING 8220
SWIDTH 600 0
DWIDTH 12 0
BBX 10 7 2 7
BITMAP
0004B4017B
007E601CC3
06F300CB00
0DA004F300
2FFB08FE50
2FFE08FF80
0AE603DD20
ENDCHAR
STARTCHAR quotedblright
ENCODING 8221
SWIDTH 600 0
DWIDTH 12 0
BBX 10 7 2 7
BITMAP
02CE306EA0
07FF90EFF2
05EF90AFF2
002F5009E0
00BC003F60
3BD206E800
A8102B4000
ENDCHAR
STARTCHAR quotedblbase
ENCODING 8222
SWIDTH 600 0
DWIDTH 12 0
BBX 10 7 2 -4
BITMAP
02CE306EA0
07FF90EFF2
05EF90AFF2
002F5009E0
00BC003F60
3BD206E800
A8102B4000
ENDCHAR
STARTCHAR dagger
ENCODING 8224
SWIDTH 600 0
DWIDTH 12 0
BBX 8 16 3 -2
BITMAP
0003F200
0005D000
0108A010
7FFFFFF2
110E3110
002F0000
005C0000
00890000
00B60000
00E40000
03F10000
06D00000
09A00000
0C700000
1F400000
18100000
ENDCHAR
STARTCHAR daggerdbl
ENCODING 8225
SWIDTH 600 0
DWIDTH 12 0
BBX 10 15 1 -1
BITMAP
000002F200
000005E000
000107A010
006FFFFFF3
00111E4120
00002F1000
00005D0000
00009B0000
0000C70000
0000E40000
0112F11100
1FFFFFF800
0119901100
000C600000
001F400000
ENDCHAR
STARTCHAR bullet
ENCODING 8226
SWIDTH 600 0
DWIDTH 12 0
BBX 7 6 2 2
BITMAP
006DEA10
07FFFF90
1FFFFFB0
2FFFFFA0
0EFFFE20
04CEB300
ENDCHAR
STARTCHAR ellipsis
ENCODING 8230
SWIDTH 600 0
DWIDTH 12 0
BBX 12 3 -1 0
BITMAP
09E40AE30BE2
3FF63FF55FF5
1EC12EC12EB1
ENDCHAR
STARTCHAR uni202F
ENCODING 8239
SWIDTH 600 0
DWIDTH 12 0
BBX 1 1 0 0
BITMAP
00
ENDCHAR
STARTCHAR perthousand
ENCODING 8240
SWIDTH 600 0
DWIDTH 12 0
BBX 12 13 0 0
BITMAP
002BEC100000
00D61B600000
03C009600000
03D14E200169
00AEC404AEB6
000027DB6100
005AA6100000
005100000000
08EE504CEA00
7B15C2E41D30
C303C6900C30
D51B76A16C00
5EE801CEB200
ENDCHAR
STARTCHAR uni2032
ENCODING 8242
SWIDTH 600 0
DWIDTH 12 0
BBX 4 5 5 9
BITMAP
00D9
03F3
07C0
0B60
1E10
ENDCHAR
STARTCHAR uni2033
ENCODING 8243
SWIDTH 600 0
DWIDTH 12 0
BBX 7 5 4 9
BITMAP
09D02F50
0E706E10
3F20B900
7A01E300
C404B000
ENDCHAR
STARTCHAR uni2035
ENCODING 8245
SWIDTH 600 0
DWIDTH 12 0
BBX 4 5 5 9
BITMAP
2F50
0C90
06D0
01E3
0097
ENDCHAR
STARTCHAR guilsinglleft
ENCODING 8249
SWIDTH 600 0
DWIDTH 12 0
BBX 6 8 3 1
BITMAP
0002B1
003D70
04E900
1FB000
3F6000
0AE100
01D700
004900
ENDCHAR
STARTCHAR guilsinglright
ENCODING 8250
SWIDTH 600 0
DWIDTH 12 0
BBX 5 8 3 1
BITMAP
068000
03F400
00AD10
003F70
007F50
05F700
4E5000
A40000
ENDCHAR
STARTCHAR exclamdbl
ENCODING 8252
SWIDTH 600 0
DWIDTH 12 0
BBX 10 13 1 0
BITMAP
000EA000EB
002F6001F7
005F2004F3
008D0007E0
00BA000AA0
00D6000C70
01F2000F30
04D0003E00
0000000000
0000000000
4EA004EB00
CFE00BFF00
8E6007E700
ENDCHAR
STARTCHAR uni203D
ENCODING 8253
SWIDTH 600 0
DWIDTH 12 0
BBX 8 13 3 0
BITMAP
06CEEC40
8D411AF2
110003F6
005E05F2
007B2D50
00ABC300
00DC1000
01F30000
00000000
00000000
2CD10000
8FF30000
4EA00000
ENDCHAR
STARTCHAR uni203E
ENCODING 8254
SWIDTH 600 0
DWIDTH 12 0
BBX 10 1 2 12
BITMAP
7FFFFFFFFC
ENDCHAR
STARTCHAR uni203F
ENCODING 8255
SWIDTH 600 0
DWIDTH 12 0
BBX 18 4 -5 -5
BITMAP
010000000000000001
2E71000000000003AB
02AEA631001369DB40
00016ADEFEDC961000
ENDCHAR
STARTCHAR fraction
ENCODING 8260
SWIDTH 600 0
DWIDTH 12 0
BBX 14 12 -1 1
BITMAP
000000000002B1
00000000002D80
0000000002D600
000000002C4000
00000000420000
00000000000000
00000000000000
00005100000000
0007B000000000
00AA0000000000
1BA00000000000
4A000000000000
ENDCHAR
STARTCHAR uni2047
ENCODING 8263
SWIDTH 600 0
DWIDTH 12 0
BBX 13 13 0 0
BITMAP
029EEA14CFD600
03813E98518F30
00000CA0004F40
00004F5000AD10
0003E80007E300
003E70008E3000
00C90004F30000
03F20009B00000
00000000000000
00000000000000
1CD1005E900000
7FF400DFD00000
4EA0009E500000
ENDCHAR
STARTCHAR uni2048
ENCODING 8264
SWIDTH 600 0
DWIDTH 12 0
BBX 11 13 0 0
BITMAP
029EEA100AE0
03813E900DB0
00000CA00F70
00004F503F30
0003E8006E00
003E70008B00
00C90000B700
03F20000E300
000000000000
000000000000
1CD1002CD100
7FF4007FF300
4EA0004EA000
ENDCHAR
STARTCHAR uni2049
ENCODING 8265
SWIDTH 600 0
DWIDTH 12 0
BBX 13 13 0 0
BITMAP
0004F504CFD600
0007F208518F30
0009D000004F40
000C900000AD10
000F500007E300
003F10008E3000
005C0004F30000
00890009B00000
00000000000000
00000000000000
08E6005E900000
1FF900DFD00000
0CD3009E500000
ENDCHAR
STARTCHAR zero.sups
ENCODING 8304
SWIDTH 600 0
DWIDTH 12 0
BBX 7 9 3 7
BITMAP
003CE900
02E51C60
099007B0
0E3006C0
2F0007A0
3E000A80
3F001E20
0D61AA00
03DE9000
ENDCHAR
STARTCHAR i.sups
ENCODING 8305
SWIDTH 600 0
DWIDTH 12 0
BBX 6 9 4 8
BITMAP
003D40
000000
000000
AFFC00
009800
00C400
01F100
04E221
01BFD3
ENDCHAR
STARTCHAR four.sups
ENCODING 8308
SWIDTH 600 0
DWIDTH 12 0
BBX 7 9 3 7
BITMAP
0000A400
0006B000
003D2100
01D43E00
0A806A00
3FFFFFA0
0000B500
0000D300
0000F100
ENDCHAR
STARTCHAR five.sups
ENCODING 8309
SWIDTH 600 0
DWIDTH 12 0
BBX 7 8 3 7
BITMAP
005FFFD0
00A60000
01EEE600
01615F20
00000D40
00000F20
2D319B00
05DEA100
ENDCHAR
STARTCHAR six.sups
ENCODING 8310
SWIDTH 600 0
DWIDTH 12 0
BBX 6 9 4 7
BITMAP
008EE9
0AB224
4F2000
9A0000
CADE90
DA22E4
C500C4
7B15E1
1AEC30
ENDCHAR
STARTCHAR seven.sups
ENCODING 8311
SWIDTH 600 0
DWIDTH 12 0
BBX 6 8 5 7
BITMAP
EFFFF3
000970
006A00
02E200
0A8000
2F2000
7B0000
C70000
ENDCHAR
STARTCHAR eight.sups
ENCODING 8312
SWIDTH 600 0
DWIDTH 12 0
BBX 7 9 3 7
BITMAP
002BEB10
00C71A90
00E207A0
00AA3D50
009FF700
0AA29C00
1F100F20
0E617D00
04DEB300
ENDCHAR
STARTCHAR nine.sups
ENCODING 8313
SWIDTH 600 0
DWIDTH 12 0
BBX 7 9 3 7
BITMAP
004DE700
01E43E40
06A00990
088008A0
06D13E90
01AEBC60
00001D10
0512B700
1AED6000
ENDCHAR
STARTCHAR parenleft.sups
ENCODING 8317
SWIDTH 600 0
DWIDTH 12 0
BBX 5 11 5 6
BITMAP
000A20
008A00
02E100
0A8000
0E3000
3E0000
4D0000
5C0000
3D0000
1E1000
093000
ENDCHAR
STARTCHAR parenright.sups
ENCODING 8318
SWIDTH 600 0
DWIDTH 12 0
BBX 5 11 4 6
BITMAP
005700
004C00
001F00
000F20
001F10
002F00
006C00
00B600
04D000
0C5000
580000
ENDCHAR
STARTCHAR n.sups
ENCODING 8319
SWIDTH 600 0
DWIDTH 12 0
BBX 8 7 3 7
BITMAP
01E5CEB0
04F813F3
07B001F2
0A8003E0
0D5006C0
1F200990
28000630
ENDCHAR
STARTCHAR zero.subs
ENCODING 8320
SWIDTH 600 0
DWIDTH 12 0
BBX 7 9 2 -4
BITMAP
019EC300
0AA17D00
2E101F20
89000E30
B6001F10
C5004E00
B6009800
7C15E200
1AEC3000
ENDCHAR
STARTCHAR one.subs
ENCODING 8321
SWIDTH 600 0
DWIDTH 12 0
BBX 6 8 2 -4
BITMAP
039CF0
0007C0
000A90
000D60
000F30
003F10
005C00
EFFFFE
ENDCHAR
STARTCHAR two.subs
ENCODING 8322
SWIDTH 600 0
DWIDTH 12 0
BBX 6 8 2 -4
BITMAP
01AED4
07717D
00004E
000099
0005D1
007D20
1AA100
CFFFF4
ENDCHAR
STARTCHAR three.subs
ENCODING 8323
SWIDTH 600 0
DWIDTH 12 0
BBX 6 9 2 -4
BITMAP
03BED4
03518D
00004E
0003C8
00AFA0
0004E4
0000A7
B713E4
2BED60
ENDCHAR
STARTCHAR four.subs
ENCODING 8324
SWIDTH 600 0
DWIDTH 12 0
BBX 7 9 2 -4
BITMAP
00049000
002D3000
00B61000
08A0B500
4D10E200
CFFFFF10
0005B000
00079000
00097000
ENDCHAR
STARTCHAR five.subs
ENCODING 8325
SWIDTH 600 0
DWIDTH 12 0
BBX 7 8 2 -4
BITMAP
00DFFF40
04C00000
09EEB100
0521C800
00007A00
00009900
B714E300
2BEC4000
ENDCHAR
STARTCHAR six.subs
ENCODING 8326
SWIDTH 600 0
DWIDTH 12 0
BBX 7 9 2 -4
BITMAP
004CEC20
04E51510
0D700000
3F100000
6DAEC200
7E419A00
6B006A00
2E32C600
05DE7000
ENDCHAR
STARTCHAR seven.subs
ENCODING 8327
SWIDTH 600 0
DWIDTH 12 0
BBX 6 8 3 -4
BITMAP
8FFFFA
0003C1
002D20
00A700
04D000
0B8000
1F2000
6D0000
ENDCHAR
STARTCHAR eight.subs
ENCODING 8328
SWIDTH 600 0
DWIDTH 12 0
BBX 7 9 2 -4
BITMAP
008ED500
05C14E00
08801F10
04E49B00
05EFC100
4E35E300
A7009800
8B13D500
1AED6000
ENDCHAR
STARTCHAR nine.subs
ENCODING 8329
SWIDTH 600 0
DWIDTH 12 0
BBX 7 9 2 -4
BITMAP
01AEB100
0A91AA00
0F103F00
2F001F10
1E51AF00
06EE9C00
00009700
3217C000
6DEA1000
ENDCHAR
STARTCHAR parenleft.subs
ENCODING 8333
SWIDTH 600 0
DWIDTH 12 0
BBX 4 11 4 -5
BITMAP
0058
02D2
0B60
3E00
8900
C500
D400
D300
C400
9700
4800
ENDCHAR
STARTCHAR parenright.subs
ENCODING 8334
SWIDTH 600 0
DWIDTH 12 0
BBX 5 11 2 -5
BITMAP
001B00
000D30
000A60
000980
000A80
000B60
001F30
005D00
00C500
07B000
1B1000
ENDCHAR
STARTCHAR uni0259.sups
ENCODING 8340
SWIDTH 600 0
DWIDTH 12 0
BBX 7 6 3 8
BITMAP
029EEB20
036118B0
1FFFFFE0
2E000AC0
1E417F30
05DEB300
ENDCHAR
STARTCHAR colonmonetary
ENCODING 8353
SWIDTH 600 0
DWIDTH 12 0
BBX 11 17 1 -2
BITMAP
0000000A1A00
000000475600
00003AEFE600
0008F8B2CE60
007F45765310
02F7092A1000
09E10B0A0000
0EA048460000
2F6093920000
4F50B0B00000
4F5383700000
2F7848300000
0DDC0B014000
05FC395DB000
009CFEC60000
00B0B0000000
029370000000
ENDCHAR
STARTCHAR franc
ENCODING 8355
SWIDTH 600 0
DWIDTH 12 0
BBX 12 13 0 0
BITMAP
0000EFFFFFFB
0002F6000000
0005F4000000
0008F1000000
000BE0000000
000EB0000000
002FFFFFFA00
005F40000000
008F10000000
5EFFFFF10000
00EA00000000
01F700000000
04F400000000
ENDCHAR
STARTCHAR lira
ENCODING 8356
SWIDTH 600 0
DWIDTH 12 0
BBX 12 13 0 0
BITMAP
000005CFEB30
00006E612AE1
0001E8000020
0003F4000000
0004F3000000
00EFFFFFF300
0001F5000000
06EFFFFFC000
0002F4000000
0006E1000000
001D80000000
02CA00000000
3EFFFFFFF600
ENDCHAR
STARTCHAR uni20A6
ENCODING 8358
SWIDTH 600 0
DWIDTH 12 0
BBX 12 13 0 0
BITMAP
0004F80008A0
0007DA000B70
000A8D000E40
000D3F101F10
001F1C304D00
0AFFFFFFFFF4
006B07909800
2EFFFFFFFFD0
00C602E0E200
00F300E3E000
03F000B8B000
06C0009D8000
0990006F5000
ENDCHAR
STARTCHAR peseta
ENCODING 8359
SWIDTH 600 0
DWIDTH 12 0
BBX 11 13 1 0
BITMAP
001FFFEB3000
004F203BE200
006F0001E800
009D0000CA00
4EFFFFFFFFD0
00E70003F500
03F3026E9000
06FFFDA50000
09C000000000
0C9000000000
1F6000000000
4F3000000000
7E0000000000
ENDCHAR
STARTCHAR uni20A9
ENCODING 8361
SWIDTH 600 0
DWIDTH 12 0
BBX 11 13 1 0
BITMAP
04F3013007D0
05F20AF00B90
06F00CD01F40
07E049C05E00
08C095B09A00
09A0C3A0D500
EFFFFFFFFF40
0B875596B000
0C6C167A6000
0D6A087E2000
0EA609AC0000
0FD10AD70000
1FB00BF20000
ENDCHAR
STARTCHAR dong
ENCODING 8363
SWIDTH 600 0
DWIDTH 12 0
BBX 11 13 1 0
BITMAP
00000000D700
00003FFFFFB0
00000003F100
00000005D000
0019EFA9A000
02EA215F7000
0AC0000F4000
0F70003F1000
0F60006E0000
0CC216EB0000
03CED9A80000
000000000000
CFFFFFFA0000
ENDCHAR
STARTCHAR Euro
ENCODING 8364
SWIDTH 600 0
DWIDTH 12 0
BBX 12 13 0 0
BITMAP
0000018DFE91
00003EC303CC
0002EB000013
000AE1000000
002F80000000
0BFFFFFFFB00
00AD00000000
3EFFFFFF7000
00CC00000000
00AE00000000
006F40000500
000DD303AE30
0001AEFD9200
ENDCHAR
STARTCHAR uni20AE
ENCODING 8366
SWIDTH 600 0
DWIDTH 12 0
BBX 10 13 2 0
BITMAP
3FFFFFFFF9
0000CC0000
0000EA0000
0002F70300
0005F8BA10
003BF92000
3BBDD17700
330DEC6000
17DF800000
C75F400000
007F100000
00AD000000
00DA000000
ENDCHAR
STARTCHAR uni20B1
ENCODING 8369
SWIDTH 600 0
DWIDTH 12 0
BBX 11 13 1 0
BITMAP
003FFFEC6000
007F1017F500
2EFFFFFFFFF0
00C90000D800
5AFDBBBBFD60
26F7444AE420
06F2006F6000
09FBCEC40000
0BC432000000
0E8000000000
2F5000000000
5F2000000000
8E0000000000
ENDCHAR
STARTCHAR uni20B2
ENCODING 8370
SWIDTH 600 0
DWIDTH 12 0
BBX 11 17 1 -2
BITMAP
0000002F0000
0000005C0000
00006CFFC400
001CD5118E10
00CD10000200
07F300000000
0EA000000000
4F5000000000
7F2000000000
8F1007FFF500
8F100004F200
6F200007E000
2F70000AB000
0AE5126E7000
018EFEB50000
0004D0000000
0007A0000000
ENDCHAR
STARTCHAR uni20B4
ENCODING 8372
SWIDTH 600 0
DWIDTH 12 0
BBX 10 13 1 0
BITMAP
0003BEEB30
001E611AE1
00010004F4
00000006F3
0000004EA0
2EFFFFFFFE
0018EB4000
8FFFFFFFF7
0AE2000000
0E80000000
0F80000200
0AE4028F20
018DFDA300
ENDCHAR
STARTCHAR uni20B5
ENCODING 8373
SWIDTH 600 0
DWIDTH 12 0
BBX 11 17 1 -2
BITMAP
0000000B3000
0000000E0000
00003AEFD700
0008E7884E60
007F40A50200
02F800D20000
09F101E00000
0DB003C00000
1F7006900000
3F6009600000
3F600C300000
1F700E000000
0CC03C014000
04F8794DC000
004CFEC71000
0000D2000000
0001E0000000
ENDCHAR
STARTCHAR uni20B8
ENCODING 8376
SWIDTH 600 0
DWIDTH 12 0
BBX 10 13 2 0
BITMAP
2FFFFFFFFA
0000000000
9FFFFFFFF3
0003F60000
0005F30000
0008F10000
000BC00000
000EA00000
002F700000
004F400000
007F100000
00AD000000
00DA000000
ENDCHAR
STARTCHAR uni20B9
ENCODING 8377
SWIDTH 600 0
DWIDTH 12 0
BBX 11 13 1 0
BITMAP
00BFFFFFFF90
000013BC1000
0000001F7000
04EFFFFFFF00
0000002F6000
0000009E1000
00014AE40000
1FFFD8200000
001E90000000
0006F4000000
0000CD000000
00003F700000
000009F20000
ENDCHAR
STARTCHAR uni20BA
ENCODING 8378
SWIDTH 600 0
DWIDTH 12 0
BBX 10 13 1 0
BITMAP
0007F10000
000AD00120
000DA39C40
002FEB4000
3AEF505B00
447F8C8200
06DE610000
C8EA000064
01F80000E6
04F50002F4
07F2001CC0
0AE137DC20
0DFEC94000
ENDCHAR
STARTCHAR uni20BD
ENCODING 8381
SWIDTH 600 0
DWIDTH 12 0
BBX 12 13 0 0
BITMAP
00002FFFFD81
00005F3014EB
00008F00008F
0000BC00008F
0000E90000DA
0002F6014CD2
1EEFFFFEC810
0009E0000000
7EFFFFFFFD00
000F80000000
002F60000000
005F30000000
007F10000000
ENDCHAR
STARTCHAR uni2105
ENCODING 8453
SWIDTH 600 0
DWIDTH 12 0
BBX 14 13 -1 0
BITMAP
003CF900000020
03E517100006E1
0B700000006D20
0F30000007C100
0F3000005A0000
0C914100100000
02CEB200000000
00001003BFC300
0002C22E618D00
003D3099003F00
05E300C6007C00
4E3000AA14E400
0200002BFC4000
ENDCHAR
STARTCHAR uni2113
ENCODING 8467
SWIDTH 600 0
DWIDTH 12 0
BBX 9 14 2 0
BITMAP
00003BEB10
0001E81E70
0008D00C80
000D901F40
002F507C00
005F22D300
008E1C5000
00CCB50000
00FD300000
28F3000000
99F1000000
06F2000000
03F8149000
007EEB5000
ENDCHAR
STARTCHAR uni2116
ENCODING 8470
SWIDTH 600 0
DWIDTH 12 0
BBX 15 13 -2 0
BITMAP
0003F9003D400000
0006FB00AA06ED20
0009CC00E53D2A90
000C8D02F29706A0
000E5F05E0C40890
003F1F18C0E30B60
005E0E3B90C64D10
008B0D4D604ED300
00B80B6F30000000
00E50A9F04FFF300
02F209DC00000000
07E007F900000000
1E5006F600000000
ENDCHAR
STARTCHAR uni2117
ENCODING 8471
SWIDTH 600 0
DWIDTH 12 0
BBX 12 13 0 0
BITMAP
00004AEFD700
0009C5103C90
00A9000001E3
05B03FFE9077
0C207B03F359
2B00A800E449
5800D518D058
6701FFEA2094
6804E00001D1
4A07A0000970
1E2000007C00
06E5114BB100
005CFEB50000
ENDCHAR
STARTCHAR uni2120
ENCODING 8480
SWIDTH 600 0
DWIDTH 12 0
BBX 12 7 1 7
BITMAP
09ED30C600B8
2E1452D905D7
1E40059B09C4
05E5087B36E1
003F1A4B93E0
922E1D2985B0
6EE71E000780
ENDCHAR
STARTCHAR trademark
ENCODING 8482
SWIDTH 600 0
DWIDTH 12 0
BBX 12 7 1 7
BITMAP
7FFFF6BC009E
00B500DC01CB
00E201CB1798
01F004B939A6
04C00687A4D3
07900965C0F1
09700C4002D0
ENDCHAR
STARTCHAR uni2126
ENCODING 8486
SWIDTH 600 0
DWIDTH 12 0
BBX 13 13 -1 0
BITMAP
000003ADFD6000
00007E6117F700
0006E30000AE10
002F7000005F50
008E1000003F70
00DA0000003F70
01F70000004F50
02F60000008F10
01F6000000EA00
00E8000006E200
009C00002E6000
002E4003D70000
7FFFA00DFFF400
ENDCHAR
STARTCHAR estimated
ENCODING 8494
SWIDTH 600 0
DWIDTH 12 0
BBX 12 13 0 0
BITMAP
0004BEEB3000
007C5114B600
04F200001F30
0DF200001FB0
3FF200001FF2
6FF200001FF5
7FFFFFFFFFF7
6FF200000000
3FF200000000
0DF200000210
04F200001A10
007C5115B200
0004BEE91000
ENDCHAR
STARTCHAR uni2150
ENCODING 8528
SWIDTH 600 0
DWIDTH 12 0
BBX 14 13 -1 0
BITMAP
008CF1000002B1
0006D000002D80
0009A00002D600
000C70002C4000
000E4000420000
002F1000000000
00000000000000
00005109FFFF30
0007B00000B600
00AA0000098000
1BA000004D0000
4A000000B70000
00000002F20000
ENDCHAR
STARTCHAR uni2151
ENCODING 8529
SWIDTH 600 0
DWIDTH 12 0
BBX 14 13 -1 0
BITMAP
008CF1000002B1
0006D000002D80
0009A00002D600
000C70002C4000
000E4000420000
002F1000000000
00000000000000
00005104CEB100
0007B01E41A900
00AA002F22AB00
1BA00009ECB900
4A00003314D200
0000005DEB3000
ENDCHAR
STARTCHAR uni2152
ENCODING 8530
SWIDTH 600 0
DWIDTH 12 0
BBX 11 13 1 0
BITMAP
003CA0000000
037D70000000
000F30000000
003E00001690
0024004AEB60
00027DB61000
05AA61000000
051002CE8000
CFF20D51E200
05E05A00B400
08B07800D200
0B806B18A000
0D501BFA1000
ENDCHAR
STARTCHAR onethird
ENCODING 8531
SWIDTH 600 0
DWIDTH 12 0
BBX 14 13 -1 0
BITMAP
008CF1000002B1
0006D000002D80
0009A00002D600
000C70002C4000
000E4000420000
002F1000000000
00000000000000
00005101AEE500
0007B00352C800
00AA00007F9000
1BA0000002E400
4A00003812E300
00000009EE7000
ENDCHAR
STARTCHAR twothirds
ENCODING 8532
SWIDTH 600 0
DWIDTH 12 0
BBX 14 13 -1 0
BITMAP
009EE6000002B1
04718C00002D80
0000A80002D600
0008A0002C4000
03C70000420000
3FFFFB00000000
00000000000000
00005101AEE500
0007B00352C800
00AA00007F9000
1BA0000002E400
4A00003812E300
00000009EE7000
ENDCHAR
STARTCHAR uni2155
ENCODING 8533
SWIDTH 600 0
DWIDTH 12 0
BBX 14 13 -1 0
BITMAP
008CF1000002B1
0006D000002D80
0009A00002D600
000C70002C4000
000E4000420000
002F1000000000
00000000000000
00005102FFFC00
0007B006900000
00AA0009DEC200
1BA0000421C700
4A00005712D400
0000001AFD7000
ENDCHAR
STARTCHAR uni2156
ENCODING 8534
SWIDTH 600 0
DWIDTH 12 0
BBX 14 13 -1 0
BITMAP
009EE6000002B1
04718C00002D80
0000A80002D600
0008A0002C4000
03C70000420000
3FFFFB00000000
00000000000000
00005102FFFC00
0007B006900000
00AA0009DEC200
1BA0000421C700
4A00005712D400
0000001AFD7000
ENDCHAR
STARTCHAR uni2157
ENCODING 8535
SWIDTH 600 0
DWIDTH 12 0
BBX 14 13 -1 0
BITMAP
006DFA000002B1
00727D00002D80
002FD20002D600
00019A002C4000
0A31A900420000
05DEB100000000
00000000000000
00005102FFFC00
0007B006900000
00AA0009DEC200
1BA0000421C700
4A00005712D400
0000001AFD7000
ENDCHAR
STARTCHAR uni2158
ENCODING 8536
SWIDTH 600 0
DWIDTH 12 0
BBX 14 13 -1 0
BITMAP
000480000002B1
002D1000002D80
01C4540002D600
0970B4002C4000
3FFFFF10420000
0003D000000000
00000000000000
00005102FFFC00
0007B006900000
00AA0009DEC200
1BA0000421C700
4A00005712D400
0000001AFD7000
ENDCHAR
STARTCHAR uni2159
ENCODING 8537
SWIDTH 600 0
DWIDTH 12 0
BBX 14 13 -1 0
BITMAP
008CF1000002B1
0006D000002D80
0009A00002D600
000C70002C4000
000E4000420000
002F1000000000
00000000000000
000051007DE900
0007B009921400
00AA002EAED300
1BA0005E41A800
4A00003E31B600
00000007EE9000
ENDCHAR
STARTCHAR uni215A
ENCODING 8538
SWIDTH 600 0
DWIDTH 12 0
BBX 14 13 -1 0
BITMAP
00BFFF200002B1
00E00000002D80
04EEE60002D600
01417D002C4000
1A219A00420000
07EEA100000000
00000000000000
000051007DE900
0007B009921400
00AA002EAED300
1BA0005E41A800
4A00003E31B600
00000007EE9000
ENDCHAR
STARTCHAR oneeighth
ENCODING 8539
SWIDTH 600 0
DWIDTH 12 0
BBX 14 13 -1 0
BITMAP
008CF1000002B1
0006D000002D80
0009A00002D600
000C70002C4000
000E4000420000
002F1000000000
00000000000000
00005103CEE600
0007B008B29A00
00AA0004FFC100
1BA0002D34E400
4A00005C12D400
0000001BFD8000
ENDCHAR
STARTCHAR threeeighths
ENCODING 8540
SWIDTH 600 0
DWIDTH 12 0
BBX 14 13 -1 0
BITMAP
006DFA000002B1
00727D00002D80
002FD20002D600
00019A002C4000
0A31A900420000
05DEB100000000
00000000000000
00005103CEE600
0007B008B29A00
00AA0004FFC100
1BA0002D34E400
4A00005C12D400
0000001BFD8000
ENDCHAR
STARTCHAR fiveeighths
ENCODING 8541
SWIDTH 600 0
DWIDTH 12 0
BBX 14 13 -1 0
BITMAP
00BFFF200002B1
00E00000002D80
04EEE60002D600
01417D002C4000
1A219A00420000
07EEA100000000
00000000000000
00005103CEE600
0007B008B29A00
00AA0004FFC100
1BA0002D34E400
4A00005C12D400
0000001BFD8000
ENDCHAR
STARTCHAR seveneighths
ENCODING 8542
SWIDTH 600 0
DWIDTH 12 0
BBX 14 13 -1 0
BITMAP
03FFFF900002B1
00005B10002D80
0004D10002D600
000D40002C4000
005D0000420000
00B80000000000
00000000000000
00005103CEE600
0007B008B29A00
00AA0004FFC100
1BA0002D34E400
4A00005C12D400
0000001BFD8000
ENDCHAR
STARTCHAR uni2189
ENCODING 8585
SWIDTH 600 0
DWIDTH 12 0
BBX 14 13 -1 0
BITMAP
006DEA100002B1
06D31C70002D80
0E40089002D600
2F100C702C4000
0E617D10420000
05DEA200000000
00000000000000
00005101AEE500
0007B00352C800
00AA00007F9000
1BA0000002E400
4A00003812E300
00000009EE7000
ENDCHAR
STARTCHAR uni2190
ENCODING 8592
SWIDTH 600 0
DWIDTH 12 0
BBX 12 11 0 0
BITMAP
000006100000
00007E400000
0008E3000000
009E30000000
09D200000000
6FFFFFFFFFF6
09D200000000
009E30000000
0008E3000000
00007E400000
000006100000
ENDCHAR
STARTCHAR arrowup
ENCODING 8593
SWIDTH 600 0
DWIDTH 12 0
BBX 12 11 0 0
BITMAP
000008800000
00008FF80000
0007DBBD7000
007E2AA2E700
07E30AA03E60
2E400AA004E2
01000AA00010
00000AA00000
00000AA00000
00000AA00000
00000AA00000
ENDCHAR
STARTCHAR uni2192
ENCODING 8594
SWIDTH 600 0
DWIDTH 12 0
BBX 12 11 0 0
BITMAP
000002500000
000004E70000
0000004E7000
00000003E800
000000002D90
6FFFFFFFFFF6
000000002D90
00000003E800
0000004E8000
000004E70000
000002600000
ENDCHAR
STARTCHAR arrowdown
ENCODING 8595
SWIDTH 600 0
DWIDTH 12 0
BBX 12 11 0 0
BITMAP
00000AA00000
00000AA00000
00000AA00000
00000AA00000
01000AA00010
2E400AA004E2
07E30AA03E70
007E2AA2E700
0007DBBD7000
00008FF80000
000008800000
ENDCHAR
STARTCHAR arrowboth
ENCODING 8596
SWIDTH 600 0
DWIDTH 12 0
BBX 14 9 -1 1
BITMAP
00006000060000
000AC1001C9000
008D100001D800
06E20000002E60
1FFFFFFFFFFFE1
06E20000002E60
008D100001D800
000AC1001CA000
00006000060000
ENDCHAR
ENDFONT
